<svg xmlns="http://www.w3.org/2000/svg" xmlns:xlink="http://www.w3.org/1999/xlink" x="0" y="0" width="661.2666625976562" height="301.26666259765625" style="
        width:661.2666625976562px;
        height:301.26666259765625px;
        background: transparent;
        fill: none;
">
        
        
        <svg xmlns="http://www.w3.org/2000/svg" class="role-diagram-draw-area"><g class="shapes-region" style="stroke: black; fill: none;"><g class="arrow-line"><path class="connection real" stroke-dasharray="" d="  M36.97,189.63 L242,190" style="stroke: rgb(0, 0, 0); stroke-width: 1px; fill: none; fill-opacity: 1;"/></g><g class="arrow-line"><path class="connection real" stroke-dasharray="" d="  M139.48,189.82 L139.48,79.82" style="stroke: rgb(74, 144, 226); stroke-width: 1px; fill: none; fill-opacity: 1; stroke-opacity: 1;"/><g stroke="rgb(74,144,226)" fill="rgb(74,144,226)" transform="matrix(-1.8369701987210297e-16,-1,1,-1.8369701987210297e-16,139.48333740234375,79.81666564941406)" style="stroke: rgb(74, 144, 226); fill: rgb(74, 144, 226); stroke-width: 1px;" stroke-opacity="1" fill-opacity="1"><circle cx="0" cy="0" r="3.35"/></g></g><g class="composite-shape" data-amt="diagram/shapes/plot" transform="matrix(1,0,0,1,266.76666259765625,93.30349357055232)"><g><g/><g><g class="test-xti" style="font-family: Asana-Math, Asana;"><line x1="0" y1="97.41111522690542" x2="335.23333740234375" y2="97.41111522690542" fill="none" stroke="rgb(50,50,50)" stroke-opacity="1" stroke-width="1"/><line x1="62.447210868950165" y1="93.41111522690542" x2="62.447210868950165" y2="101.41111522690542" fill="none" stroke="rgb(50,50,50)" stroke-opacity="1" stroke-width="1"/><line x1="121.50971086895018" y1="93.41111522690542" x2="121.50971086895018" y2="101.41111522690542" fill="none" stroke="rgb(50,50,50)" stroke-opacity="1" stroke-width="1"/><line x1="180.57221086895018" y1="93.41111522690542" x2="180.57221086895018" y2="101.41111522690542" fill="none" stroke="rgb(50,50,50)" stroke-opacity="1" stroke-width="1"/><line x1="239.63471086895018" y1="93.41111522690542" x2="239.63471086895018" y2="101.41111522690542" fill="none" stroke="rgb(50,50,50)" stroke-opacity="1" stroke-width="1"/><line x1="298.69721086895015" y1="93.41111522690542" x2="298.69721086895015" y2="101.41111522690542" fill="none" stroke="rgb(50,50,50)" stroke-opacity="1" stroke-width="1"/><path d="M330.23333740234375,93.81111522690543 L338.23333740234375,97.41111522690542 L330.23333740234375,101.01111522690542 Z" stroke="none" stroke-width="1" fill="rgb(50,50,50)" fill-opacity="1"/></g><g class="test-plot-expression"><defs><clipPath id="cpv7q1i9aji"><rect x="1" y="1" width="337.23333740234375" height="192.69650642944768"/></clipPath></defs><g clip-path="url(#cpv7q1i9aji)"><path d=" M3.38,97.41 L3.88,95.91 L4.38,94.41 L4.87,92.93 L5.37,91.45 L5.86,89.99 L6.36,88.54 L6.85,87.10 L7.35,85.68 L7.85,84.27 L8.34,82.87 L8.84,81.49 L9.33,80.11 L9.83,78.76 L10.33,77.42 L10.82,76.09 L11.32,74.78 L11.81,73.48 L12.31,72.20 L12.80,70.93 L13.30,69.68 L13.80,68.45 L14.29,67.24 L14.79,66.04 L15.28,64.86 L15.78,63.69 L16.27,62.55 L16.77,61.42 L17.27,60.31 L17.76,59.21 L18.26,58.14 L18.75,57.08 L19.25,56.05 L19.74,55.03 L20.24,54.03 L20.74,53.05 L21.23,52.09 L21.73,51.15 L22.22,50.23 L22.72,49.33 L23.21,48.45 L23.71,47.59 L24.21,46.76 L24.70,45.94 L25.20,45.14 L25.69,44.36 L26.19,43.60 L26.68,42.87 L27.18,42.15 L27.68,41.46 L28.17,40.78 L28.67,40.13 L29.16,39.50 L29.66,38.89 L30.15,38.30 L30.65,37.73 L31.15,37.18 L31.64,36.66 L32.14,36.16 L32.63,35.67 L33.13,35.21 L33.62,34.77 L34.12,34.35 L34.62,33.95 L35.11,33.58 L35.61,33.22 L36.10,32.89 L36.60,32.57 L37.10,32.28 L37.59,32.01 L38.09,31.76 L38.58,31.53 L39.08,31.32 L39.57,31.13 L40.07,30.97 L40.57,30.82 L41.06,30.69 L41.56,30.59 L42.05,30.50 L42.55,30.43 L43.04,30.39 L43.54,30.36 L44.04,30.36 L44.53,30.37 L45.03,30.40 L45.52,30.45 L46.02,30.53 L46.51,30.62 L47.01,30.73 L47.51,30.85 L48.00,31.00 L48.50,31.17 L48.99,31.35 L49.49,31.55 L49.98,31.77 L50.48,32.01 L50.98,32.26 L51.47,32.53 L51.97,32.82 L52.46,33.13 L52.96,33.45 L53.45,33.79 L53.95,34.15 L54.45,34.52 L54.94,34.91 L55.44,35.31 L55.93,35.73 L56.43,36.16 L56.92,36.61 L57.42,37.07 L57.92,37.55 L58.41,38.05 L58.91,38.55 L59.40,39.07 L59.90,39.61 L60.40,40.15 L60.89,40.71 L61.39,41.29 L61.88,41.87 L62.38,42.47 L62.87,43.08 L63.37,43.70 L63.87,44.33 L64.36,44.98 L64.86,45.63 L65.35,46.30 L65.85,46.98 L66.34,47.66 L66.84,48.36 L67.34,49.07 L67.83,49.78 L68.33,50.51 L68.82,51.24 L69.32,51.99 L69.81,52.74 L70.31,53.49 L70.81,54.26 L71.30,55.04 L71.80,55.82 L72.29,56.60 L72.79,57.40 L73.28,58.20 L73.78,59.01 L74.28,59.82 L74.77,60.64 L75.27,61.46 L75.76,62.29 L76.26,63.13 L76.75,63.96 L77.25,64.81 L77.75,65.65 L78.24,66.50 L78.74,67.35 L79.23,68.21 L79.73,69.07 L80.22,69.93 L80.72,70.79 L81.22,71.66 L81.71,72.53 L82.21,73.40 L82.70,74.27 L83.20,75.14 L83.69,76.01 L84.19,76.88 L84.69,77.75 L85.18,78.62 L85.68,79.50 L86.17,80.37 L86.67,81.24 L87.17,82.11 L87.66,82.98 L88.16,83.84 L88.65,84.71 L89.15,85.57 L89.64,86.43 L90.14,87.29 L90.64,88.14 L91.13,88.99 L91.63,89.84 L92.12,90.69 L92.62,91.53 L93.11,92.36 L93.61,93.20 L94.11,94.03 L94.60,94.85 L95.10,95.67 L95.59,96.49 L96.09,97.29 L96.58,98.10 L97.08,98.90 L97.58,99.69 L98.07,100.48 L98.57,101.26 L99.06,102.03 L99.56,102.80 L100.05,103.56 L100.55,104.31 L101.05,105.06 L101.54,105.80 L102.04,106.53 L102.53,107.26 L103.03,107.98 L103.52,108.68 L104.02,109.39 L104.52,110.08 L105.01,110.76 L105.51,111.44 L106.00,112.11 L106.50,112.77 L106.99,113.42 L107.49,114.06 L107.99,114.69 L108.48,115.31 L108.98,115.92 L109.47,116.53 L109.97,117.12 L110.46,117.71 L110.96,118.28 L111.46,118.84 L111.95,119.40 L112.45,119.94 L112.94,120.48 L113.44,121.00 L113.94,121.51 L114.43,122.02 L114.93,122.51 L115.42,122.99 L115.92,123.46 L116.41,123.92 L116.91,124.37 L117.41,124.81 L117.90,125.24 L118.40,125.65 L118.89,126.06 L119.39,126.45 L119.88,126.84 L120.38,127.21 L120.88,127.57 L121.37,127.92 L121.87,128.26 L122.36,128.59 L122.86,128.90 L123.35,129.21 L123.85,129.50 L124.35,129.78 L124.84,130.05 L125.34,130.31 L125.83,130.56 L126.33,130.80 L126.82,131.02 L127.32,131.24 L127.82,131.44 L128.31,131.63 L128.81,131.81 L129.30,131.98 L129.80,132.14 L130.29,132.28 L130.79,132.42 L131.29,132.54 L131.78,132.65 L132.28,132.76 L132.77,132.85 L133.27,132.93 L133.76,133.00 L134.26,133.05 L134.76,133.10 L135.25,133.14 L135.75,133.16 L136.24,133.18 L136.74,133.18 L137.24,133.18 L137.73,133.16 L138.23,133.14 L138.72,133.10 L139.22,133.05 L139.71,133.00 L140.21,132.93 L140.71,132.85 L141.20,132.77 L141.70,132.67 L142.19,132.56 L142.69,132.45 L143.18,132.32 L143.68,132.19 L144.18,132.04 L144.67,131.89 L145.17,131.73 L145.66,131.56 L146.16,131.38 L146.65,131.19 L147.15,130.99 L147.65,130.79 L148.14,130.57 L148.64,130.35 L149.13,130.12 L149.63,129.88 L150.12,129.64 L150.62,129.38 L151.12,129.12 L151.61,128.85 L152.11,128.57 L152.60,128.29 L153.10,128.00 L153.59,127.70 L154.09,127.40 L154.59,127.09 L155.08,126.77 L155.58,126.44 L156.07,126.11 L156.57,125.78 L157.06,125.43 L157.56,125.08 L158.06,124.73 L158.55,124.37 L159.05,124.00 L159.54,123.63 L160.04,123.26 L160.53,122.87 L161.03,122.49 L161.53,122.10 L162.02,121.70 L162.52,121.30 L163.01,120.90 L163.51,120.49 L164.01,120.08 L164.50,119.66 L165.00,119.24 L165.49,118.82 L165.99,118.39 L166.48,117.96 L166.98,117.53 L167.48,117.09 L167.97,116.65 L168.47,116.21 L168.96,115.77 L169.46,115.32 L169.95,114.87 L170.45,114.42 L170.95,113.97 L171.44,113.51 L171.94,113.06 L172.43,112.60 L172.93,112.14 L173.42,111.68 L173.92,111.22 L174.42,110.75 L174.91,110.29 L175.41,109.83 L175.90,109.36 L176.40,108.90 L176.89,108.43 L177.39,107.97 L177.89,107.50 L178.38,107.04 L178.88,106.57 L179.37,106.11 L179.87,105.64 L180.36,105.18 L180.86,104.72 L181.36,104.26 L181.85,103.80 L182.35,103.34 L182.84,102.88 L183.34,102.42 L183.83,101.97 L184.33,101.51 L184.83,101.06 L185.32,100.61 L185.82,100.17 L186.31,99.72 L186.81,99.28 L187.30,98.84 L187.80,98.40 L188.30,97.97 L188.79,97.54 L189.29,97.11 L189.78,96.68 L190.28,96.26 L190.78,95.84 L191.27,95.42 L191.77,95.01 L192.26,94.60 L192.76,94.19 L193.25,93.79 L193.75,93.39 L194.25,92.99 L194.74,92.60 L195.24,92.21 L195.73,91.83 L196.23,91.45 L196.72,91.08 L197.22,90.71 L197.72,90.34 L198.21,89.98 L198.71,89.62 L199.20,89.27 L199.70,88.92 L200.19,88.58 L200.69,88.24 L201.19,87.91 L201.68,87.58 L202.18,87.26 L202.67,86.94 L203.17,86.63 L203.66,86.32 L204.16,86.02 L204.66,85.72 L205.15,85.43 L205.65,85.15 L206.14,84.87 L206.64,84.59 L207.13,84.32 L207.63,84.06 L208.13,83.80 L208.62,83.55 L209.12,83.30 L209.61,83.06 L210.11,82.83 L210.60,82.60 L211.10,82.38 L211.60,82.16 L212.09,81.95 L212.59,81.74 L213.08,81.54 L213.58,81.35 L214.08,81.16 L214.57,80.98 L215.07,80.80 L215.56,80.64 L216.06,80.47 L216.55,80.31 L217.05,80.16 L217.55,80.02 L218.04,79.88 L218.54,79.75 L219.03,79.62 L219.53,79.50 L220.02,79.38 L220.52,79.27 L221.02,79.17 L221.51,79.07 L222.01,78.98 L222.50,78.90 L223.00,78.82 L223.49,78.75 L223.99,78.68 L224.49,78.62 L224.98,78.56 L225.48,78.51 L225.97,78.47 L226.47,78.43 L226.96,78.40 L227.46,78.37 L227.96,78.35 L228.45,78.34 L228.95,78.33 L229.44,78.33 L229.94,78.33 L230.43,78.34 L230.93,78.35 L231.43,78.37 L231.92,78.39 L232.42,78.42 L232.91,78.46 L233.41,78.50 L233.90,78.54 L234.40,78.59 L234.90,78.65 L235.39,78.71 L235.89,78.78 L236.38,78.85 L236.88,78.92 L237.37,79.00 L237.87,79.09 L238.37,79.18 L238.86,79.28 L239.36,79.38 L239.85,79.48 L240.35,79.59 L240.85,79.70 L241.34,79.82 L241.84,79.94 L242.33,80.07 L242.83,80.20 L243.32,80.34 L243.82,80.47 L244.32,80.62 L244.81,80.76 L245.31,80.92 L245.80,81.07 L246.30,81.23 L246.79,81.39 L247.29,81.56 L247.79,81.72 L248.28,81.90 L248.78,82.07 L249.27,82.25 L249.77,82.44 L250.26,82.62 L250.76,82.81 L251.26,83.00 L251.75,83.20 L252.25,83.39 L252.74,83.59 L253.24,83.80 L253.73,84.00 L254.23,84.21 L254.73,84.42 L255.22,84.63 L255.72,84.85 L256.21,85.07 L256.71,85.29 L257.20,85.51 L257.70,85.73 L258.20,85.96 L258.69,86.19 L259.19,86.41 L259.68,86.65 L260.18,86.88 L260.67,87.11 L261.17,87.35 L261.67,87.58 L262.16,87.82 L262.66,88.06 L263.15,88.30 L263.65,88.54 L264.14,88.79 L264.64,89.03 L265.14,89.27 L265.63,89.52 L266.13,89.76 L266.62,90.01 L267.12,90.26 L267.62,90.50 L268.11,90.75 L268.61,91.00 L269.10,91.25 L269.60,91.50 L270.09,91.74 L270.59,91.99 L271.09,92.24 L271.58,92.49 L272.08,92.74 L272.57,92.98 L273.07,93.23 L273.56,93.48 L274.06,93.72 L274.56,93.97 L275.05,94.21 L275.55,94.46 L276.04,94.70 L276.54,94.95 L277.03,95.19 L277.53,95.43 L278.03,95.67 L278.52,95.91 L279.02,96.14 L279.51,96.38 L280.01,96.62 L280.50,96.85 L281.00,97.08 L281.50,97.31 L281.99,97.54 L282.49,97.77 L282.98,97.99 L283.48,98.22 L283.97,98.44 L284.47,98.66 L284.97,98.88 L285.46,99.10 L285.96,99.31 L286.45,99.53 L286.95,99.74 L287.44,99.95 L287.94,100.15 L288.44,100.36 L288.93,100.56 L289.43,100.76 L289.92,100.96 L290.42,101.16 L290.92,101.35 L291.41,101.54 L291.91,101.73 L292.40,101.91 L292.90,102.10 L293.39,102.28 L293.89,102.45 L294.39,102.63 L294.88,102.80 L295.38,102.97 L295.87,103.14 L296.37,103.30 L296.86,103.47 L297.36,103.62 L297.86,103.78 L298.35,103.93 L298.85,104.08 L299.34,104.23 L299.84,104.37 L300.33,104.51 L300.83,104.65 L301.33,104.79 L301.82,104.92 L302.32,105.05 L302.81,105.17 L303.31,105.30 L303.80,105.42 L304.30,105.53 L304.80,105.64 L305.29,105.76 L305.79,105.86 L306.28,105.97 L306.78,106.07 L307.27,106.16 L307.77,106.26 L308.27,106.35 L308.76,106.44 L309.26,106.52 L309.75,106.60 L310.25,106.68 L310.74,106.75 L311.24,106.83 L311.74,106.89 L312.23,106.96 L312.73,107.02 L313.22,107.08 L313.72,107.13 L314.21,107.19 L314.71,107.24 L315.21,107.28 L315.70,107.32 L316.20,107.36 L316.69,107.40 L317.19,107.43 L317.69,107.46 L318.18,107.49 L318.68,107.51 L319.17,107.53 L319.67,107.55 L320.16,107.57 L320.66,107.58 L321.16,107.58 L321.65,107.59 L322.15,107.59 L322.64,107.59 L323.14,107.59 L323.63,107.58 L324.13,107.57 L324.63,107.56 L325.12,107.54 L325.62,107.53 L326.11,107.50 L326.61,107.48 L327.10,107.45 L327.60,107.42 L328.10,107.39 L328.59,107.36 L329.09,107.32 L329.58,107.28 L330.08,107.24 L330.57,107.19 L331.07,107.14 L331.57,107.09 L332.06,107.04 L332.56,106.99 L333.05,106.93 L333.55,106.87 L334.04,106.80 L334.54,106.74 L335.04,106.67 L335.53,106.60 L336.03,106.53 L336.52,106.46 L337.02,106.38 L337.51,106.30 L338.01,106.22 L338.51,106.14 L339.00,106.06 L339.23,106.02" style="stroke-width: 2px; stroke: rgb(74, 144, 226); stroke-opacity: 0.8;"/></g></g><g class="test-xtl" style="font-family: &quot;Open Sans&quot;, verdana, arial, sans-serif;"/><rect class="real" x="1" y="1" width="337.23333740234375" height="192.69650642944768" style="fill: transparent; stroke: none;"/></g></g></g><g/></g><g/><g/><g/></svg>
        <svg xmlns="http://www.w3.org/2000/svg" xmlns:xlink="http://www.w3.org/1999/xlink" width="660" height="300" style="width:660px;height:300px;font-family:Asana-Math, Asana;background:transparent;"><g><g><g><g transform="matrix(1,0,0,1,154.63336181640625,86.69998168945312)"><path transform="matrix(0.017,0,0,-0.017,0,0)" d="M183 -16C340 -16 453 139 455 287C458 470 216 507 227 622C234 698 356 689 413 655L423 655C420 667 417 681 411 694C316 715 167 698 156 597C149 540 224 493 266 464L266 458C123 426 31 304 29 160C27 53 70 -16 183 -16ZM209 12C125 12 105 99 106 167C108 295 153 411 287 448C349 399 381 350 380 269C378 174 327 12 209 12Z" stroke="rgb(74,144,226)" stroke-opacity="1" stroke-width="8" fill="rgb(74,144,226)" fill-opacity="1"></path></g></g><g><g transform="matrix(1,0,0,1,163.0833740234375,86.63330078125)"><path transform="matrix(0.017,0,0,-0.017,0,0)" d="M146 266C146 526 243 632 301 700L282 726C225 675 60 542 60 266C60 159 85 58 133 -32C168 -99 200 -138 282 -215L301 -194C255 -137 146 -15 146 266Z" stroke="rgb(74,144,226)" stroke-opacity="1" stroke-width="8" fill="rgb(74,144,226)" fill-opacity="1"></path></g></g><g><g transform="matrix(1,0,0,1,168.73333740234375,86.69998168945312)"><path transform="matrix(0.017,0,0,-0.017,0,0)" d="M125 390L69 107C68 99 56 61 56 31C56 6 67 -9 86 -9C121 -9 156 11 234 74L265 99L255 117L210 86C181 66 161 56 150 56C141 56 136 64 136 76C136 102 150 183 179 328L192 390L299 390L310 440C272 436 238 434 200 434C216 528 227 577 245 631L234 646C214 634 187 622 156 610L131 440C87 419 61 408 43 403L41 390Z" stroke="rgb(74,144,226)" stroke-opacity="1" stroke-width="8" fill="rgb(74,144,226)" fill-opacity="1"></path></g></g><g><g transform="matrix(1,0,0,1,174.38336181640625,86.63330078125)"><path transform="matrix(0.017,0,0,-0.017,0,0)" d="M51 726L32 700C87 636 187 526 187 266C187 -10 83 -131 32 -194L51 -215C104 -165 273 -23 273 265C273 542 108 675 51 726Z" stroke="rgb(74,144,226)" stroke-opacity="1" stroke-width="8" fill="rgb(74,144,226)" fill-opacity="1"></path></g></g></g></g><g><g><g><text x="123.63336181640625" y="41.89996337890625" style="white-space:pre;stroke:none;fill:rgb(0,0,0);fill-opacity:1;font-size:15px;font-family:Arial, Helvetica, sans-serif;font-weight:400;font-style:normal;dominant-baseline:text-before-edge;text-decoration:rgb(0, 0, 0);">Input</text></g></g></g><g><g><g><text x="405.63336181640625" y="41.89996337890625" style="white-space:pre;stroke:none;fill:rgb(0,0,0);fill-opacity:1;font-size:15px;font-family:Arial, Helvetica, sans-serif;font-weight:400;font-style:normal;dominant-baseline:text-before-edge;text-decoration:rgb(0, 0, 0);">Output</text></g></g></g><g><g><g><g transform="matrix(1,0,0,1,135.26666259765625,209.51666259765625)"><path transform="matrix(0.017,0,0,-0.017,0,0)" d="M263 689C108 689 29 566 29 324C29 207 50 106 85 57C120 8 176 -20 238 -20C389 -20 465 110 465 366C465 585 400 689 263 689ZM245 654C342 654 381 556 381 316C381 103 343 15 251 15C154 15 113 116 113 360C113 571 150 654 245 654Z" stroke="rgb(0,0,0)" stroke-opacity="1" stroke-width="8" fill="rgb(0,0,0)" fill-opacity="1"></path></g></g></g></g><g><g><g><g transform="matrix(1,0,0,1,617.63330078125,194.70001220703125)"><path transform="matrix(0.017,0,0,-0.017,0,0)" d="M125 390L69 107C68 99 56 61 56 31C56 6 67 -9 86 -9C121 -9 156 11 234 74L265 99L255 117L210 86C181 66 161 56 150 56C141 56 136 64 136 76C136 102 150 183 179 328L192 390L299 390L310 440C272 436 238 434 200 434C216 528 227 577 245 631L234 646C214 634 187 622 156 610L131 440C87 419 61 408 43 403L41 390Z" stroke="rgb(0,0,0)" stroke-opacity="1" stroke-width="8" fill="rgb(0,0,0)" fill-opacity="1"></path></g></g></g></g></svg>
</svg>
