<svg xmlns="http://www.w3.org/2000/svg" xmlns:xlink="http://www.w3.org/1999/xlink" x="0" y="0" width="661.2666625976562" height="301.26666259765625" style="
        width:661.2666625976562px;
        height:301.26666259765625px;
        background: transparent;
        fill: none;
">
        
        
        <svg xmlns="http://www.w3.org/2000/svg" class="role-diagram-draw-area"><g class="shapes-region" style="stroke: black; fill: none;"><g class="arrow-line"><path class="connection real" stroke-dasharray="" d="  M40.48,189.63 L245.52,190" style="stroke: rgb(0, 0, 0); stroke-width: 1px; fill: none; fill-opacity: 1;"/></g><g class="arrow-line"><path class="connection real" stroke-dasharray="" d="  M175,190 L175,80" style="stroke: rgb(126, 211, 33); stroke-opacity: 1; stroke-width: 1px; fill: none; fill-opacity: 1;"/><g stroke="rgb(126,211,33)" stroke-opacity="1" fill="rgb(126,211,33)" fill-opacity="1" transform="matrix(-1.8369701987210297e-16,-1,1,-1.8369701987210297e-16,175,80)" style="stroke: rgb(126, 211, 33); fill: rgb(126, 211, 33); stroke-width: 1px;"><circle cx="0" cy="0" r="3.35"/></g></g><g class="composite-shape" data-amt="diagram/shapes/plot" transform="matrix(1,0,0,1,273.0333251953125,93.30349357055232)"><g><g/><g><g class="test-xti" style="font-family: Asana-Math, Asana;"><line x1="0" y1="97.41111522690542" x2="335.23333740234375" y2="97.41111522690542" fill="none" stroke="rgb(50,50,50)" stroke-opacity="1" stroke-width="1"/><line x1="62.447210868950165" y1="93.41111522690542" x2="62.447210868950165" y2="101.41111522690542" fill="none" stroke="rgb(50,50,50)" stroke-opacity="1" stroke-width="1"/><line x1="121.50971086895018" y1="93.41111522690542" x2="121.50971086895018" y2="101.41111522690542" fill="none" stroke="rgb(50,50,50)" stroke-opacity="1" stroke-width="1"/><line x1="180.57221086895018" y1="93.41111522690542" x2="180.57221086895018" y2="101.41111522690542" fill="none" stroke="rgb(50,50,50)" stroke-opacity="1" stroke-width="1"/><line x1="239.63471086895018" y1="93.41111522690542" x2="239.63471086895018" y2="101.41111522690542" fill="none" stroke="rgb(50,50,50)" stroke-opacity="1" stroke-width="1"/><line x1="298.69721086895015" y1="93.41111522690542" x2="298.69721086895015" y2="101.41111522690542" fill="none" stroke="rgb(50,50,50)" stroke-opacity="1" stroke-width="1"/><path d="M330.23333740234375,93.81111522690543 L338.23333740234375,97.41111522690542 L330.23333740234375,101.01111522690542 Z" stroke="none" stroke-width="1" fill="rgb(50,50,50)" fill-opacity="1"/></g><g class="test-plot-expression"><defs><clipPath id="cpwig4xx6zs"><rect x="1" y="1" width="337.23333740234375" height="192.69650642944768"/></clipPath></defs><g clip-path="url(#cpwig4xx6zs)"><path d=" M3.38,97.41 L3.88,96.21 L4.38,95.01 L4.87,93.82 L5.37,92.64 L5.86,91.48 L6.36,90.32 L6.85,89.17 L7.35,88.03 L7.85,86.90 L8.34,85.78 L8.84,84.67 L9.33,83.57 L9.83,82.49 L10.33,81.41 L10.82,80.35 L11.32,79.30 L11.81,78.27 L12.31,77.24 L12.80,76.23 L13.30,75.23 L13.80,74.24 L14.29,73.27 L14.79,72.31 L15.28,71.37 L15.78,70.44 L16.27,69.52 L16.77,68.62 L17.27,67.73 L17.76,66.85 L18.26,65.99 L18.75,65.15 L19.25,64.32 L19.74,63.51 L20.24,62.71 L20.74,61.92 L21.23,61.16 L21.73,60.41 L22.22,59.67 L22.72,58.95 L23.21,58.25 L23.71,57.56 L24.21,56.89 L24.70,56.23 L25.20,55.59 L25.69,54.97 L26.19,54.36 L26.68,53.78 L27.18,53.20 L27.68,52.65 L28.17,52.11 L28.67,51.59 L29.16,51.08 L29.66,50.59 L30.15,50.12 L30.65,49.67 L31.15,49.23 L31.64,48.81 L32.14,48.41 L32.63,48.02 L33.13,47.65 L33.62,47.30 L34.12,46.96 L34.62,46.64 L35.11,46.34 L35.61,46.06 L36.10,45.79 L36.60,45.54 L37.10,45.31 L37.59,45.09 L38.09,44.89 L38.58,44.71 L39.08,44.54 L39.57,44.39 L40.07,44.25 L40.57,44.14 L41.06,44.04 L41.56,43.95 L42.05,43.88 L42.55,43.83 L43.04,43.79 L43.54,43.77 L44.04,43.77 L44.53,43.78 L45.03,43.80 L45.52,43.85 L46.02,43.90 L46.51,43.98 L47.01,44.06 L47.51,44.17 L48.00,44.28 L48.50,44.42 L48.99,44.56 L49.49,44.72 L49.98,44.90 L50.48,45.09 L50.98,45.29 L51.47,45.51 L51.97,45.74 L52.46,45.99 L52.96,46.24 L53.45,46.52 L53.95,46.80 L54.45,47.10 L54.94,47.41 L55.44,47.73 L55.93,48.07 L56.43,48.41 L56.92,48.77 L57.42,49.14 L57.92,49.52 L58.41,49.92 L58.91,50.32 L59.40,50.74 L59.90,51.17 L60.40,51.60 L60.89,52.05 L61.39,52.51 L61.88,52.98 L62.38,53.46 L62.87,53.95 L63.37,54.44 L63.87,54.95 L64.36,55.47 L64.86,55.99 L65.35,56.52 L65.85,57.06 L66.34,57.61 L66.84,58.17 L67.34,58.74 L67.83,59.31 L68.33,59.89 L68.82,60.48 L69.32,61.07 L69.81,61.67 L70.31,62.28 L70.81,62.89 L71.30,63.51 L71.80,64.14 L72.29,64.77 L72.79,65.40 L73.28,66.04 L73.78,66.69 L74.28,67.34 L74.77,67.99 L75.27,68.65 L75.76,69.32 L76.26,69.98 L76.75,70.65 L77.25,71.33 L77.75,72.00 L78.24,72.68 L78.74,73.37 L79.23,74.05 L79.73,74.74 L80.22,75.43 L80.72,76.12 L81.22,76.81 L81.71,77.50 L82.21,78.20 L82.70,78.89 L83.20,79.59 L83.69,80.29 L84.19,80.99 L84.69,81.68 L85.18,82.38 L85.68,83.08 L86.17,83.78 L86.67,84.47 L87.17,85.17 L87.66,85.86 L88.16,86.56 L88.65,87.25 L89.15,87.94 L89.64,88.63 L90.14,89.31 L90.64,89.99 L91.13,90.68 L91.63,91.35 L92.12,92.03 L92.62,92.70 L93.11,93.37 L93.61,94.04 L94.11,94.70 L94.60,95.36 L95.10,96.02 L95.59,96.67 L96.09,97.32 L96.58,97.96 L97.08,98.60 L97.58,99.23 L98.07,99.86 L98.57,100.49 L99.06,101.11 L99.56,101.72 L100.05,102.33 L100.55,102.93 L101.05,103.53 L101.54,104.12 L102.04,104.71 L102.53,105.29 L103.03,105.86 L103.52,106.43 L104.02,106.99 L104.52,107.55 L105.01,108.09 L105.51,108.63 L106.00,109.17 L106.50,109.70 L106.99,110.22 L107.49,110.73 L107.99,111.23 L108.48,111.73 L108.98,112.22 L109.47,112.70 L109.97,113.18 L110.46,113.65 L110.96,114.11 L111.46,114.56 L111.95,115.00 L112.45,115.44 L112.94,115.86 L113.44,116.28 L113.94,116.69 L114.43,117.10 L114.93,117.49 L115.42,117.87 L115.92,118.25 L116.41,118.62 L116.91,118.98 L117.41,119.33 L117.90,119.67 L118.40,120.01 L118.89,120.33 L119.39,120.65 L119.88,120.95 L120.38,121.25 L120.88,121.54 L121.37,121.82 L121.87,122.09 L122.36,122.35 L122.86,122.60 L123.35,122.85 L123.85,123.08 L124.35,123.31 L124.84,123.52 L125.34,123.73 L125.83,123.93 L126.33,124.12 L126.82,124.30 L127.32,124.47 L127.82,124.63 L128.31,124.79 L128.81,124.93 L129.30,125.06 L129.80,125.19 L130.29,125.31 L130.79,125.42 L131.29,125.52 L131.78,125.61 L132.28,125.69 L132.77,125.76 L133.27,125.82 L133.76,125.88 L134.26,125.93 L134.76,125.96 L135.25,125.99 L135.75,126.01 L136.24,126.03 L136.74,126.03 L137.24,126.03 L137.73,126.01 L138.23,125.99 L138.72,125.96 L139.22,125.92 L139.71,125.88 L140.21,125.83 L140.71,125.76 L141.20,125.69 L141.70,125.62 L142.19,125.53 L142.69,125.44 L143.18,125.34 L143.68,125.23 L144.18,125.12 L144.67,124.99 L145.17,124.87 L145.66,124.73 L146.16,124.58 L146.65,124.43 L147.15,124.28 L147.65,124.11 L148.14,123.94 L148.64,123.76 L149.13,123.58 L149.63,123.39 L150.12,123.19 L150.62,122.99 L151.12,122.78 L151.61,122.56 L152.11,122.34 L152.60,122.11 L153.10,121.88 L153.59,121.64 L154.09,121.40 L154.59,121.15 L155.08,120.90 L155.58,120.64 L156.07,120.37 L156.57,120.10 L157.06,119.83 L157.56,119.55 L158.06,119.27 L158.55,118.98 L159.05,118.68 L159.54,118.39 L160.04,118.09 L160.53,117.78 L161.03,117.47 L161.53,117.16 L162.02,116.84 L162.52,116.52 L163.01,116.20 L163.51,115.87 L164.01,115.54 L164.50,115.21 L165.00,114.88 L165.49,114.54 L165.99,114.20 L166.48,113.85 L166.98,113.50 L167.48,113.16 L167.97,112.80 L168.47,112.45 L168.96,112.10 L169.46,111.74 L169.95,111.38 L170.45,111.02 L170.95,110.66 L171.44,110.29 L171.94,109.93 L172.43,109.56 L172.93,109.19 L173.42,108.82 L173.92,108.45 L174.42,108.08 L174.91,107.71 L175.41,107.34 L175.90,106.97 L176.40,106.60 L176.89,106.23 L177.39,105.85 L177.89,105.48 L178.38,105.11 L178.88,104.74 L179.37,104.37 L179.87,104.00 L180.36,103.63 L180.86,103.26 L181.36,102.89 L181.85,102.52 L182.35,102.15 L182.84,101.79 L183.34,101.42 L183.83,101.06 L184.33,100.69 L184.83,100.33 L185.32,99.97 L185.82,99.62 L186.31,99.26 L186.81,98.91 L187.30,98.55 L187.80,98.20 L188.30,97.86 L188.79,97.51 L189.29,97.17 L189.78,96.83 L190.28,96.49 L190.78,96.15 L191.27,95.82 L191.77,95.49 L192.26,95.16 L192.76,94.83 L193.25,94.51 L193.75,94.19 L194.25,93.88 L194.74,93.56 L195.24,93.25 L195.73,92.95 L196.23,92.64 L196.72,92.34 L197.22,92.05 L197.72,91.75 L198.21,91.47 L198.71,91.18 L199.20,90.90 L199.70,90.62 L200.19,90.35 L200.69,90.08 L201.19,89.81 L201.68,89.55 L202.18,89.29 L202.67,89.04 L203.17,88.79 L203.66,88.54 L204.16,88.30 L204.66,88.06 L205.15,87.83 L205.65,87.60 L206.14,87.38 L206.64,87.16 L207.13,86.94 L207.63,86.73 L208.13,86.52 L208.62,86.32 L209.12,86.12 L209.61,85.93 L210.11,85.74 L210.60,85.56 L211.10,85.38 L211.60,85.21 L212.09,85.04 L212.59,84.88 L213.08,84.72 L213.58,84.56 L214.08,84.41 L214.57,84.27 L215.07,84.13 L215.56,83.99 L216.06,83.86 L216.55,83.73 L217.05,83.61 L217.55,83.50 L218.04,83.39 L218.54,83.28 L219.03,83.18 L219.53,83.08 L220.02,82.99 L220.52,82.90 L221.02,82.82 L221.51,82.74 L222.01,82.67 L222.50,82.60 L223.00,82.54 L223.49,82.48 L223.99,82.43 L224.49,82.38 L224.98,82.33 L225.48,82.29 L225.97,82.26 L226.47,82.23 L226.96,82.20 L227.46,82.18 L227.96,82.17 L228.45,82.15 L228.95,82.15 L229.44,82.14 L229.94,82.15 L230.43,82.15 L230.93,82.16 L231.43,82.18 L231.92,82.20 L232.42,82.22 L232.91,82.25 L233.41,82.28 L233.90,82.32 L234.40,82.36 L234.90,82.40 L235.39,82.45 L235.89,82.50 L236.38,82.56 L236.88,82.62 L237.37,82.69 L237.87,82.75 L238.37,82.83 L238.86,82.90 L239.36,82.98 L239.85,83.07 L240.35,83.15 L240.85,83.24 L241.34,83.34 L241.84,83.44 L242.33,83.54 L242.83,83.64 L243.32,83.75 L243.82,83.86 L244.32,83.98 L244.81,84.09 L245.31,84.21 L245.80,84.34 L246.30,84.46 L246.79,84.59 L247.29,84.73 L247.79,84.86 L248.28,85.00 L248.78,85.14 L249.27,85.28 L249.77,85.43 L250.26,85.58 L250.76,85.73 L251.26,85.88 L251.75,86.04 L252.25,86.20 L252.74,86.36 L253.24,86.52 L253.73,86.68 L254.23,86.85 L254.73,87.02 L255.22,87.19 L255.72,87.36 L256.21,87.54 L256.71,87.71 L257.20,87.89 L257.70,88.07 L258.20,88.25 L258.69,88.43 L259.19,88.61 L259.68,88.80 L260.18,88.98 L260.67,89.17 L261.17,89.36 L261.67,89.55 L262.16,89.74 L262.66,89.93 L263.15,90.12 L263.65,90.32 L264.14,90.51 L264.64,90.71 L265.14,90.90 L265.63,91.10 L266.13,91.29 L266.62,91.49 L267.12,91.69 L267.62,91.89 L268.11,92.08 L268.61,92.28 L269.10,92.48 L269.60,92.68 L270.09,92.88 L270.59,93.08 L271.09,93.28 L271.58,93.47 L272.08,93.67 L272.57,93.87 L273.07,94.07 L273.56,94.26 L274.06,94.46 L274.56,94.66 L275.05,94.85 L275.55,95.05 L276.04,95.24 L276.54,95.44 L277.03,95.63 L277.53,95.82 L278.03,96.02 L278.52,96.21 L279.02,96.40 L279.51,96.59 L280.01,96.77 L280.50,96.96 L281.00,97.15 L281.50,97.33 L281.99,97.52 L282.49,97.70 L282.98,97.88 L283.48,98.06 L283.97,98.24 L284.47,98.41 L284.97,98.59 L285.46,98.76 L285.96,98.93 L286.45,99.10 L286.95,99.27 L287.44,99.44 L287.94,99.61 L288.44,99.77 L288.93,99.93 L289.43,100.09 L289.92,100.25 L290.42,100.41 L290.92,100.56 L291.41,100.71 L291.91,100.86 L292.40,101.01 L292.90,101.16 L293.39,101.30 L293.89,101.45 L294.39,101.59 L294.88,101.72 L295.38,101.86 L295.87,101.99 L296.37,102.13 L296.86,102.25 L297.36,102.38 L297.86,102.51 L298.35,102.63 L298.85,102.75 L299.34,102.87 L299.84,102.98 L300.33,103.09 L300.83,103.20 L301.33,103.31 L301.82,103.42 L302.32,103.52 L302.81,103.62 L303.31,103.72 L303.80,103.81 L304.30,103.91 L304.80,104.00 L305.29,104.09 L305.79,104.17 L306.28,104.25 L306.78,104.33 L307.27,104.41 L307.77,104.49 L308.27,104.56 L308.76,104.63 L309.26,104.70 L309.75,104.76 L310.25,104.83 L310.74,104.89 L311.24,104.94 L311.74,105.00 L312.23,105.05 L312.73,105.10 L313.22,105.15 L313.72,105.19 L314.21,105.23 L314.71,105.27 L315.21,105.31 L315.70,105.34 L316.20,105.37 L316.69,105.40 L317.19,105.43 L317.69,105.45 L318.18,105.47 L318.68,105.49 L319.17,105.51 L319.67,105.52 L320.16,105.53 L320.66,105.54 L321.16,105.55 L321.65,105.55 L322.15,105.56 L322.64,105.56 L323.14,105.55 L323.63,105.55 L324.13,105.54 L324.63,105.53 L325.12,105.52 L325.62,105.50 L326.11,105.49 L326.61,105.47 L327.10,105.45 L327.60,105.42 L328.10,105.40 L328.59,105.37 L329.09,105.34 L329.58,105.31 L330.08,105.27 L330.57,105.24 L331.07,105.20 L331.57,105.16 L332.06,105.11 L332.56,105.07 L333.05,105.02 L333.55,104.98 L334.04,104.93 L334.54,104.87 L335.04,104.82 L335.53,104.76 L336.03,104.71 L336.52,104.65 L337.02,104.59 L337.51,104.52 L338.01,104.46 L338.51,104.40 L339.00,104.33 L339.23,104.30" style="stroke-width: 2px; stroke: rgb(74, 144, 226); stroke-opacity: 0.8;"/><path d=" M62.45,97.41 L62.86,96.17 L63.26,94.93 L63.67,93.71 L64.08,92.49 L64.49,91.28 L64.90,90.07 L65.31,88.88 L65.72,87.69 L66.12,86.51 L66.53,85.34 L66.94,84.18 L67.35,83.02 L67.76,81.88 L68.17,80.75 L68.58,79.62 L68.98,78.51 L69.39,77.40 L69.80,76.31 L70.21,75.22 L70.62,74.15 L71.03,73.08 L71.44,72.03 L71.84,70.99 L72.25,69.96 L72.66,68.94 L73.07,67.93 L73.48,66.93 L73.89,65.95 L74.30,64.97 L74.70,64.01 L75.11,63.06 L75.52,62.12 L75.93,61.20 L76.34,60.28 L76.75,59.38 L77.16,58.49 L77.56,57.62 L77.97,56.75 L78.38,55.90 L78.79,55.07 L79.20,54.24 L79.61,53.43 L80.02,52.63 L80.42,51.85 L80.83,51.07 L81.24,50.32 L81.65,49.57 L82.06,48.84 L82.47,48.12 L82.88,47.42 L83.28,46.73 L83.69,46.05 L84.10,45.39 L84.51,44.74 L84.92,44.11 L85.33,43.49 L85.74,42.88 L86.14,42.29 L86.55,41.72 L86.96,41.15 L87.37,40.60 L87.78,40.07 L88.19,39.55 L88.60,39.04 L89.00,38.55 L89.41,38.07 L89.82,37.61 L90.23,37.16 L90.64,36.73 L91.05,36.31 L91.46,35.90 L91.86,35.51 L92.27,35.14 L92.68,34.78 L93.09,34.43 L93.50,34.10 L93.91,33.78 L94.31,33.47 L94.72,33.18 L95.13,32.91 L95.54,32.65 L95.95,32.40 L96.36,32.17 L96.77,31.95 L97.17,31.75 L97.58,31.56 L97.99,31.38 L98.40,31.22 L98.81,31.07 L99.22,30.94 L99.63,30.82 L100.03,30.71 L100.44,30.62 L100.85,30.54 L101.26,30.48 L101.67,30.43 L102.08,30.39 L102.49,30.37 L102.89,30.36 L103.30,30.36 L103.71,30.38 L104.12,30.41 L104.53,30.45 L104.94,30.50 L105.35,30.57 L105.75,30.65 L106.16,30.75 L106.57,30.86 L106.98,30.98 L107.39,31.11 L107.80,31.25 L108.21,31.41 L108.61,31.58 L109.02,31.76 L109.43,31.95 L109.84,32.16 L110.25,32.38 L110.66,32.60 L111.07,32.85 L111.47,33.10 L111.88,33.36 L112.29,33.64 L112.70,33.92 L113.11,34.22 L113.52,34.53 L113.93,34.84 L114.33,35.17 L114.74,35.51 L115.15,35.86 L115.56,36.22 L115.97,36.59 L116.38,36.97 L116.79,37.37 L117.19,37.77 L117.60,38.18 L118.01,38.59 L118.42,39.02 L118.83,39.46 L119.24,39.91 L119.65,40.36 L120.05,40.83 L120.46,41.30 L120.87,41.78 L121.28,42.27 L121.69,42.77 L122.10,43.28 L122.51,43.79 L122.91,44.32 L123.32,44.85 L123.73,45.38 L124.14,45.93 L124.55,46.48 L124.96,47.04 L125.37,47.61 L125.77,48.18 L126.18,48.76 L126.59,49.35 L127.00,49.94 L127.41,50.54 L127.82,51.14 L128.23,51.75 L128.63,52.37 L129.04,52.99 L129.45,53.62 L129.86,54.25 L130.27,54.89 L130.68,55.53 L131.09,56.17 L131.49,56.83 L131.90,57.48 L132.31,58.14 L132.72,58.81 L133.13,59.48 L133.54,60.15 L133.95,60.82 L134.35,61.50 L134.76,62.19 L135.17,62.87 L135.58,63.56 L135.99,64.25 L136.40,64.95 L136.81,65.65 L137.21,66.35 L137.62,67.05 L138.03,67.75 L138.44,68.46 L138.85,69.17 L139.26,69.88 L139.67,70.59 L140.07,71.30 L140.48,72.02 L140.89,72.73 L141.30,73.45 L141.71,74.16 L142.12,74.88 L142.53,75.60 L142.93,76.32 L143.34,77.04 L143.75,77.76 L144.16,78.47 L144.57,79.19 L144.98,79.91 L145.38,80.63 L145.79,81.35 L146.20,82.06 L146.61,82.78 L147.02,83.49 L147.43,84.21 L147.84,84.92 L148.24,85.63 L148.65,86.34 L149.06,87.04 L149.47,87.75 L149.88,88.45 L150.29,89.15 L150.70,89.85 L151.10,90.55 L151.51,91.24 L151.92,91.94 L152.33,92.62 L152.74,93.31 L153.15,93.99 L153.56,94.67 L153.96,95.35 L154.37,96.02 L154.78,96.69 L155.19,97.36 L155.60,98.02 L156.01,98.68 L156.42,99.34 L156.82,99.99 L157.23,100.63 L157.64,101.28 L158.05,101.91 L158.46,102.55 L158.87,103.18 L159.28,103.80 L159.68,104.42 L160.09,105.04 L160.50,105.65 L160.91,106.25 L161.32,106.85 L161.73,107.45 L162.14,108.04 L162.54,108.62 L162.95,109.20 L163.36,109.78 L163.77,110.34 L164.18,110.91 L164.59,111.46 L165.00,112.01 L165.40,112.56 L165.81,113.10 L166.22,113.63 L166.63,114.16 L167.04,114.68 L167.45,115.19 L167.86,115.70 L168.26,116.20 L168.67,116.69 L169.08,117.18 L169.49,117.66 L169.90,118.14 L170.31,118.60 L170.72,119.07 L171.12,119.52 L171.53,119.97 L171.94,120.41 L172.35,120.84 L172.76,121.27 L173.17,121.69 L173.58,122.10 L173.98,122.50 L174.39,122.90 L174.80,123.29 L175.21,123.68 L175.62,124.05 L176.03,124.42 L176.44,124.78 L176.84,125.14 L177.25,125.48 L177.66,125.82 L178.07,126.15 L178.48,126.48 L178.89,126.79 L179.30,127.10 L179.70,127.40 L180.11,127.69 L180.52,127.98 L180.93,128.26 L181.34,128.53 L181.75,128.79 L182.16,129.05 L182.56,129.29 L182.97,129.53 L183.38,129.77 L183.79,129.99 L184.20,130.21 L184.61,130.42 L185.02,130.62 L185.42,130.81 L185.83,131.00 L186.24,131.18 L186.65,131.35 L187.06,131.51 L187.47,131.66 L187.88,131.81 L188.28,131.95 L188.69,132.08 L189.10,132.21 L189.51,132.32 L189.92,132.43 L190.33,132.54 L190.74,132.63 L191.14,132.72 L191.55,132.80 L191.96,132.87 L192.37,132.93 L192.78,132.99 L193.19,133.04 L193.60,133.08 L194.00,133.12 L194.41,133.14 L194.82,133.16 L195.23,133.18 L195.64,133.18 L196.05,133.18 L196.46,133.17 L196.86,133.16 L197.27,133.14 L197.68,133.11 L198.09,133.07 L198.50,133.03 L198.91,132.98 L199.31,132.92 L199.72,132.86 L200.13,132.79 L200.54,132.71 L200.95,132.63 L201.36,132.54 L201.77,132.44 L202.17,132.34 L202.58,132.23 L202.99,132.12 L203.40,131.99 L203.81,131.87 L204.22,131.73 L204.63,131.59 L205.03,131.45 L205.44,131.29 L205.85,131.14 L206.26,130.97 L206.67,130.80 L207.08,130.63 L207.49,130.45 L207.89,130.26 L208.30,130.07 L208.71,129.87 L209.12,129.67 L209.53,129.46 L209.94,129.25 L210.35,129.03 L210.75,128.81 L211.16,128.58 L211.57,128.35 L211.98,128.11 L212.39,127.86 L212.80,127.62 L213.21,127.36 L213.61,127.11 L214.02,126.85 L214.43,126.58 L214.84,126.31 L215.25,126.04 L215.66,125.76 L216.07,125.48 L216.47,125.19 L216.88,124.90 L217.29,124.60 L217.70,124.31 L218.11,124.00 L218.52,123.70 L218.93,123.39 L219.33,123.08 L219.74,122.76 L220.15,122.44 L220.56,122.12 L220.97,121.80 L221.38,121.47 L221.79,121.14 L222.19,120.80 L222.60,120.46 L223.01,120.12 L223.42,119.78 L223.83,119.44 L224.24,119.09 L224.65,118.74 L225.05,118.39 L225.46,118.03 L225.87,117.68 L226.28,117.32 L226.69,116.96 L227.10,116.60 L227.51,116.23 L227.91,115.87 L228.32,115.50 L228.73,115.13 L229.14,114.76 L229.55,114.39 L229.96,114.01 L230.37,113.64 L230.77,113.26 L231.18,112.89 L231.59,112.51 L232.00,112.13 L232.41,111.75 L232.82,111.37 L233.23,110.99 L233.63,110.61 L234.04,110.23 L234.45,109.84 L234.86,109.46 L235.27,109.08 L235.68,108.69 L236.09,108.31 L236.49,107.93 L236.90,107.54 L237.31,107.16 L237.72,106.78 L238.13,106.39 L238.54,106.01 L238.95,105.63 L239.35,105.25 L239.76,104.87 L240.17,104.49 L240.58,104.11 L240.99,103.73 L241.40,103.35 L241.81,102.97 L242.21,102.59 L242.62,102.22 L243.03,101.85 L243.44,101.47 L243.85,101.10 L244.26,100.73 L244.67,100.36 L245.07,99.99 L245.48,99.63 L245.89,99.26 L246.30,98.90 L246.71,98.54 L247.12,98.18 L247.53,97.82 L247.93,97.47 L248.34,97.11 L248.75,96.76 L249.16,96.41 L249.57,96.06 L249.98,95.72 L250.39,95.38 L250.79,95.03 L251.20,94.70 L251.61,94.36 L252.02,94.03 L252.43,93.70 L252.84,93.37 L253.24,93.04 L253.65,92.72 L254.06,92.40 L254.47,92.08 L254.88,91.77 L255.29,91.45 L255.70,91.14 L256.10,90.84 L256.51,90.53 L256.92,90.23 L257.33,89.94 L257.74,89.64 L258.15,89.35 L258.56,89.07 L258.96,88.78 L259.37,88.50 L259.78,88.22 L260.19,87.95 L260.60,87.68 L261.01,87.41 L261.42,87.15 L261.82,86.88 L262.23,86.63 L262.64,86.37 L263.05,86.12 L263.46,85.88 L263.87,85.64 L264.28,85.40 L264.68,85.16 L265.09,84.93 L265.50,84.70 L265.91,84.48 L266.32,84.26 L266.73,84.04 L267.14,83.83 L267.54,83.62 L267.95,83.41 L268.36,83.21 L268.77,83.02 L269.18,82.82 L269.59,82.64 L270.00,82.45 L270.40,82.27 L270.81,82.09 L271.22,81.92 L271.63,81.75 L272.04,81.58 L272.45,81.42 L272.86,81.27 L273.26,81.11 L273.67,80.97 L274.08,80.82 L274.49,80.68 L274.90,80.54 L275.31,80.41 L275.72,80.28 L276.12,80.16 L276.53,80.04 L276.94,79.92 L277.35,79.81 L277.76,79.70 L278.17,79.60 L278.58,79.50 L278.98,79.41 L279.39,79.31 L279.80,79.23 L280.21,79.14 L280.62,79.07 L281.03,78.99 L281.44,78.92 L281.84,78.85 L282.25,78.79 L282.66,78.73 L283.07,78.68 L283.48,78.63 L283.89,78.58 L284.30,78.54 L284.70,78.50 L285.11,78.46 L285.52,78.43 L285.93,78.41 L286.34,78.38 L286.75,78.36 L287.16,78.35 L287.56,78.34 L287.97,78.33 L288.38,78.33 L288.79,78.33 L289.20,78.33 L289.61,78.34 L290.02,78.35 L290.42,78.37 L290.83,78.38 L291.24,78.41 L291.65,78.43 L292.06,78.46 L292.47,78.50 L292.88,78.53 L293.28,78.58 L293.69,78.62 L294.10,78.67 L294.51,78.72 L294.92,78.77 L295.33,78.83 L295.74,78.89 L296.14,78.96 L296.55,79.02 L296.96,79.10 L297.37,79.17 L297.78,79.25 L298.19,79.33 L298.60,79.41 L299.00,79.50 L299.41,79.59 L299.82,79.68 L300.23,79.78 L300.64,79.88 L301.05,79.98 L301.46,80.09 L301.86,80.19 L302.27,80.30 L302.68,80.42 L303.09,80.53 L303.50,80.65 L303.91,80.77 L304.32,80.90 L304.72,81.03 L305.13,81.15 L305.54,81.29 L305.95,81.42 L306.36,81.56 L306.77,81.70 L307.17,81.84 L307.58,81.98 L307.99,82.13 L308.40,82.28 L308.81,82.43 L309.22,82.58 L309.63,82.73 L310.03,82.89 L310.44,83.05 L310.85,83.21 L311.26,83.37 L311.67,83.54 L312.08,83.71 L312.49,83.87 L312.89,84.04 L313.30,84.22 L313.71,84.39 L314.12,84.56 L314.53,84.74 L314.94,84.92 L315.35,85.10 L315.75,85.28 L316.16,85.46 L316.57,85.65 L316.98,85.83 L317.39,86.02 L317.80,86.21 L318.21,86.39 L318.61,86.58 L319.02,86.78 L319.43,86.97 L319.84,87.16 L320.25,87.36 L320.66,87.55 L321.07,87.75 L321.47,87.94 L321.88,88.14 L322.29,88.34 L322.70,88.54 L323.11,88.74 L323.52,88.94 L323.93,89.14 L324.33,89.34 L324.74,89.54 L325.15,89.75 L325.56,89.95 L325.97,90.15 L326.38,90.36 L326.79,90.56 L327.19,90.76 L327.60,90.97 L328.01,91.17 L328.42,91.38 L328.83,91.58 L329.24,91.79 L329.65,91.99 L330.05,92.19 L330.46,92.40 L330.87,92.60 L331.28,92.81 L331.69,93.01 L332.10,93.21 L332.51,93.42 L332.91,93.62 L333.32,93.82 L333.73,94.03 L334.14,94.23 L334.55,94.43 L334.96,94.63 L335.37,94.83 L335.77,95.03 L336.18,95.23 L336.59,95.43 L337.00,95.62 L337.41,95.82 L337.82,96.02 L338.23,96.21 L338.63,96.41 L339.04,96.60 L339.23,96.69" style="stroke-width: 2px; stroke: rgb(60, 180, 75); stroke-opacity: 0.8;"/><path d=" M121.51,97.41 L121.83,96.82 L122.15,96.24 L122.47,95.66 L122.80,95.08 L123.12,94.51 L123.44,93.93 L123.76,93.36 L124.08,92.80 L124.40,92.23 L124.72,91.67 L125.04,91.11 L125.37,90.56 L125.69,90.01 L126.01,89.46 L126.33,88.92 L126.65,88.38 L126.97,87.84 L127.29,87.30 L127.62,86.77 L127.94,86.25 L128.26,85.72 L128.58,85.20 L128.90,84.69 L129.22,84.18 L129.54,83.67 L129.87,83.16 L130.19,82.66 L130.51,82.17 L130.83,81.68 L131.15,81.19 L131.47,80.70 L131.79,80.22 L132.12,79.75 L132.44,79.28 L132.76,78.81 L133.08,78.35 L133.40,77.89 L133.72,77.43 L134.04,76.98 L134.36,76.54 L134.69,76.10 L135.01,75.66 L135.33,75.23 L135.65,74.80 L135.97,74.38 L136.29,73.96 L136.61,73.55 L136.94,73.14 L137.26,72.74 L137.58,72.34 L137.90,71.95 L138.22,71.56 L138.54,71.17 L138.86,70.79 L139.19,70.42 L139.51,70.05 L139.83,69.68 L140.15,69.32 L140.47,68.97 L140.79,68.62 L141.11,68.28 L141.44,67.94 L141.76,67.60 L142.08,67.27 L142.40,66.95 L142.72,66.63 L143.04,66.32 L143.36,66.01 L143.68,65.70 L144.01,65.41 L144.33,65.11 L144.65,64.83 L144.97,64.54 L145.29,64.27 L145.61,63.99 L145.93,63.73 L146.26,63.47 L146.58,63.21 L146.90,62.96 L147.22,62.72 L147.54,62.48 L147.86,62.24 L148.18,62.01 L148.51,61.79 L148.83,61.57 L149.15,61.36 L149.47,61.15 L149.79,60.95 L150.11,60.75 L150.43,60.56 L150.76,60.37 L151.08,60.19 L151.40,60.01 L151.72,59.84 L152.04,59.68 L152.36,59.52 L152.68,59.36 L153.00,59.21 L153.33,59.07 L153.65,58.93 L153.97,58.80 L154.29,58.67 L154.61,58.55 L154.93,58.43 L155.25,58.32 L155.58,58.21 L155.90,58.11 L156.22,58.02 L156.54,57.93 L156.86,57.84 L157.18,57.76 L157.50,57.69 L157.83,57.62 L158.15,57.55 L158.47,57.49 L158.79,57.44 L159.11,57.39 L159.43,57.35 L159.75,57.31 L160.08,57.27 L160.40,57.25 L160.72,57.22 L161.04,57.20 L161.36,57.19 L161.68,57.18 L162.00,57.18 L162.32,57.18 L162.65,57.19 L162.97,57.20 L163.29,57.21 L163.61,57.23 L163.93,57.26 L164.25,57.29 L164.57,57.33 L164.90,57.37 L165.22,57.41 L165.54,57.46 L165.86,57.52 L166.18,57.58 L166.50,57.64 L166.82,57.71 L167.15,57.78 L167.47,57.86 L167.79,57.94 L168.11,58.03 L168.43,58.12 L168.75,58.21 L169.07,58.31 L169.40,58.42 L169.72,58.53 L170.04,58.64 L170.36,58.76 L170.68,58.88 L171.00,59.00 L171.32,59.13 L171.64,59.27 L171.97,59.41 L172.29,59.55 L172.61,59.69 L172.93,59.84 L173.25,60.00 L173.57,60.16 L173.89,60.32 L174.22,60.48 L174.54,60.65 L174.86,60.83 L175.18,61.00 L175.50,61.18 L175.82,61.37 L176.14,61.56 L176.47,61.75 L176.79,61.94 L177.11,62.14 L177.43,62.34 L177.75,62.55 L178.07,62.76 L178.39,62.97 L178.72,63.19 L179.04,63.41 L179.36,63.63 L179.68,63.85 L180.00,64.08 L180.32,64.31 L180.64,64.55 L180.96,64.79 L181.29,65.03 L181.61,65.27 L181.93,65.52 L182.25,65.77 L182.57,66.02 L182.89,66.27 L183.21,66.53 L183.54,66.79 L183.86,67.06 L184.18,67.32 L184.50,67.59 L184.82,67.86 L185.14,68.13 L185.46,68.41 L185.79,68.69 L186.11,68.97 L186.43,69.25 L186.75,69.53 L187.07,69.82 L187.39,70.11 L187.71,70.40 L188.04,70.69 L188.36,70.99 L188.68,71.29 L189.00,71.59 L189.32,71.89 L189.64,72.19 L189.96,72.49 L190.28,72.80 L190.61,73.11 L190.93,73.42 L191.25,73.73 L191.57,74.04 L191.89,74.36 L192.21,74.67 L192.53,74.99 L192.86,75.31 L193.18,75.63 L193.50,75.95 L193.82,76.27 L194.14,76.59 L194.46,76.92 L194.78,77.25 L195.11,77.57 L195.43,77.90 L195.75,78.23 L196.07,78.56 L196.39,78.89 L196.71,79.22 L197.03,79.55 L197.36,79.89 L197.68,80.22 L198.00,80.56 L198.32,80.89 L198.64,81.23 L198.96,81.56 L199.28,81.90 L199.60,82.24 L199.93,82.57 L200.25,82.91 L200.57,83.25 L200.89,83.59 L201.21,83.93 L201.53,84.27 L201.85,84.61 L202.18,84.95 L202.50,85.28 L202.82,85.62 L203.14,85.96 L203.46,86.30 L203.78,86.64 L204.10,86.98 L204.43,87.32 L204.75,87.66 L205.07,88.00 L205.39,88.33 L205.71,88.67 L206.03,89.01 L206.35,89.35 L206.68,89.68 L207.00,90.02 L207.32,90.35 L207.64,90.69 L207.96,91.02 L208.28,91.35 L208.60,91.69 L208.92,92.02 L209.25,92.35 L209.57,92.68 L209.89,93.01 L210.21,93.34 L210.53,93.67 L210.85,93.99 L211.17,94.32 L211.50,94.64 L211.82,94.97 L212.14,95.29 L212.46,95.61 L212.78,95.93 L213.10,96.25 L213.42,96.57 L213.75,96.88 L214.07,97.20 L214.39,97.51 L214.71,97.82 L215.03,98.14 L215.35,98.44 L215.67,98.75 L216.00,99.06 L216.32,99.36 L216.64,99.67 L216.96,99.97 L217.28,100.27 L217.60,100.57 L217.92,100.87 L218.24,101.16 L218.57,101.45 L218.89,101.75 L219.21,102.04 L219.53,102.32 L219.85,102.61 L220.17,102.89 L220.49,103.18 L220.82,103.46 L221.14,103.74 L221.46,104.01 L221.78,104.29 L222.10,104.56 L222.42,104.83 L222.74,105.10 L223.07,105.36 L223.39,105.63 L223.71,105.89 L224.03,106.15 L224.35,106.41 L224.67,106.66 L224.99,106.92 L225.32,107.17 L225.64,107.41 L225.96,107.66 L226.28,107.90 L226.60,108.15 L226.92,108.39 L227.24,108.62 L227.56,108.86 L227.89,109.09 L228.21,109.32 L228.53,109.55 L228.85,109.77 L229.17,109.99 L229.49,110.21 L229.81,110.43 L230.14,110.64 L230.46,110.85 L230.78,111.06 L231.10,111.27 L231.42,111.47 L231.74,111.68 L232.06,111.88 L232.39,112.07 L232.71,112.27 L233.03,112.46 L233.35,112.64 L233.67,112.83 L233.99,113.01 L234.31,113.19 L234.64,113.37 L234.96,113.55 L235.28,113.72 L235.60,113.89 L235.92,114.05 L236.24,114.22 L236.56,114.38 L236.88,114.54 L237.21,114.69 L237.53,114.84 L237.85,114.99 L238.17,115.14 L238.49,115.28 L238.81,115.43 L239.13,115.56 L239.46,115.70 L239.78,115.83 L240.10,115.96 L240.42,116.09 L240.74,116.21 L241.06,116.34 L241.38,116.45 L241.71,116.57 L242.03,116.68 L242.35,116.79 L242.67,116.90 L242.99,117.00 L243.31,117.11 L243.63,117.20 L243.96,117.30 L244.28,117.39 L244.60,117.48 L244.92,117.57 L245.24,117.65 L245.56,117.73 L245.88,117.81 L246.20,117.89 L246.53,117.96 L246.85,118.03 L247.17,118.10 L247.49,118.16 L247.81,118.22 L248.13,118.28 L248.45,118.34 L248.78,118.39 L249.10,118.44 L249.42,118.49 L249.74,118.53 L250.06,118.58 L250.38,118.62 L250.70,118.65 L251.03,118.69 L251.35,118.72 L251.67,118.74 L251.99,118.77 L252.31,118.79 L252.63,118.81 L252.95,118.83 L253.28,118.84 L253.60,118.86 L253.92,118.86 L254.24,118.87 L254.56,118.87 L254.88,118.88 L255.20,118.87 L255.52,118.87 L255.85,118.86 L256.17,118.85 L256.49,118.84 L256.81,118.83 L257.13,118.81 L257.45,118.79 L257.77,118.77 L258.10,118.74 L258.42,118.71 L258.74,118.68 L259.06,118.65 L259.38,118.62 L259.70,118.58 L260.02,118.54 L260.35,118.50 L260.67,118.45 L260.99,118.41 L261.31,118.36 L261.63,118.31 L261.95,118.25 L262.27,118.20 L262.60,118.14 L262.92,118.08 L263.24,118.01 L263.56,117.95 L263.88,117.88 L264.20,117.81 L264.52,117.74 L264.84,117.66 L265.17,117.59 L265.49,117.51 L265.81,117.43 L266.13,117.34 L266.45,117.26 L266.77,117.17 L267.09,117.08 L267.42,116.99 L267.74,116.90 L268.06,116.80 L268.38,116.71 L268.70,116.61 L269.02,116.51 L269.34,116.40 L269.67,116.30 L269.99,116.19 L270.31,116.08 L270.63,115.97 L270.95,115.86 L271.27,115.75 L271.59,115.63 L271.92,115.51 L272.24,115.39 L272.56,115.27 L272.88,115.15 L273.20,115.03 L273.52,114.90 L273.84,114.77 L274.16,114.65 L274.49,114.52 L274.81,114.38 L275.13,114.25 L275.45,114.11 L275.77,113.98 L276.09,113.84 L276.41,113.70 L276.74,113.56 L277.06,113.42 L277.38,113.27 L277.70,113.13 L278.02,112.98 L278.34,112.84 L278.66,112.69 L278.99,112.54 L279.31,112.39 L279.63,112.23 L279.95,112.08 L280.27,111.93 L280.59,111.77 L280.91,111.61 L281.24,111.46 L281.56,111.30 L281.88,111.14 L282.20,110.98 L282.52,110.81 L282.84,110.65 L283.16,110.49 L283.48,110.32 L283.81,110.16 L284.13,109.99 L284.45,109.82 L284.77,109.66 L285.09,109.49 L285.41,109.32 L285.73,109.15 L286.06,108.98 L286.38,108.81 L286.70,108.63 L287.02,108.46 L287.34,108.29 L287.66,108.11 L287.98,107.94 L288.31,107.76 L288.63,107.59 L288.95,107.41 L289.27,107.23 L289.59,107.06 L289.91,106.88 L290.23,106.70 L290.56,106.52 L290.88,106.35 L291.20,106.17 L291.52,105.99 L291.84,105.81 L292.16,105.63 L292.48,105.45 L292.80,105.27 L293.13,105.09 L293.45,104.91 L293.77,104.73 L294.09,104.55 L294.41,104.37 L294.73,104.18 L295.05,104.00 L295.38,103.82 L295.70,103.64 L296.02,103.46 L296.34,103.28 L296.66,103.10 L296.98,102.92 L297.30,102.74 L297.63,102.56 L297.95,102.38 L298.27,102.20 L298.59,102.02 L298.91,101.84 L299.23,101.66 L299.55,101.48 L299.88,101.30 L300.20,101.12 L300.52,100.94 L300.84,100.76 L301.16,100.59 L301.48,100.41 L301.80,100.23 L302.12,100.05 L302.45,99.88 L302.77,99.70 L303.09,99.53 L303.41,99.35 L303.73,99.18 L304.05,99.01 L304.37,98.83 L304.70,98.66 L305.02,98.49 L305.34,98.32 L305.66,98.15 L305.98,97.98 L306.30,97.81 L306.62,97.64 L306.95,97.47 L307.27,97.30 L307.59,97.14 L307.91,96.97 L308.23,96.81 L308.55,96.64 L308.87,96.48 L309.20,96.32 L309.52,96.16 L309.84,95.99 L310.16,95.83 L310.48,95.68 L310.80,95.52 L311.12,95.36 L311.44,95.20 L311.77,95.05 L312.09,94.89 L312.41,94.74 L312.73,94.59 L313.05,94.44 L313.37,94.29 L313.69,94.14 L314.02,93.99 L314.34,93.84 L314.66,93.70 L314.98,93.55 L315.30,93.41 L315.62,93.26 L315.94,93.12 L316.27,92.98 L316.59,92.84 L316.91,92.70 L317.23,92.57 L317.55,92.43 L317.87,92.30 L318.19,92.16 L318.52,92.03 L318.84,91.90 L319.16,91.77 L319.48,91.64 L319.80,91.52 L320.12,91.39 L320.44,91.27 L320.76,91.14 L321.09,91.02 L321.41,90.90 L321.73,90.78 L322.05,90.66 L322.37,90.54 L322.69,90.43 L323.01,90.32 L323.34,90.20 L323.66,90.09 L323.98,89.98 L324.30,89.87 L324.62,89.77 L324.94,89.66 L325.26,89.56 L325.59,89.45 L325.91,89.35 L326.23,89.25 L326.55,89.15 L326.87,89.06 L327.19,88.96 L327.51,88.87 L327.84,88.77 L328.16,88.68 L328.48,88.59 L328.80,88.50 L329.12,88.42 L329.44,88.33 L329.76,88.25 L330.08,88.17 L330.41,88.09 L330.73,88.01 L331.05,87.93 L331.37,87.85 L331.69,87.78 L332.01,87.70 L332.33,87.63 L332.66,87.56 L332.98,87.49 L333.30,87.42 L333.62,87.36 L333.94,87.29 L334.26,87.23 L334.58,87.17 L334.91,87.11 L335.23,87.05 L335.55,87.00 L335.87,86.94 L336.19,86.89 L336.51,86.84 L336.83,86.78 L337.16,86.74 L337.48,86.69 L337.80,86.64 L338.12,86.60 L338.44,86.55 L338.76,86.51 L339.08,86.47 L339.23,86.46" style="stroke-width: 2px; stroke: rgb(218, 44, 0); stroke-opacity: 1;"/></g></g><g class="test-xtl" style="font-family: &quot;Open Sans&quot;, verdana, arial, sans-serif;"/><rect class="real" x="1" y="1" width="337.23333740234375" height="192.69650642944768" style="fill: transparent; stroke: none;"/></g></g></g><g class="arrow-line"><path class="connection real" stroke-dasharray="" d="  M140,190 L140,110" style="stroke: rgb(74, 144, 226); stroke-opacity: 1; stroke-width: 1px; fill: none; fill-opacity: 1;"/><g stroke="rgb(74,144,226)" stroke-opacity="1" fill="rgb(74,144,226)" fill-opacity="1" transform="matrix(-1.8369701987210297e-16,-1,1,-1.8369701987210297e-16,140,110)" style="stroke: rgb(74, 144, 226); fill: rgb(74, 144, 226); stroke-width: 1px;"><circle cx="0" cy="0" r="3.35"/></g></g><g class="arrow-line"><path class="connection real" stroke-dasharray="" d="  M210,190 L210,130" style="stroke: rgb(218, 44, 0); stroke-opacity: 1; stroke-width: 1px; fill: none; fill-opacity: 1;"/><g stroke="rgb(218,44,0)" stroke-opacity="1" fill="rgb(218,44,0)" fill-opacity="1" transform="matrix(-1.8369701987210297e-16,-1,1,-1.8369701987210297e-16,210,129.99999999999997)" style="stroke: rgb(218, 44, 0); fill: rgb(218, 44, 0); stroke-width: 1px;"><circle cx="0" cy="0" r="3.35"/></g></g><g/></g><g/><g/><g/></svg>
        <svg xmlns="http://www.w3.org/2000/svg" xmlns:xlink="http://www.w3.org/1999/xlink" width="660" height="300" style="width:660px;height:300px;font-family:Asana-Math, Asana;background:transparent;"><g><g><g><text x="127.1500244140625" y="41.899993896484375" style="white-space:pre;stroke:none;fill:rgb(0,0,0);fill-opacity:1;font-size:15px;font-family:Arial, Helvetica, sans-serif;font-weight:400;font-style:normal;dominant-baseline:text-before-edge;text-decoration:rgb(0, 0, 0);">Input</text></g></g></g><g><g><g><text x="411.9000244140625" y="43.899993896484375" style="white-space:pre;stroke:none;fill:rgb(0,0,0);fill-opacity:1;font-size:15px;font-family:Arial, Helvetica, sans-serif;font-weight:400;font-style:normal;dominant-baseline:text-before-edge;text-decoration:rgb(0, 0, 0);">Output</text></g></g></g><g><g><g><g transform="matrix(1,0,0,1,138.7833251953125,209.5166778564453)"><path transform="matrix(0.017,0,0,-0.017,0,0)" d="M263 689C108 689 29 566 29 324C29 207 50 106 85 57C120 8 176 -20 238 -20C389 -20 465 110 465 366C465 585 400 689 263 689ZM245 654C342 654 381 556 381 316C381 103 343 15 251 15C154 15 113 116 113 360C113 571 150 654 245 654Z" stroke="rgb(0,0,0)" stroke-opacity="1" stroke-width="8" fill="rgb(0,0,0)" fill-opacity="1"></path></g></g></g></g><g><g><g><g transform="matrix(1,0,0,1,623.9000244140625,196.6999969482422)"><path transform="matrix(0.017,0,0,-0.017,0,0)" d="M125 390L69 107C68 99 56 61 56 31C56 6 67 -9 86 -9C121 -9 156 11 234 74L265 99L255 117L210 86C181 66 161 56 150 56C141 56 136 64 136 76C136 102 150 183 179 328L192 390L299 390L310 440C272 436 238 434 200 434C216 528 227 577 245 631L234 646C214 634 187 622 156 610L131 440C87 419 61 408 43 403L41 390Z" stroke="rgb(0,0,0)" stroke-opacity="1" stroke-width="8" fill="rgb(0,0,0)" fill-opacity="1"></path></g></g></g></g><g><g><g><g transform="matrix(1,0,0,1,171.7833251953125,209.5166778564453)"><path transform="matrix(0.017,0,0,-0.017,0,0)" d="M418 -3L418 27L366 30C311 33 301 44 301 96L301 700L60 598L67 548L217 614L217 96C217 44 206 33 152 30L96 27L96 -3C250 0 250 0 261 0C292 0 402 -3 418 -3Z" stroke="rgb(0,0,0)" stroke-opacity="1" stroke-width="8" fill="rgb(0,0,0)" fill-opacity="1"></path></g></g></g></g><g><g><g><g transform="matrix(1,0,0,1,204.7833251953125,209.5166778564453)"><path transform="matrix(0.017,0,0,-0.017,0,0)" d="M16 23L16 -3C203 -3 203 0 239 0C275 0 275 -3 468 -3L468 82C353 77 307 81 122 77L304 270C401 373 431 428 431 503C431 618 353 689 226 689C154 689 105 669 56 619L39 483L68 483L81 529C97 587 133 612 200 612C286 612 341 558 341 473C341 398 299 324 186 204Z" stroke="rgb(0,0,0)" stroke-opacity="1" stroke-width="8" fill="rgb(0,0,0)" fill-opacity="1"></path></g></g></g></g><g><g><g><g transform="matrix(1,0,0,1,237.7833251953125,209.5166778564453)"><path transform="matrix(0.017,0,0,-0.017,0,0)" d="M462 224C462 345 355 366 308 374C388 436 418 482 418 541C418 630 344 689 233 689C165 689 120 670 72 622L43 498L74 498L92 554C103 588 166 622 218 622C283 622 336 569 336 506C336 431 277 368 206 368C198 368 187 369 174 370L159 371L147 318L154 312C192 329 211 334 238 334C321 334 369 281 369 190C369 88 308 21 215 21C169 21 128 36 98 64C74 86 61 109 42 163L15 153C36 92 44 56 50 6C103 -12 147 -20 184 -20C307 -20 462 87 462 224Z" stroke="rgb(0,0,0)" stroke-opacity="1" stroke-width="8" fill="rgb(0,0,0)" fill-opacity="1"></path></g></g></g></g></svg>
</svg>
