<svg xmlns="http://www.w3.org/2000/svg" xmlns:xlink="http://www.w3.org/1999/xlink" x="0" y="0" width="661.2666625976562" height="301.26666259765625" style="
        width:661.2666625976562px;
        height:301.26666259765625px;
        background: transparent;
        fill: none;
">
        
        
        <svg xmlns="http://www.w3.org/2000/svg" class="role-diagram-draw-area"><g class="shapes-region" style="stroke: black; fill: none;"><g class="arrow-line"><path class="connection real" stroke-dasharray="" d="  M40.48,189.63 L245.52,190" style="stroke: rgb(0, 0, 0); stroke-width: 1px; fill: none; fill-opacity: 1;"/></g><g class="arrow-line"><path class="connection real" stroke-dasharray="" d="  M175,190 L175,80" style="stroke: rgb(74, 144, 226); stroke-opacity: 1; stroke-width: 1px; fill: none; fill-opacity: 1;"/><g stroke="rgb(74,144,226)" stroke-opacity="1" fill="rgb(74,144,226)" fill-opacity="1" transform="matrix(-1.8369701987210297e-16,-1,1,-1.8369701987210297e-16,175,80)" style="stroke: rgb(74, 144, 226); fill: rgb(74, 144, 226); stroke-width: 1px;"><circle cx="0" cy="0" r="3.35"/></g></g><g class="composite-shape" data-amt="diagram/shapes/plot" transform="matrix(1,0,0,1,273.0333251953125,95.30349357055232)"><g><g/><g><g class="test-xti" style="font-family: Asana-Math, Asana;"><line x1="0" y1="97.41111522690542" x2="335.23333740234375" y2="97.41111522690542" fill="none" stroke="rgb(50,50,50)" stroke-opacity="1" stroke-width="1"/><line x1="62.447210868950165" y1="93.41111522690542" x2="62.447210868950165" y2="101.41111522690542" fill="none" stroke="rgb(50,50,50)" stroke-opacity="1" stroke-width="1"/><line x1="121.50971086895018" y1="93.41111522690542" x2="121.50971086895018" y2="101.41111522690542" fill="none" stroke="rgb(50,50,50)" stroke-opacity="1" stroke-width="1"/><line x1="180.57221086895018" y1="93.41111522690542" x2="180.57221086895018" y2="101.41111522690542" fill="none" stroke="rgb(50,50,50)" stroke-opacity="1" stroke-width="1"/><line x1="239.63471086895018" y1="93.41111522690542" x2="239.63471086895018" y2="101.41111522690542" fill="none" stroke="rgb(50,50,50)" stroke-opacity="1" stroke-width="1"/><line x1="298.69721086895015" y1="93.41111522690542" x2="298.69721086895015" y2="101.41111522690542" fill="none" stroke="rgb(50,50,50)" stroke-opacity="1" stroke-width="1"/><path d="M330.23333740234375,93.81111522690543 L338.23333740234375,97.41111522690542 L330.23333740234375,101.01111522690542 Z" stroke="none" stroke-width="1" fill="rgb(50,50,50)" fill-opacity="1"/></g><g class="test-plot-expression"><defs><clipPath id="cpoutdyrd9q"><rect x="1" y="1" width="337.23333740234375" height="192.69650642944768"/></clipPath></defs><g clip-path="url(#cpoutdyrd9q)"><path d=" M62.45,97.41 L62.86,96.17 L63.26,94.93 L63.67,93.71 L64.08,92.49 L64.49,91.28 L64.90,90.07 L65.31,88.88 L65.72,87.69 L66.12,86.51 L66.53,85.34 L66.94,84.18 L67.35,83.02 L67.76,81.88 L68.17,80.75 L68.58,79.62 L68.98,78.51 L69.39,77.40 L69.80,76.31 L70.21,75.22 L70.62,74.15 L71.03,73.08 L71.44,72.03 L71.84,70.99 L72.25,69.96 L72.66,68.94 L73.07,67.93 L73.48,66.93 L73.89,65.95 L74.30,64.97 L74.70,64.01 L75.11,63.06 L75.52,62.12 L75.93,61.20 L76.34,60.28 L76.75,59.38 L77.16,58.49 L77.56,57.62 L77.97,56.75 L78.38,55.90 L78.79,55.07 L79.20,54.24 L79.61,53.43 L80.02,52.63 L80.42,51.85 L80.83,51.07 L81.24,50.32 L81.65,49.57 L82.06,48.84 L82.47,48.12 L82.88,47.42 L83.28,46.73 L83.69,46.05 L84.10,45.39 L84.51,44.74 L84.92,44.11 L85.33,43.49 L85.74,42.88 L86.14,42.29 L86.55,41.72 L86.96,41.15 L87.37,40.60 L87.78,40.07 L88.19,39.55 L88.60,39.04 L89.00,38.55 L89.41,38.07 L89.82,37.61 L90.23,37.16 L90.64,36.73 L91.05,36.31 L91.46,35.90 L91.86,35.51 L92.27,35.14 L92.68,34.78 L93.09,34.43 L93.50,34.10 L93.91,33.78 L94.31,33.47 L94.72,33.18 L95.13,32.91 L95.54,32.65 L95.95,32.40 L96.36,32.17 L96.77,31.95 L97.17,31.75 L97.58,31.56 L97.99,31.38 L98.40,31.22 L98.81,31.07 L99.22,30.94 L99.63,30.82 L100.03,30.71 L100.44,30.62 L100.85,30.54 L101.26,30.48 L101.67,30.43 L102.08,30.39 L102.49,30.37 L102.89,30.36 L103.30,30.36 L103.71,30.38 L104.12,30.41 L104.53,30.45 L104.94,30.50 L105.35,30.57 L105.75,30.65 L106.16,30.75 L106.57,30.86 L106.98,30.98 L107.39,31.11 L107.80,31.25 L108.21,31.41 L108.61,31.58 L109.02,31.76 L109.43,31.95 L109.84,32.16 L110.25,32.38 L110.66,32.60 L111.07,32.85 L111.47,33.10 L111.88,33.36 L112.29,33.64 L112.70,33.92 L113.11,34.22 L113.52,34.53 L113.93,34.84 L114.33,35.17 L114.74,35.51 L115.15,35.86 L115.56,36.22 L115.97,36.59 L116.38,36.97 L116.79,37.37 L117.19,37.77 L117.60,38.18 L118.01,38.59 L118.42,39.02 L118.83,39.46 L119.24,39.91 L119.65,40.36 L120.05,40.83 L120.46,41.30 L120.87,41.78 L121.28,42.27 L121.69,42.77 L122.10,43.28 L122.51,43.79 L122.91,44.32 L123.32,44.85 L123.73,45.38 L124.14,45.93 L124.55,46.48 L124.96,47.04 L125.37,47.61 L125.77,48.18 L126.18,48.76 L126.59,49.35 L127.00,49.94 L127.41,50.54 L127.82,51.14 L128.23,51.75 L128.63,52.37 L129.04,52.99 L129.45,53.62 L129.86,54.25 L130.27,54.89 L130.68,55.53 L131.09,56.17 L131.49,56.83 L131.90,57.48 L132.31,58.14 L132.72,58.81 L133.13,59.48 L133.54,60.15 L133.95,60.82 L134.35,61.50 L134.76,62.19 L135.17,62.87 L135.58,63.56 L135.99,64.25 L136.40,64.95 L136.81,65.65 L137.21,66.35 L137.62,67.05 L138.03,67.75 L138.44,68.46 L138.85,69.17 L139.26,69.88 L139.67,70.59 L140.07,71.30 L140.48,72.02 L140.89,72.73 L141.30,73.45 L141.71,74.16 L142.12,74.88 L142.53,75.60 L142.93,76.32 L143.34,77.04 L143.75,77.76 L144.16,78.47 L144.57,79.19 L144.98,79.91 L145.38,80.63 L145.79,81.35 L146.20,82.06 L146.61,82.78 L147.02,83.49 L147.43,84.21 L147.84,84.92 L148.24,85.63 L148.65,86.34 L149.06,87.04 L149.47,87.75 L149.88,88.45 L150.29,89.15 L150.70,89.85 L151.10,90.55 L151.51,91.24 L151.92,91.94 L152.33,92.62 L152.74,93.31 L153.15,93.99 L153.56,94.67 L153.96,95.35 L154.37,96.02 L154.78,96.69 L155.19,97.36 L155.60,98.02 L156.01,98.68 L156.42,99.34 L156.82,99.99 L157.23,100.63 L157.64,101.28 L158.05,101.91 L158.46,102.55 L158.87,103.18 L159.28,103.80 L159.68,104.42 L160.09,105.04 L160.50,105.65 L160.91,106.25 L161.32,106.85 L161.73,107.45 L162.14,108.04 L162.54,108.62 L162.95,109.20 L163.36,109.78 L163.77,110.34 L164.18,110.91 L164.59,111.46 L165.00,112.01 L165.40,112.56 L165.81,113.10 L166.22,113.63 L166.63,114.16 L167.04,114.68 L167.45,115.19 L167.86,115.70 L168.26,116.20 L168.67,116.69 L169.08,117.18 L169.49,117.66 L169.90,118.14 L170.31,118.60 L170.72,119.07 L171.12,119.52 L171.53,119.97 L171.94,120.41 L172.35,120.84 L172.76,121.27 L173.17,121.69 L173.58,122.10 L173.98,122.50 L174.39,122.90 L174.80,123.29 L175.21,123.68 L175.62,124.05 L176.03,124.42 L176.44,124.78 L176.84,125.14 L177.25,125.48 L177.66,125.82 L178.07,126.15 L178.48,126.48 L178.89,126.79 L179.30,127.10 L179.70,127.40 L180.11,127.69 L180.52,127.98 L180.93,128.26 L181.34,128.53 L181.75,128.79 L182.16,129.05 L182.56,129.29 L182.97,129.53 L183.38,129.77 L183.79,129.99 L184.20,130.21 L184.61,130.42 L185.02,130.62 L185.42,130.81 L185.83,131.00 L186.24,131.18 L186.65,131.35 L187.06,131.51 L187.47,131.66 L187.88,131.81 L188.28,131.95 L188.69,132.08 L189.10,132.21 L189.51,132.32 L189.92,132.43 L190.33,132.54 L190.74,132.63 L191.14,132.72 L191.55,132.80 L191.96,132.87 L192.37,132.93 L192.78,132.99 L193.19,133.04 L193.60,133.08 L194.00,133.12 L194.41,133.14 L194.82,133.16 L195.23,133.18 L195.64,133.18 L196.05,133.18 L196.46,133.17 L196.86,133.16 L197.27,133.14 L197.68,133.11 L198.09,133.07 L198.50,133.03 L198.91,132.98 L199.31,132.92 L199.72,132.86 L200.13,132.79 L200.54,132.71 L200.95,132.63 L201.36,132.54 L201.77,132.44 L202.17,132.34 L202.58,132.23 L202.99,132.12 L203.40,131.99 L203.81,131.87 L204.22,131.73 L204.63,131.59 L205.03,131.45 L205.44,131.29 L205.85,131.14 L206.26,130.97 L206.67,130.80 L207.08,130.63 L207.49,130.45 L207.89,130.26 L208.30,130.07 L208.71,129.87 L209.12,129.67 L209.53,129.46 L209.94,129.25 L210.35,129.03 L210.75,128.81 L211.16,128.58 L211.57,128.35 L211.98,128.11 L212.39,127.86 L212.80,127.62 L213.21,127.36 L213.61,127.11 L214.02,126.85 L214.43,126.58 L214.84,126.31 L215.25,126.04 L215.66,125.76 L216.07,125.48 L216.47,125.19 L216.88,124.90 L217.29,124.60 L217.70,124.31 L218.11,124.00 L218.52,123.70 L218.93,123.39 L219.33,123.08 L219.74,122.76 L220.15,122.44 L220.56,122.12 L220.97,121.80 L221.38,121.47 L221.79,121.14 L222.19,120.80 L222.60,120.46 L223.01,120.12 L223.42,119.78 L223.83,119.44 L224.24,119.09 L224.65,118.74 L225.05,118.39 L225.46,118.03 L225.87,117.68 L226.28,117.32 L226.69,116.96 L227.10,116.60 L227.51,116.23 L227.91,115.87 L228.32,115.50 L228.73,115.13 L229.14,114.76 L229.55,114.39 L229.96,114.01 L230.37,113.64 L230.77,113.26 L231.18,112.89 L231.59,112.51 L232.00,112.13 L232.41,111.75 L232.82,111.37 L233.23,110.99 L233.63,110.61 L234.04,110.23 L234.45,109.84 L234.86,109.46 L235.27,109.08 L235.68,108.69 L236.09,108.31 L236.49,107.93 L236.90,107.54 L237.31,107.16 L237.72,106.78 L238.13,106.39 L238.54,106.01 L238.95,105.63 L239.35,105.25 L239.76,104.87 L240.17,104.49 L240.58,104.11 L240.99,103.73 L241.40,103.35 L241.81,102.97 L242.21,102.59 L242.62,102.22 L243.03,101.85 L243.44,101.47 L243.85,101.10 L244.26,100.73 L244.67,100.36 L245.07,99.99 L245.48,99.63 L245.89,99.26 L246.30,98.90 L246.71,98.54 L247.12,98.18 L247.53,97.82 L247.93,97.47 L248.34,97.11 L248.75,96.76 L249.16,96.41 L249.57,96.06 L249.98,95.72 L250.39,95.38 L250.79,95.03 L251.20,94.70 L251.61,94.36 L252.02,94.03 L252.43,93.70 L252.84,93.37 L253.24,93.04 L253.65,92.72 L254.06,92.40 L254.47,92.08 L254.88,91.77 L255.29,91.45 L255.70,91.14 L256.10,90.84 L256.51,90.53 L256.92,90.23 L257.33,89.94 L257.74,89.64 L258.15,89.35 L258.56,89.07 L258.96,88.78 L259.37,88.50 L259.78,88.22 L260.19,87.95 L260.60,87.68 L261.01,87.41 L261.42,87.15 L261.82,86.88 L262.23,86.63 L262.64,86.37 L263.05,86.12 L263.46,85.88 L263.87,85.64 L264.28,85.40 L264.68,85.16 L265.09,84.93 L265.50,84.70 L265.91,84.48 L266.32,84.26 L266.73,84.04 L267.14,83.83 L267.54,83.62 L267.95,83.41 L268.36,83.21 L268.77,83.02 L269.18,82.82 L269.59,82.64 L270.00,82.45 L270.40,82.27 L270.81,82.09 L271.22,81.92 L271.63,81.75 L272.04,81.58 L272.45,81.42 L272.86,81.27 L273.26,81.11 L273.67,80.97 L274.08,80.82 L274.49,80.68 L274.90,80.54 L275.31,80.41 L275.72,80.28 L276.12,80.16 L276.53,80.04 L276.94,79.92 L277.35,79.81 L277.76,79.70 L278.17,79.60 L278.58,79.50 L278.98,79.41 L279.39,79.31 L279.80,79.23 L280.21,79.14 L280.62,79.07 L281.03,78.99 L281.44,78.92 L281.84,78.85 L282.25,78.79 L282.66,78.73 L283.07,78.68 L283.48,78.63 L283.89,78.58 L284.30,78.54 L284.70,78.50 L285.11,78.46 L285.52,78.43 L285.93,78.41 L286.34,78.38 L286.75,78.36 L287.16,78.35 L287.56,78.34 L287.97,78.33 L288.38,78.33 L288.79,78.33 L289.20,78.33 L289.61,78.34 L290.02,78.35 L290.42,78.37 L290.83,78.38 L291.24,78.41 L291.65,78.43 L292.06,78.46 L292.47,78.50 L292.88,78.53 L293.28,78.58 L293.69,78.62 L294.10,78.67 L294.51,78.72 L294.92,78.77 L295.33,78.83 L295.74,78.89 L296.14,78.96 L296.55,79.02 L296.96,79.10 L297.37,79.17 L297.78,79.25 L298.19,79.33 L298.60,79.41 L299.00,79.50 L299.41,79.59 L299.82,79.68 L300.23,79.78 L300.64,79.88 L301.05,79.98 L301.46,80.09 L301.86,80.19 L302.27,80.30 L302.68,80.42 L303.09,80.53 L303.50,80.65 L303.91,80.77 L304.32,80.90 L304.72,81.03 L305.13,81.15 L305.54,81.29 L305.95,81.42 L306.36,81.56 L306.77,81.70 L307.17,81.84 L307.58,81.98 L307.99,82.13 L308.40,82.28 L308.81,82.43 L309.22,82.58 L309.63,82.73 L310.03,82.89 L310.44,83.05 L310.85,83.21 L311.26,83.37 L311.67,83.54 L312.08,83.71 L312.49,83.87 L312.89,84.04 L313.30,84.22 L313.71,84.39 L314.12,84.56 L314.53,84.74 L314.94,84.92 L315.35,85.10 L315.75,85.28 L316.16,85.46 L316.57,85.65 L316.98,85.83 L317.39,86.02 L317.80,86.21 L318.21,86.39 L318.61,86.58 L319.02,86.78 L319.43,86.97 L319.84,87.16 L320.25,87.36 L320.66,87.55 L321.07,87.75 L321.47,87.94 L321.88,88.14 L322.29,88.34 L322.70,88.54 L323.11,88.74 L323.52,88.94 L323.93,89.14 L324.33,89.34 L324.74,89.54 L325.15,89.75 L325.56,89.95 L325.97,90.15 L326.38,90.36 L326.79,90.56 L327.19,90.76 L327.60,90.97 L328.01,91.17 L328.42,91.38 L328.83,91.58 L329.24,91.79 L329.65,91.99 L330.05,92.19 L330.46,92.40 L330.87,92.60 L331.28,92.81 L331.69,93.01 L332.10,93.21 L332.51,93.42 L332.91,93.62 L333.32,93.82 L333.73,94.03 L334.14,94.23 L334.55,94.43 L334.96,94.63 L335.37,94.83 L335.77,95.03 L336.18,95.23 L336.59,95.43 L337.00,95.62 L337.41,95.82 L337.82,96.02 L338.23,96.21 L338.63,96.41 L339.04,96.60 L339.23,96.69" style="stroke-width: 2px; stroke: rgb(74, 144, 226); stroke-opacity: 0.8;"/></g></g><g class="test-xtl" style="font-family: &quot;Open Sans&quot;, verdana, arial, sans-serif;"/><rect class="real" x="1" y="1" width="337.23333740234375" height="192.69650642944768" style="fill: transparent; stroke: none;"/></g></g></g><g/></g><g/><g/><g/></svg>
        <svg xmlns="http://www.w3.org/2000/svg" xmlns:xlink="http://www.w3.org/1999/xlink" width="660" height="300" style="width:660px;height:300px;font-family:Asana-Math, Asana;background:transparent;"><g><g><g><g transform="matrix(1,0,0,1,184.88336181640625,84.88330078125)"><path transform="matrix(0.017,0,0,-0.017,0,0)" d="M183 -16C340 -16 453 139 455 287C458 470 216 507 227 622C234 698 356 689 413 655L423 655C420 667 417 681 411 694C316 715 167 698 156 597C149 540 224 493 266 464L266 458C123 426 31 304 29 160C27 53 70 -16 183 -16ZM209 12C125 12 105 99 106 167C108 295 153 411 287 448C349 399 381 350 380 269C378 174 327 12 209 12Z" stroke="rgb(74,144,226)" stroke-opacity="1" stroke-width="8" fill="rgb(74,144,226)" fill-opacity="1"></path></g></g><g><g transform="matrix(1,0,0,1,193.3333740234375,84.816650390625)"><path transform="matrix(0.017,0,0,-0.017,0,0)" d="M146 266C146 526 243 632 301 700L282 726C225 675 60 542 60 266C60 159 85 58 133 -32C168 -99 200 -138 282 -215L301 -194C255 -137 146 -15 146 266Z" stroke="rgb(74,144,226)" stroke-opacity="1" stroke-width="8" fill="rgb(74,144,226)" fill-opacity="1"></path></g></g><g><g transform="matrix(1,0,0,1,198.98333740234375,84.88330078125)"><path transform="matrix(0.017,0,0,-0.017,0,0)" d="M125 390L69 107C68 99 56 61 56 31C56 6 67 -9 86 -9C121 -9 156 11 234 74L265 99L255 117L210 86C181 66 161 56 150 56C141 56 136 64 136 76C136 102 150 183 179 328L192 390L299 390L310 440C272 436 238 434 200 434C216 528 227 577 245 631L234 646C214 634 187 622 156 610L131 440C87 419 61 408 43 403L41 390Z" stroke="rgb(74,144,226)" stroke-opacity="1" stroke-width="8" fill="rgb(74,144,226)" fill-opacity="1"></path></g></g><g><g transform="matrix(1,0,0,1,208.0333251953125,84.88330078125)"><path transform="matrix(0.017,0,0,-0.017,0,0)" d="M555 243L555 299L51 299L51 243Z" stroke="rgb(74,144,226)" stroke-opacity="1" stroke-width="8" fill="rgb(74,144,226)" fill-opacity="1"></path></g></g><g><g transform="matrix(1,0,0,1,221.7166748046875,84.88330078125)"><path transform="matrix(0.017,0,0,-0.017,0,0)" d="M418 -3L418 27L366 30C311 33 301 44 301 96L301 700L60 598L67 548L217 614L217 96C217 44 206 33 152 30L96 27L96 -3C250 0 250 0 261 0C292 0 402 -3 418 -3Z" stroke="rgb(74,144,226)" stroke-opacity="1" stroke-width="8" fill="rgb(74,144,226)" fill-opacity="1"></path></g></g><g><g transform="matrix(1,0,0,1,230.20001220703125,84.816650390625)"><path transform="matrix(0.017,0,0,-0.017,0,0)" d="M51 726L32 700C87 636 187 526 187 266C187 -10 83 -131 32 -194L51 -215C104 -165 273 -23 273 265C273 542 108 675 51 726Z" stroke="rgb(74,144,226)" stroke-opacity="1" stroke-width="8" fill="rgb(74,144,226)" fill-opacity="1"></path></g></g></g></g><g><g><g><text x="127.1500244140625" y="41.89996337890625" style="white-space:pre;stroke:none;fill:rgb(0,0,0);fill-opacity:1;font-size:15px;font-family:Arial, Helvetica, sans-serif;font-weight:400;font-style:normal;dominant-baseline:text-before-edge;text-decoration:rgb(0, 0, 0);">Input</text></g></g></g><g><g><g><text x="411.9000244140625" y="43.89996337890625" style="white-space:pre;stroke:none;fill:rgb(0,0,0);fill-opacity:1;font-size:15px;font-family:Arial, Helvetica, sans-serif;font-weight:400;font-style:normal;dominant-baseline:text-before-edge;text-decoration:rgb(0, 0, 0);">Output</text></g></g></g><g><g><g><g transform="matrix(1,0,0,1,138.7833251953125,209.51666259765625)"><path transform="matrix(0.017,0,0,-0.017,0,0)" d="M263 689C108 689 29 566 29 324C29 207 50 106 85 57C120 8 176 -20 238 -20C389 -20 465 110 465 366C465 585 400 689 263 689ZM245 654C342 654 381 556 381 316C381 103 343 15 251 15C154 15 113 116 113 360C113 571 150 654 245 654Z" stroke="rgb(0,0,0)" stroke-opacity="1" stroke-width="8" fill="rgb(0,0,0)" fill-opacity="1"></path></g></g></g></g><g><g><g><g transform="matrix(1,0,0,1,623.9000244140625,196.70001220703125)"><path transform="matrix(0.017,0,0,-0.017,0,0)" d="M125 390L69 107C68 99 56 61 56 31C56 6 67 -9 86 -9C121 -9 156 11 234 74L265 99L255 117L210 86C181 66 161 56 150 56C141 56 136 64 136 76C136 102 150 183 179 328L192 390L299 390L310 440C272 436 238 434 200 434C216 528 227 577 245 631L234 646C214 634 187 622 156 610L131 440C87 419 61 408 43 403L41 390Z" stroke="rgb(0,0,0)" stroke-opacity="1" stroke-width="8" fill="rgb(0,0,0)" fill-opacity="1"></path></g></g></g></g><g><g><g><g transform="matrix(1,0,0,1,171.7833251953125,209.51666259765625)"><path transform="matrix(0.017,0,0,-0.017,0,0)" d="M418 -3L418 27L366 30C311 33 301 44 301 96L301 700L60 598L67 548L217 614L217 96C217 44 206 33 152 30L96 27L96 -3C250 0 250 0 261 0C292 0 402 -3 418 -3Z" stroke="rgb(0,0,0)" stroke-opacity="1" stroke-width="8" fill="rgb(0,0,0)" fill-opacity="1"></path></g></g></g></g><g><g><g><g transform="matrix(1,0,0,1,204.7833251953125,209.51666259765625)"><path transform="matrix(0.017,0,0,-0.017,0,0)" d="M16 23L16 -3C203 -3 203 0 239 0C275 0 275 -3 468 -3L468 82C353 77 307 81 122 77L304 270C401 373 431 428 431 503C431 618 353 689 226 689C154 689 105 669 56 619L39 483L68 483L81 529C97 587 133 612 200 612C286 612 341 558 341 473C341 398 299 324 186 204Z" stroke="rgb(0,0,0)" stroke-opacity="1" stroke-width="8" fill="rgb(0,0,0)" fill-opacity="1"></path></g></g></g></g><g><g><g><g transform="matrix(1,0,0,1,237.7833251953125,209.51666259765625)"><path transform="matrix(0.017,0,0,-0.017,0,0)" d="M462 224C462 345 355 366 308 374C388 436 418 482 418 541C418 630 344 689 233 689C165 689 120 670 72 622L43 498L74 498L92 554C103 588 166 622 218 622C283 622 336 569 336 506C336 431 277 368 206 368C198 368 187 369 174 370L159 371L147 318L154 312C192 329 211 334 238 334C321 334 369 281 369 190C369 88 308 21 215 21C169 21 128 36 98 64C74 86 61 109 42 163L15 153C36 92 44 56 50 6C103 -12 147 -20 184 -20C307 -20 462 87 462 224Z" stroke="rgb(0,0,0)" stroke-opacity="1" stroke-width="8" fill="rgb(0,0,0)" fill-opacity="1"></path></g></g></g></g></svg>
</svg>
