<svg xmlns="http://www.w3.org/2000/svg" xmlns:xlink="http://www.w3.org/1999/xlink" x="0" y="0" width="661.1333414713541" height="301.1333414713542" style="
        width:661.1333414713541px;
        height:301.1333414713542px;
        background: transparent;
        fill: none;
">
        <svg xmlns="http://www.w3.org/2000/svg"><g><defs><pattern id=".10474096478874517" width="10" height="10" patternUnits="userSpaceOnUse"><path d="M 10 0 L 0 0 0 10" fill="none" stroke="lightgray" stroke-width="0.5"/></pattern></defs><rect width="100%" height="100%" fill="url(#.10474096478874517)" stroke="lightgray" stroke-width="0.5"/></g></svg>
        
        <svg xmlns="http://www.w3.org/2000/svg" class="role-diagram-draw-area"><g class="shapes-region" style="stroke: black; fill: none;"><g class="composite-shape"><path class="real" d=" M135,139 C135,125.75 145.75,115 159,115 L231,115 C244.25,115 255,125.75 255,139 L255,211 C255,224.25 244.25,235 231,235 L159,235 C145.75,235 135,224.25 135,211 Z" style="stroke-width: 1px; stroke: rgb(0, 0, 0); stroke-opacity: 1; fill: none; fill-opacity: 1;"/></g><g class="composite-shape"><path class="real" d=" M25,175 C26.25,165 30.25,155 38.25,155 C54.25,155 54.25,195 48.25,195 C42.25,195 42.25,155 58.25,155 C74.25,155 74.25,195 68.25,195 C62.25,195 62.25,155 78.25,155 C94.25,155 94.25,195 88.25,195 C82.25,195 82.25,155 98.25,155 C114.25,155 114.25,195 108.25,195 C102.25,195 102.25,155 118.25,155 C134.25,155 134.25,195 128.25,195 C122.69,195 122.28,160.62 135,155.61" style="stroke-width: 1px; stroke: rgb(0, 0, 0);"/></g><g class="arrow-line"><path class="connection real" stroke-dasharray="" d="  M25,235 L325,235" style="stroke: rgb(0, 0, 0); stroke-width: 2px; fill: none; fill-opacity: 1;"/></g><g class="arrow-line"><path class="connection real" stroke-dasharray="" d="  M25,115 L25,235" style="stroke: rgb(0, 0, 0); stroke-width: 2px; fill: none; fill-opacity: 1;"/></g><g class="arrow-line"><path class="connection real" stroke-dasharray="" d="  M115,95 L193,95" style="stroke: rgb(74, 144, 226); stroke-opacity: 1; stroke-width: 1px; fill: none; fill-opacity: 1;"/><g stroke="rgb(74,144,226)" stroke-opacity="1" transform="matrix(-1,1.2246467991473532e-16,-1.2246467991473532e-16,-1,195,95)" style="stroke: rgb(74, 144, 226); stroke-width: 1px;"><path d=" M10.93,-3.29 Q4.96,-0.45 0,0 Q4.96,0.45 10.93,3.29"/></g><g stroke="rgb(74,144,226)" stroke-opacity="1" transform="matrix(-1,1.2246467991473532e-16,-1.2246467991473532e-16,-1,114.99999999999999,95.00000000000001)" style="stroke: rgb(74, 144, 226); stroke-width: 1px;"><path d=" M0,5.59 L0,-5.59"/></g></g><g class="arrow-line"><path class="connection real" stroke-dasharray="" d="  M25,245 L35,235" style="stroke: rgb(0, 0, 0); stroke-width: 1px; fill: none; fill-opacity: 1;"/></g><g class="arrow-line"><path class="connection real" stroke-dasharray="" d="  M45,245 L55,235" style="stroke: rgb(0, 0, 0); stroke-width: 1px; fill: none; fill-opacity: 1;"/></g><g class="arrow-line"><path class="connection real" stroke-dasharray="" d="  M65,245 L75,235" style="stroke: rgb(0, 0, 0); stroke-width: 1px; fill: none; fill-opacity: 1;"/></g><g class="arrow-line"><path class="connection real" stroke-dasharray="" d="  M85,245 L95,235" style="stroke: rgb(0, 0, 0); stroke-width: 1px; fill: none; fill-opacity: 1;"/></g><g class="arrow-line"><path class="connection real" stroke-dasharray="" d="  M105,245 L115,235" style="stroke: rgb(0, 0, 0); stroke-width: 1px; fill: none; fill-opacity: 1;"/></g><g class="arrow-line"><path class="connection real" stroke-dasharray="" d="  M125,245 L135,235" style="stroke: rgb(0, 0, 0); stroke-width: 1px; fill: none; fill-opacity: 1;"/></g><g class="arrow-line"><path class="connection real" stroke-dasharray="" d="  M145,245 L155,235" style="stroke: rgb(0, 0, 0); stroke-width: 1px; fill: none; fill-opacity: 1;"/></g><g class="arrow-line"><path class="connection real" stroke-dasharray="" d="  M165,245 L175,235" style="stroke: rgb(0, 0, 0); stroke-width: 1px; fill: none; fill-opacity: 1;"/></g><g class="arrow-line"><path class="connection real" stroke-dasharray="" d="  M185,245 L195,235" style="stroke: rgb(0, 0, 0); stroke-width: 1px; fill: none; fill-opacity: 1;"/></g><g class="arrow-line"><path class="connection real" stroke-dasharray="" d="  M205,245 L215,235" style="stroke: rgb(0, 0, 0); stroke-width: 1px; fill: none; fill-opacity: 1;"/></g><g class="arrow-line"><path class="connection real" stroke-dasharray="" d="  M225,245 L235,235" style="stroke: rgb(0, 0, 0); stroke-width: 1px; fill: none; fill-opacity: 1;"/></g><g class="arrow-line"><path class="connection real" stroke-dasharray="" d="  M245,245 L255,235" style="stroke: rgb(0, 0, 0); stroke-width: 1px; fill: none; fill-opacity: 1;"/></g><g class="arrow-line"><path class="connection real" stroke-dasharray="" d="  M265,245 L275,235" style="stroke: rgb(0, 0, 0); stroke-width: 1px; fill: none; fill-opacity: 1;"/></g><g class="arrow-line"><path class="connection real" stroke-dasharray="" d="  M285,245 L295,235" style="stroke: rgb(0, 0, 0); stroke-width: 1px; fill: none; fill-opacity: 1;"/></g><g class="arrow-line"><path class="connection real" stroke-dasharray="" d="  M305,245 L315,235" style="stroke: rgb(0, 0, 0); stroke-width: 1px; fill: none; fill-opacity: 1;"/></g><g class="arrow-line"><path class="connection real" stroke-dasharray="" d="  M15,135 L25,125" style="stroke: rgb(0, 0, 0); stroke-width: 1px; fill: none; fill-opacity: 1;"/></g><g class="arrow-line"><path class="connection real" stroke-dasharray="" d="  M15,155 L25,145" style="stroke: rgb(0, 0, 0); stroke-width: 1px; fill: none; fill-opacity: 1;"/></g><g class="arrow-line"><path class="connection real" stroke-dasharray="" d="  M15,175 L25,165" style="stroke: rgb(0, 0, 0); stroke-width: 1px; fill: none; fill-opacity: 1;"/></g><g class="arrow-line"><path class="connection real" stroke-dasharray="" d="  M15,195 L25,185" style="stroke: rgb(0, 0, 0); stroke-width: 1px; fill: none; fill-opacity: 1;"/></g><g class="arrow-line"><path class="connection real" stroke-dasharray="" d="  M15,215 L25,205" style="stroke: rgb(0, 0, 0); stroke-width: 1px; fill: none; fill-opacity: 1;"/></g><g class="arrow-line"><path class="connection real" stroke-dasharray="" d="  M15,235 L25,225" style="stroke: rgb(0, 0, 0); stroke-width: 1px; fill: none; fill-opacity: 1;"/></g><g class="composite-shape" data-amt="diagram/shapes/plot" transform="matrix(1,0,0,1,325,89.1701622717242)"><g><g/><g><g class="test-xti" style="font-family: Asana-Math, Asana;"><line x1="0" y1="97.41111522690542" x2="335.23333740234375" y2="97.41111522690542" fill="none" stroke="rgb(50,50,50)" stroke-opacity="1" stroke-width="1"/><line x1="62.447210868950165" y1="93.41111522690542" x2="62.447210868950165" y2="101.41111522690542" fill="none" stroke="rgb(50,50,50)" stroke-opacity="1" stroke-width="1"/><line x1="121.50971086895018" y1="93.41111522690542" x2="121.50971086895018" y2="101.41111522690542" fill="none" stroke="rgb(50,50,50)" stroke-opacity="1" stroke-width="1"/><line x1="180.57221086895018" y1="93.41111522690542" x2="180.57221086895018" y2="101.41111522690542" fill="none" stroke="rgb(50,50,50)" stroke-opacity="1" stroke-width="1"/><line x1="239.63471086895018" y1="93.41111522690542" x2="239.63471086895018" y2="101.41111522690542" fill="none" stroke="rgb(50,50,50)" stroke-opacity="1" stroke-width="1"/><line x1="298.69721086895015" y1="93.41111522690542" x2="298.69721086895015" y2="101.41111522690542" fill="none" stroke="rgb(50,50,50)" stroke-opacity="1" stroke-width="1"/><path d="M330.23333740234375,93.81111522690543 L338.23333740234375,97.41111522690542 L330.23333740234375,101.01111522690542 Z" stroke="none" stroke-width="1" fill="rgb(50,50,50)" fill-opacity="1"/></g><g class="test-plot-expression"><defs><clipPath id="cpn7ki4d8yr"><rect x="1" y="1" width="337.23333740234375" height="192.69650642944768"/></clipPath></defs><g clip-path="url(#cpn7ki4d8yr)"><path d=" M3.38,97.41 L3.88,95.15 L4.38,92.92 L4.87,90.70 L5.37,88.51 L5.86,86.34 L6.36,84.20 L6.85,82.09 L7.35,80.00 L7.85,77.94 L8.34,75.91 L8.84,73.91 L9.33,71.94 L9.83,70.01 L10.33,68.11 L10.82,66.24 L11.32,64.42 L11.81,62.62 L12.31,60.87 L12.80,59.15 L13.30,57.47 L13.80,55.84 L14.29,54.24 L14.79,52.69 L15.28,51.17 L15.78,49.70 L16.27,48.27 L16.77,46.89 L17.27,45.55 L17.76,44.26 L18.26,43.01 L18.75,41.80 L19.25,40.65 L19.74,39.54 L20.24,38.47 L20.74,37.46 L21.23,36.49 L21.73,35.56 L22.22,34.69 L22.72,33.86 L23.21,33.09 L23.71,32.36 L24.21,31.68 L24.70,31.04 L25.20,30.46 L25.69,29.92 L26.19,29.44 L26.68,29.00 L27.18,28.60 L27.68,28.26 L28.17,27.96 L28.67,27.72 L29.16,27.51 L29.66,27.36 L30.15,27.25 L30.65,27.19 L31.15,27.18 L31.64,27.21 L32.14,27.28 L32.63,27.41 L33.13,27.57 L33.62,27.78 L34.12,28.03 L34.62,28.33 L35.11,28.67 L35.61,29.05 L36.10,29.47 L36.60,29.93 L37.10,30.43 L37.59,30.97 L38.09,31.55 L38.58,32.17 L39.08,32.82 L39.57,33.51 L40.07,34.24 L40.57,35.00 L41.06,35.80 L41.56,36.63 L42.05,37.49 L42.55,38.38 L43.04,39.31 L43.54,40.26 L44.04,41.24 L44.53,42.25 L45.03,43.29 L45.52,44.36 L46.02,45.45 L46.51,46.56 L47.01,47.70 L47.51,48.87 L48.00,50.05 L48.50,51.25 L48.99,52.48 L49.49,53.72 L49.98,54.98 L50.48,56.26 L50.98,57.55 L51.47,58.86 L51.97,60.19 L52.46,61.52 L52.96,62.87 L53.45,64.23 L53.95,65.60 L54.45,66.98 L54.94,68.37 L55.44,69.76 L55.93,71.16 L56.43,72.57 L56.92,73.98 L57.42,75.39 L57.92,76.81 L58.41,78.23 L58.91,79.64 L59.40,81.06 L59.90,82.48 L60.40,83.89 L60.89,85.31 L61.39,86.71 L61.88,88.12 L62.38,89.51 L62.87,90.90 L63.37,92.29 L63.87,93.66 L64.36,95.03 L64.86,96.38 L65.35,97.73 L65.85,99.06 L66.34,100.39 L66.84,101.69 L67.34,102.99 L67.83,104.27 L68.33,105.53 L68.82,106.78 L69.32,108.02 L69.81,109.23 L70.31,110.43 L70.81,111.61 L71.30,112.77 L71.80,113.91 L72.29,115.03 L72.79,116.13 L73.28,117.21 L73.78,118.27 L74.28,119.30 L74.77,120.31 L75.27,121.30 L75.76,122.27 L76.26,123.21 L76.75,124.12 L77.25,125.01 L77.75,125.88 L78.24,126.72 L78.74,127.53 L79.23,128.32 L79.73,129.08 L80.22,129.81 L80.72,130.52 L81.22,131.20 L81.71,131.85 L82.21,132.47 L82.70,133.07 L83.20,133.63 L83.69,134.17 L84.19,134.68 L84.69,135.17 L85.18,135.62 L85.68,136.05 L86.17,136.44 L86.67,136.81 L87.17,137.15 L87.66,137.46 L88.16,137.74 L88.65,138.00 L89.15,138.22 L89.64,138.42 L90.14,138.59 L90.64,138.73 L91.13,138.84 L91.63,138.93 L92.12,138.98 L92.62,139.01 L93.11,139.01 L93.61,138.99 L94.11,138.94 L94.60,138.86 L95.10,138.76 L95.59,138.63 L96.09,138.47 L96.58,138.29 L97.08,138.08 L97.58,137.85 L98.07,137.60 L98.57,137.32 L99.06,137.01 L99.56,136.69 L100.05,136.34 L100.55,135.97 L101.05,135.58 L101.54,135.16 L102.04,134.73 L102.53,134.27 L103.03,133.79 L103.52,133.30 L104.02,132.78 L104.52,132.25 L105.01,131.70 L105.51,131.13 L106.00,130.54 L106.50,129.94 L106.99,129.32 L107.49,128.69 L107.99,128.04 L108.48,127.37 L108.98,126.70 L109.47,126.00 L109.97,125.30 L110.46,124.58 L110.96,123.86 L111.46,123.12 L111.95,122.37 L112.45,121.61 L112.94,120.84 L113.44,120.06 L113.94,119.28 L114.43,118.48 L114.93,117.68 L115.42,116.87 L115.92,116.06 L116.41,115.24 L116.91,114.42 L117.41,113.59 L117.90,112.76 L118.40,111.93 L118.89,111.09 L119.39,110.26 L119.88,109.42 L120.38,108.58 L120.88,107.74 L121.37,106.90 L121.87,106.06 L122.36,105.22 L122.86,104.38 L123.35,103.55 L123.85,102.72 L124.35,101.89 L124.84,101.07 L125.34,100.25 L125.83,99.44 L126.33,98.63 L126.82,97.83 L127.32,97.03 L127.82,96.25 L128.31,95.46 L128.81,94.69 L129.30,93.93 L129.80,93.17 L130.29,92.42 L130.79,91.68 L131.29,90.96 L131.78,90.24 L132.28,89.53 L132.77,88.84 L133.27,88.15 L133.76,87.48 L134.26,86.82 L134.76,86.17 L135.25,85.53 L135.75,84.91 L136.24,84.30 L136.74,83.70 L137.24,83.12 L137.73,82.55 L138.23,82.00 L138.72,81.46 L139.22,80.94 L139.71,80.43 L140.21,79.94 L140.71,79.46 L141.20,78.99 L141.70,78.55 L142.19,78.12 L142.69,77.70 L143.18,77.30 L143.68,76.92 L144.18,76.56 L144.67,76.21 L145.17,75.88 L145.66,75.56 L146.16,75.26 L146.65,74.98 L147.15,74.71 L147.65,74.47 L148.14,74.24 L148.64,74.02 L149.13,73.82 L149.63,73.64 L150.12,73.48 L150.62,73.34 L151.12,73.21 L151.61,73.09 L152.11,73.00 L152.60,72.92 L153.10,72.86 L153.59,72.81 L154.09,72.78 L154.59,72.77 L155.08,72.77 L155.58,72.79 L156.07,72.82 L156.57,72.87 L157.06,72.94 L157.56,73.02 L158.06,73.11 L158.55,73.22 L159.05,73.35 L159.54,73.49 L160.04,73.64 L160.53,73.81 L161.03,74.00 L161.53,74.19 L162.02,74.40 L162.52,74.62 L163.01,74.86 L163.51,75.11 L164.01,75.37 L164.50,75.64 L165.00,75.93 L165.49,76.22 L165.99,76.53 L166.48,76.85 L166.98,77.18 L167.48,77.52 L167.97,77.87 L168.47,78.23 L168.96,78.60 L169.46,78.97 L169.95,79.36 L170.45,79.76 L170.95,80.16 L171.44,80.57 L171.94,80.99 L172.43,81.42 L172.93,81.85 L173.42,82.29 L173.92,82.73 L174.42,83.19 L174.91,83.64 L175.41,84.10 L175.90,84.57 L176.40,85.04 L176.89,85.52 L177.39,86.00 L177.89,86.48 L178.38,86.96 L178.88,87.45 L179.37,87.94 L179.87,88.43 L180.36,88.93 L180.86,89.42 L181.36,89.92 L181.85,90.42 L182.35,90.91 L182.84,91.41 L183.34,91.91 L183.83,92.41 L184.33,92.90 L184.83,93.40 L185.32,93.89 L185.82,94.38 L186.31,94.87 L186.81,95.36 L187.30,95.84 L187.80,96.32 L188.30,96.80 L188.79,97.28 L189.29,97.75 L189.78,98.21 L190.28,98.67 L190.78,99.13 L191.27,99.58 L191.77,100.03 L192.26,100.47 L192.76,100.91 L193.25,101.34 L193.75,101.76 L194.25,102.18 L194.74,102.59 L195.24,102.99 L195.73,103.39 L196.23,103.78 L196.72,104.16 L197.22,104.54 L197.72,104.90 L198.21,105.26 L198.71,105.61 L199.20,105.96 L199.70,106.29 L200.19,106.62 L200.69,106.93 L201.19,107.24 L201.68,107.54 L202.18,107.83 L202.67,108.11 L203.17,108.38 L203.66,108.65 L204.16,108.90 L204.66,109.14 L205.15,109.38 L205.65,109.60 L206.14,109.81 L206.64,110.02 L207.13,110.21 L207.63,110.40 L208.13,110.57 L208.62,110.74 L209.12,110.89 L209.61,111.04 L210.11,111.17 L210.60,111.30 L211.10,111.41 L211.60,111.51 L212.09,111.61 L212.59,111.69 L213.08,111.77 L213.58,111.83 L214.08,111.89 L214.57,111.93 L215.07,111.96 L215.56,111.99 L216.06,112.01 L216.55,112.01 L217.05,112.01 L217.55,111.99 L218.04,111.97 L218.54,111.94 L219.03,111.90 L219.53,111.85 L220.02,111.79 L220.52,111.72 L221.02,111.65 L221.51,111.56 L222.01,111.47 L222.50,111.37 L223.00,111.26 L223.49,111.14 L223.99,111.01 L224.49,110.88 L224.98,110.74 L225.48,110.59 L225.97,110.43 L226.47,110.27 L226.96,110.10 L227.46,109.92 L227.96,109.74 L228.45,109.55 L228.95,109.35 L229.44,109.15 L229.94,108.94 L230.43,108.72 L230.93,108.50 L231.43,108.28 L231.92,108.05 L232.42,107.81 L232.91,107.57 L233.41,107.33 L233.90,107.08 L234.40,106.83 L234.90,106.57 L235.39,106.31 L235.89,106.04 L236.38,105.77 L236.88,105.50 L237.37,105.23 L237.87,104.95 L238.37,104.67 L238.86,104.39 L239.36,104.11 L239.85,103.82 L240.35,103.53 L240.85,103.24 L241.34,102.95 L241.84,102.66 L242.33,102.37 L242.83,102.07 L243.32,101.78 L243.82,101.48 L244.32,101.19 L244.81,100.89 L245.31,100.60 L245.80,100.31 L246.30,100.01 L246.79,99.72 L247.29,99.43 L247.79,99.14 L248.28,98.85 L248.78,98.56 L249.27,98.27 L249.77,97.99 L250.26,97.71 L250.76,97.43 L251.26,97.15 L251.75,96.87 L252.25,96.60 L252.74,96.33 L253.24,96.06 L253.73,95.80 L254.23,95.54 L254.73,95.28 L255.22,95.03 L255.72,94.78 L256.21,94.53 L256.71,94.29 L257.20,94.05 L257.70,93.81 L258.20,93.58 L258.69,93.36 L259.19,93.14 L259.68,92.92 L260.18,92.71 L260.67,92.50 L261.17,92.30 L261.67,92.10 L262.16,91.91 L262.66,91.73 L263.15,91.54 L263.65,91.37 L264.14,91.20 L264.64,91.03 L265.14,90.87 L265.63,90.72 L266.13,90.57 L266.62,90.43 L267.12,90.29 L267.62,90.16 L268.11,90.03 L268.61,89.91 L269.10,89.80 L269.60,89.69 L270.09,89.59 L270.59,89.49 L271.09,89.40 L271.58,89.32 L272.08,89.24 L272.57,89.17 L273.07,89.10 L273.56,89.04 L274.06,88.99 L274.56,88.94 L275.05,88.90 L275.55,88.86 L276.04,88.83 L276.54,88.80 L277.03,88.79 L277.53,88.77 L278.03,88.76 L278.52,88.76 L279.02,88.77 L279.51,88.77 L280.01,88.79 L280.50,88.81 L281.00,88.84 L281.50,88.87 L281.99,88.90 L282.49,88.94 L282.98,88.99 L283.48,89.04 L283.97,89.10 L284.47,89.16 L284.97,89.23 L285.46,89.30 L285.96,89.37 L286.45,89.45 L286.95,89.54 L287.44,89.63 L287.94,89.72 L288.44,89.82 L288.93,89.92 L289.43,90.03 L289.92,90.14 L290.42,90.25 L290.92,90.37 L291.41,90.49 L291.91,90.61 L292.40,90.74 L292.90,90.87 L293.39,91.01 L293.89,91.14 L294.39,91.28 L294.88,91.43 L295.38,91.57 L295.87,91.72 L296.37,91.87 L296.86,92.02 L297.36,92.18 L297.86,92.34 L298.35,92.49 L298.85,92.66 L299.34,92.82 L299.84,92.98 L300.33,93.15 L300.83,93.32 L301.33,93.49 L301.82,93.65 L302.32,93.83 L302.81,94.00 L303.31,94.17 L303.80,94.34 L304.30,94.52 L304.80,94.69 L305.29,94.87 L305.79,95.04 L306.28,95.21 L306.78,95.39 L307.27,95.56 L307.77,95.74 L308.27,95.91 L308.76,96.08 L309.26,96.26 L309.75,96.43 L310.25,96.60 L310.74,96.77 L311.24,96.94 L311.74,97.11 L312.23,97.28 L312.73,97.44 L313.22,97.61 L313.72,97.77 L314.21,97.93 L314.71,98.09 L315.21,98.25 L315.70,98.40 L316.20,98.56 L316.69,98.71 L317.19,98.86 L317.69,99.01 L318.18,99.15 L318.68,99.30 L319.17,99.44 L319.67,99.57 L320.16,99.71 L320.66,99.84 L321.16,99.97 L321.65,100.10 L322.15,100.23 L322.64,100.35 L323.14,100.47 L323.63,100.58 L324.13,100.69 L324.63,100.80 L325.12,100.91 L325.62,101.01 L326.11,101.12 L326.61,101.21 L327.10,101.31 L327.60,101.40 L328.10,101.48 L328.59,101.57 L329.09,101.65 L329.58,101.72 L330.08,101.80 L330.57,101.87 L331.07,101.93 L331.57,102.00 L332.06,102.06 L332.56,102.11 L333.05,102.17 L333.55,102.22 L334.04,102.26 L334.54,102.30 L335.04,102.34 L335.53,102.38 L336.03,102.41 L336.52,102.44 L337.02,102.46 L337.51,102.48 L338.01,102.50 L338.51,102.51 L339.00,102.52 L339.23,102.53" style="stroke-width: 2px; stroke: rgb(74, 144, 226); stroke-opacity: 0.8;"/></g></g><g class="test-xtl" style="font-family: &quot;Open Sans&quot;, verdana, arial, sans-serif;"/><rect class="real" x="1" y="1" width="337.23333740234375" height="192.69650642944768" style="fill: transparent; stroke: none;"/></g></g></g><g class="arrow-line"><path class="connection real" stroke-dasharray="" d="  M503,175" style="stroke: rgb(218, 44, 0); stroke-width: 1px; fill: none; fill-opacity: 1; stroke-opacity: 1;"/><g stroke="rgb(218,44,0)" fill="rgb(218,44,0)" transform="matrix(1,0,0,1,503,175)" style="stroke: rgb(218, 44, 0); fill: rgb(218, 44, 0); stroke-width: 1px;" stroke-opacity="1" fill-opacity="1"><circle cx="0" cy="0" r="2.01"/></g></g><g/></g><g/><g/><g/></svg>
        <svg xmlns="http://www.w3.org/2000/svg" xmlns:xlink="http://www.w3.org/1999/xlink" width="660" height="300" style="width:660px;height:300px;font-family:Asana-Math, Asana;background:transparent;"><g><g><g><g transform="matrix(1,0,0,1,146.77779134114584,81.80000813802144)"><path transform="matrix(0.017,0,0,-0.017,0,0)" d="M9 1C24 -7 40 -11 52 -11C85 -11 124 18 155 65L231 182L242 113C255 28 278 -11 314 -11C336 -11 368 6 400 35L449 79L440 98C404 68 379 53 363 53C348 53 335 63 325 83C316 102 305 139 300 168L282 269L317 318C364 383 391 406 422 406C438 406 450 398 455 383L469 387L484 472C472 479 463 482 454 482C414 482 374 446 312 354L275 299L269 347C257 446 230 482 171 482C145 482 123 474 114 461L56 378L73 368C103 402 123 416 142 416C175 416 197 375 214 277L225 215L185 153C142 86 108 54 80 54C65 54 54 58 52 63L41 91L21 88C21 53 13 27 9 1Z" stroke="rgb(74,144,226)" stroke-opacity="1" stroke-width="8" fill="rgb(74,144,226)" fill-opacity="1"></path></g></g></g></g><g><g><g><g transform="matrix(1,0,0,1,507.85555013020837,170.18889363606831)"><path transform="matrix(0.017,0,0,-0.017,0,0)" d="M567 55C567 39 552 30 524 28L480 25L480 -3C582 0 582 0 602 0C622 0 622 0 724 -3L724 25L698 28C651 35 650 35 642 80L555 705L509 705L136 112C100 56 82 40 48 32L28 27L28 -3C120 0 120 0 140 0C159 0 161 0 247 -3L247 25L195 28C179 29 164 38 164 47C164 55 171 69 190 102L292 277L538 277L563 89L563 86C563 84 567 69 567 55ZM496 601L533 313L317 313Z" stroke="rgb(218,44,0)" stroke-opacity="1" stroke-width="8" fill="rgb(218,44,0)" fill-opacity="1"></path></g></g></g></g></svg>
</svg>
