<svg xmlns="http://www.w3.org/2000/svg" xmlns:xlink="http://www.w3.org/1999/xlink" x="0" y="0" width="661.433349609375" height="301.433349609375" style="
        width:661.433349609375px;
        height:301.433349609375px;
        background: transparent;
        fill: none;
">
        
        
        <svg xmlns="http://www.w3.org/2000/svg" class="role-diagram-draw-area"><g class="shapes-region" style="stroke: black; fill: none;"><g class="composite-shape" data-amt="diagram/shapes/plot" transform="matrix(1,0,0,1,30,60)"><g><g><g class="test-xgi"><line x1="11.000000000000002" y1="0" x2="11.000000000000002" y2="200" fill="none" stroke="#c3c3c3" stroke-width="0.5"/><line x1="83.25663103256525" y1="0" x2="83.25663103256525" y2="200" fill="none" stroke="#c3c3c3" stroke-width="0.5"/><line x1="155.5132620651305" y1="0" x2="155.5132620651305" y2="200" fill="none" stroke="#c3c3c3" stroke-width="0.5"/><line x1="227.76989309769576" y1="0" x2="227.76989309769576" y2="200" fill="none" stroke="#c3c3c3" stroke-width="0.5"/></g><g class="test-ygi"><line x1="0" y1="151" x2="260" y2="151" fill="none" stroke="#c3c3c3" stroke-width="0.5"/><line x1="0" y1="101" x2="260" y2="101" fill="none" stroke="#c3c3c3" stroke-width="0.5"/><line x1="0" y1="51" x2="260" y2="51" fill="none" stroke="#c3c3c3" stroke-width="0.5"/><line x1="0" y1="1" x2="260" y2="1" fill="none" stroke="#c3c3c3" stroke-width="0.5"/></g></g><g><g class="test-xti" style="font-family: Asana-Math, Asana;"><line x1="0" y1="101" x2="256" y2="101" fill="none" stroke="rgb(50,50,50)" stroke-opacity="1" stroke-width="1"/><line x1="83.25663103256525" y1="97" x2="83.25663103256525" y2="105" fill="none" stroke="rgb(50,50,50)" stroke-opacity="1" stroke-width="1"/><line x1="155.5132620651305" y1="97" x2="155.5132620651305" y2="105" fill="none" stroke="rgb(50,50,50)" stroke-opacity="1" stroke-width="1"/><line x1="227.76989309769576" y1="97" x2="227.76989309769576" y2="105" fill="none" stroke="rgb(50,50,50)" stroke-opacity="1" stroke-width="1"/><path d="M251,97.4 L259,101 L251,104.6 Z" stroke="none" stroke-width="1" fill="rgb(50,50,50)" fill-opacity="1"/></g><g class="test-yti" style="font-family: Asana-Math, Asana;"><line x1="11" y1="4" x2="11" y2="200" fill="none" stroke="rgb(50,50,50)" stroke-opacity="1" stroke-width="1"/><line x1="7" y1="151" x2="15" y2="151" fill="none" stroke="rgb(50,50,50)" stroke-opacity="1" stroke-width="1"/><line x1="7" y1="51" x2="15" y2="51" fill="none" stroke="rgb(50,50,50)" stroke-opacity="1" stroke-width="1"/><line x1="7" y1="1" x2="15" y2="1" fill="none" stroke="rgb(50,50,50)" stroke-opacity="1" stroke-width="1"/><path d="M7.4,9 L11,1 L14.6,9 Z" stroke="none" stroke-width="1" fill="rgb(50,50,50)" fill-opacity="1"/></g><g class="test-plot-expression"><defs><clipPath id="cpotpr6g0fn"><rect x="1" y="1" width="258" height="198"/></clipPath></defs><g clip-path="url(#cpotpr6g0fn)"><path d=" M11.00,101.00 L11.48,99.96 L11.96,98.91 L12.44,97.87 L12.92,96.83 L13.40,95.79 L13.88,94.76 L14.36,93.73 L14.84,92.69 L15.32,91.67 L15.80,90.65 L16.28,89.63 L16.76,88.61 L17.24,87.61 L17.72,86.61 L18.20,85.61 L18.68,84.62 L19.16,83.64 L19.64,82.66 L20.12,81.70 L20.60,80.74 L21.08,79.79 L21.55,78.85 L22.03,77.92 L22.51,77.00 L22.99,76.09 L23.47,75.19 L23.95,74.30 L24.43,73.43 L24.91,72.56 L25.39,71.71 L25.87,70.87 L26.35,70.05 L26.83,69.24 L27.31,68.44 L27.79,67.65 L28.27,66.88 L28.75,66.13 L29.23,65.39 L29.71,64.66 L30.19,63.96 L30.67,63.26 L31.15,62.59 L31.63,61.93 L32.11,61.29 L32.59,60.66 L33.07,60.05 L33.55,59.46 L34.03,58.89 L34.51,58.34 L34.99,57.80 L35.47,57.29 L35.95,56.79 L36.43,56.31 L36.91,55.86 L37.39,55.42 L37.87,55.00 L38.35,54.60 L38.83,54.22 L39.31,53.86 L39.79,53.53 L40.27,53.21 L40.75,52.91 L41.23,52.64 L41.71,52.38 L42.18,52.15 L42.66,51.94 L43.14,51.75 L43.62,51.58 L44.10,51.43 L44.58,51.31 L45.06,51.20 L45.54,51.12 L46.02,51.06 L46.50,51.02 L46.98,51.00 L47.46,51.01 L47.94,51.03 L48.42,51.08 L48.90,51.15 L49.38,51.24 L49.86,51.35 L50.34,51.49 L50.82,51.64 L51.30,51.82 L51.78,52.02 L52.26,52.24 L52.74,52.48 L53.22,52.74 L53.70,53.03 L54.18,53.33 L54.66,53.66 L55.14,54.00 L55.62,54.37 L56.10,54.75 L56.58,55.16 L57.06,55.59 L57.54,56.03 L58.02,56.50 L58.50,56.98 L58.98,57.49 L59.46,58.01 L59.94,58.55 L60.42,59.11 L60.90,59.69 L61.38,60.29 L61.86,60.90 L62.34,61.54 L62.82,62.19 L63.29,62.85 L63.77,63.53 L64.25,64.23 L64.73,64.95 L65.21,65.68 L65.69,66.42 L66.17,67.18 L66.65,67.96 L67.13,68.75 L67.61,69.55 L68.09,70.37 L68.57,71.20 L69.05,72.05 L69.53,72.90 L70.01,73.77 L70.49,74.65 L70.97,75.54 L71.45,76.45 L71.93,77.36 L72.41,78.29 L72.89,79.22 L73.37,80.16 L73.85,81.12 L74.33,82.08 L74.81,83.05 L75.29,84.02 L75.77,85.01 L76.25,86.00 L76.73,87.00 L77.21,88.00 L77.69,89.01 L78.17,90.03 L78.65,91.05 L79.13,92.07 L79.61,93.10 L80.09,94.13 L80.57,95.17 L81.05,96.20 L81.53,97.24 L82.01,98.28 L82.49,99.32 L82.97,100.37 L83.45,101.41 L83.92,102.45 L84.40,103.49 L84.88,104.54 L85.36,105.58 L85.84,106.61 L86.32,107.65 L86.80,108.68 L87.28,109.71 L87.76,110.73 L88.24,111.75 L88.72,112.77 L89.20,113.78 L89.68,114.79 L90.16,115.79 L90.64,116.78 L91.12,117.77 L91.60,118.74 L92.08,119.72 L92.56,120.68 L93.04,121.63 L93.52,122.58 L94.00,123.52 L94.48,124.44 L94.96,125.36 L95.44,126.26 L95.92,127.16 L96.40,128.04 L96.88,128.91 L97.36,129.77 L97.84,130.62 L98.32,131.45 L98.80,132.27 L99.28,133.08 L99.76,133.87 L100.24,134.65 L100.72,135.41 L101.20,136.16 L101.68,136.90 L102.16,137.62 L102.64,138.32 L103.12,139.00 L103.60,139.67 L104.08,140.33 L104.55,140.96 L105.03,141.58 L105.51,142.18 L105.99,142.76 L106.47,143.33 L106.95,143.87 L107.43,144.40 L107.91,144.91 L108.39,145.40 L108.87,145.87 L109.35,146.32 L109.83,146.75 L110.31,147.16 L110.79,147.55 L111.27,147.92 L111.75,148.27 L112.23,148.60 L112.71,148.91 L113.19,149.20 L113.67,149.46 L114.15,149.71 L114.63,149.94 L115.11,150.14 L115.59,150.32 L116.07,150.48 L116.55,150.62 L117.03,150.74 L117.51,150.83 L117.99,150.91 L118.47,150.96 L118.95,150.99 L119.43,151.00 L119.91,150.99 L120.39,150.95 L120.87,150.90 L121.35,150.82 L121.83,150.72 L122.31,150.60 L122.79,150.45 L123.27,150.29 L123.75,150.10 L124.23,149.90 L124.71,149.67 L125.18,149.42 L125.66,149.15 L126.14,148.86 L126.62,148.54 L127.10,148.21 L127.58,147.86 L128.06,147.48 L128.54,147.09 L129.02,146.67 L129.50,146.24 L129.98,145.79 L130.46,145.31 L130.94,144.82 L131.42,144.31 L131.90,143.78 L132.38,143.23 L132.86,142.66 L133.34,142.07 L133.82,141.47 L134.30,140.85 L134.78,140.21 L135.26,139.56 L135.74,138.88 L136.22,138.19 L136.70,137.49 L137.18,136.77 L137.66,136.03 L138.14,135.28 L138.62,134.51 L139.10,133.73 L139.58,132.94 L140.06,132.13 L140.54,131.30 L141.02,130.47 L141.50,129.62 L141.98,128.76 L142.46,127.88 L142.94,127.00 L143.42,126.10 L143.90,125.19 L144.38,124.28 L144.86,123.35 L145.34,122.41 L145.82,121.46 L146.29,120.51 L146.77,119.54 L147.25,118.57 L147.73,117.59 L148.21,116.60 L148.69,115.61 L149.17,114.61 L149.65,113.60 L150.13,112.59 L150.61,111.57 L151.09,110.55 L151.57,109.53 L152.05,108.50 L152.53,107.46 L153.01,106.43 L153.49,105.39 L153.97,104.35 L154.45,103.31 L154.93,102.27 L155.41,101.22 L155.89,100.18 L156.37,99.14 L156.85,98.10 L157.33,97.06 L157.81,96.02 L158.29,94.98 L158.77,93.95 L159.25,92.92 L159.73,91.89 L160.21,90.86 L160.69,89.85 L161.17,88.83 L161.65,87.82 L162.13,86.82 L162.61,85.82 L163.09,84.83 L163.57,83.85 L164.05,82.87 L164.53,81.90 L165.01,80.94 L165.49,79.99 L165.97,79.05 L166.45,78.12 L166.92,77.20 L167.40,76.29 L167.88,75.38 L168.36,74.49 L168.84,73.62 L169.32,72.75 L169.80,71.89 L170.28,71.05 L170.76,70.22 L171.24,69.41 L171.72,68.61 L172.20,67.82 L172.68,67.05 L173.16,66.29 L173.64,65.55 L174.12,64.82 L174.60,64.11 L175.08,63.41 L175.56,62.73 L176.04,62.07 L176.52,61.42 L177.00,60.79 L177.48,60.18 L177.96,59.59 L178.44,59.01 L178.92,58.46 L179.40,57.92 L179.88,57.40 L180.36,56.90 L180.84,56.42 L181.32,55.95 L181.80,55.51 L182.28,55.09 L182.76,54.68 L183.24,54.30 L183.72,53.94 L184.20,53.60 L184.68,53.28 L185.16,52.97 L185.64,52.69 L186.12,52.44 L186.60,52.20 L187.08,51.98 L187.55,51.79 L188.03,51.61 L188.51,51.46 L188.99,51.33 L189.47,51.22 L189.95,51.13 L190.43,51.07 L190.91,51.03 L191.39,51.00 L191.87,51.00 L192.35,51.02 L192.83,51.07 L193.31,51.13 L193.79,51.22 L194.27,51.33 L194.75,51.46 L195.23,51.61 L195.71,51.78 L196.19,51.97 L196.67,52.19 L197.15,52.43 L197.63,52.69 L198.11,52.96 L198.59,53.26 L199.07,53.58 L199.55,53.93 L200.03,54.29 L200.51,54.67 L200.99,55.07 L201.47,55.49 L201.95,55.94 L202.43,56.40 L202.91,56.88 L203.39,57.38 L203.87,57.90 L204.35,58.44 L204.83,58.99 L205.31,59.57 L205.79,60.16 L206.27,60.77 L206.75,61.40 L207.23,62.04 L207.71,62.71 L208.18,63.39 L208.66,64.08 L209.14,64.79 L209.62,65.52 L210.10,66.26 L210.58,67.02 L211.06,67.79 L211.54,68.58 L212.02,69.38 L212.50,70.19 L212.98,71.02 L213.46,71.86 L213.94,72.72 L214.42,73.58 L214.90,74.46 L215.38,75.35 L215.86,76.25 L216.34,77.16 L216.82,78.09 L217.30,79.02 L217.78,79.96 L218.26,80.91 L218.74,81.87 L219.22,82.84 L219.70,83.81 L220.18,84.80 L220.66,85.79 L221.14,86.78 L221.62,87.79 L222.10,88.79 L222.58,89.81 L223.06,90.83 L223.54,91.85 L224.02,92.88 L224.50,93.91 L224.98,94.94 L225.46,95.98 L225.94,97.02 L226.42,98.06 L226.90,99.10 L227.38,100.14 L227.86,101.19 L228.34,102.23 L228.82,103.27 L229.29,104.31 L229.77,105.35 L230.25,106.39 L230.73,107.43 L231.21,108.46 L231.69,109.49 L232.17,110.51 L232.65,111.54 L233.13,112.55 L233.61,113.57 L234.09,114.57 L234.57,115.57 L235.05,116.57 L235.53,117.56 L236.01,118.54 L236.49,119.51 L236.97,120.47 L237.45,121.43 L237.93,122.38 L238.41,123.32 L238.89,124.24 L239.37,125.16 L239.85,126.07 L240.33,126.97 L240.81,127.85 L241.29,128.73 L241.77,129.59 L242.25,130.44 L242.73,131.27 L243.21,132.10 L243.69,132.91 L244.17,133.70 L244.65,134.48 L245.13,135.25 L245.61,136.00 L246.09,136.74 L246.57,137.46 L247.05,138.17 L247.53,138.86 L248.01,139.53 L248.49,140.19 L248.97,140.83 L249.45,141.45 L249.92,142.05 L250.40,142.64 L250.88,143.21 L251.36,143.76 L251.84,144.29 L252.32,144.80 L252.80,145.29 L253.28,145.77 L253.76,146.22 L254.24,146.66 L254.72,147.07 L255.20,147.47 L255.68,147.84 L256.16,148.20 L256.64,148.53 L257.12,148.85 L257.60,149.14 L258.08,149.41 L258.56,149.66 L259.04,149.89 L259.52,150.10 L260.00,150.28" style="stroke-width: 2px; stroke: rgb(74, 144, 226); stroke-opacity: 0.8;"/></g></g><g class="test-xtl" style="font-family: &quot;Open Sans&quot;, verdana, arial, sans-serif;"><text text-anchor="middle" font-size="11" dominant-baseline="hanging" stroke="none" fill="rgb(50,50,50)" fill-opacity="1" x="83.25663103256525" y="108">π</text><text text-anchor="middle" font-size="11" dominant-baseline="hanging" stroke="none" fill="rgb(50,50,50)" fill-opacity="1" x="155.5132620651305" y="108">2π</text><text text-anchor="middle" font-size="11" dominant-baseline="hanging" stroke="none" fill="rgb(50,50,50)" fill-opacity="1" x="227.76989309769576" y="108">3π</text><text text-anchor="middle" font-size="11" dominant-baseline="hanging" stroke="none" fill="rgb(50,50,50)" fill-opacity="1" x="3.0000000000000018" y="106">0</text></g><g class="test-ytl" style="font-family: &quot;Open Sans&quot;, verdana, arial, sans-serif;"><text text-anchor="end" dominant-baseline="middle" font-size="11" stroke="none" fill="rgb(50,50,50)" fill-opacity="1" x="3" y="151">-1</text><text text-anchor="end" dominant-baseline="middle" font-size="11" stroke="none" fill="rgb(50,50,50)" fill-opacity="1" x="3" y="51">1</text><text text-anchor="end" dominant-baseline="middle" font-size="11" stroke="none" fill="rgb(50,50,50)" fill-opacity="1" x="3" y="1">2</text></g><rect class="real" x="1" y="1" width="258" height="198" style="fill: transparent; stroke: none;"/></g></g></g><g class="arrow-line"><path class="connection real" stroke-dasharray="" d="  M310,160 L378,160" style="stroke: rgb(0, 0, 0); stroke-width: 1px; fill: none; fill-opacity: 1;"/><g stroke="#000" transform="matrix(-1,1.2246467991473532e-16,-1.2246467991473532e-16,-1,380,160)" style="stroke: rgb(0, 0, 0); stroke-width: 1px;"><path d=" M10.93,-3.29 Q4.96,-0.45 0,0 Q4.96,0.45 10.93,3.29"/></g></g><g class="arrow-line"><path class="connection real" stroke-dasharray="" d="  M480,80 L480,240" style="stroke: rgb(0, 0, 0); stroke-width: 1px; fill: none; fill-opacity: 1;"/></g><g class="arrow-line"><path class="connection real" stroke-dasharray="" d="  M560,160 L400,160" style="stroke: rgb(0, 0, 0); stroke-width: 1px; fill: none; fill-opacity: 1;"/></g><g class="arrow-line"><path class="connection real" stroke-dasharray="" d="  M480,120" style="stroke: rgb(218, 44, 0); stroke-opacity: 1; stroke-width: 1px; fill: none; fill-opacity: 1;"/><g stroke="rgb(218,44,0)" stroke-opacity="1" transform="matrix(0.7071067811865476,0.7071067811865476,-0.7071067811865476,0.7071067811865476,480,120)" style="stroke: rgb(218, 44, 0); stroke-width: 1px;"><path d=" M-5.59,0 L5.59,0 M0,5.59 L0,-5.59"/></g></g><g class="arrow-line"><path class="connection real" stroke-dasharray="" d="  M480,200" style="stroke: rgb(218, 44, 0); stroke-opacity: 1; stroke-width: 1px; fill: none; fill-opacity: 1;"/><g stroke="rgb(218,44,0)" stroke-opacity="1" transform="matrix(0.7071067811865476,0.7071067811865476,-0.7071067811865476,0.7071067811865476,480,200)" style="stroke: rgb(218, 44, 0); stroke-width: 1px;"><path d=" M-5.59,0 L5.59,0 M0,5.59 L0,-5.59"/></g></g><g/></g><g/><g/><g/></svg>
        <svg xmlns="http://www.w3.org/2000/svg" xmlns:xlink="http://www.w3.org/1999/xlink" width="660" height="300" style="width:660px;height:300px;font-family:Asana-Math, Asana;background:transparent;"><g><g><g><g transform="matrix(1,0,0,1,498.7166748046875,88.13336181640625)"><path transform="matrix(0.017,0,0,-0.017,0,0)" d="M614 588L614 516L645 516C645 568 654 621 664 668C616 685 526 709 433 709C206 709 22 571 22 344C22 117 184 -20 424 -20C485 -20 584 -1 642 34L669 84L661 94C615 60 529 34 458 34C381 34 314 53 261 89L261 627C303 652 355 667 416 667C492 667 614 632 614 588ZM215 127C160 184 129 263 129 360C129 452 158 535 215 591Z" stroke="rgb(0,0,0)" stroke-opacity="1" stroke-width="8" fill="rgb(0,0,0)" fill-opacity="1"></path></g></g><g><g><g><g><g transform="matrix(1,0,0,1,511.75,81.6166748046875)"><path transform="matrix(0.0119,0,0,-0.0119,0,0)" d="M16 23L16 -3C203 -3 203 0 239 0C275 0 275 -3 468 -3L468 82C353 77 307 81 122 77L304 270C401 373 431 428 431 503C431 618 353 689 226 689C154 689 105 669 56 619L39 483L68 483L81 529C97 587 133 612 200 612C286 612 341 558 341 473C341 398 299 324 186 204Z" stroke="rgb(0,0,0)" stroke-opacity="1" stroke-width="8" fill="rgb(0,0,0)" fill-opacity="1"></path></g></g></g></g></g></g></g><g><g><g><g transform="matrix(1,0,0,1,473.7166748046875,74.53335571289062)"><path transform="matrix(0.017,0,0,-0.017,0,0)" d="M394 -12C554 -12 671 181 673 325C674 363 660 458 607 458C592 458 562 441 548 434L548 423C593 392 607 338 606 284C605 189 542 17 425 17C366 17 362 73 363 119C365 185 380 261 403 324L393 324C372 317 350 309 328 304C323 217 294 16 174 16C111 16 100 81 100 129C102 278 168 388 306 443L306 463C152 428 40 300 25 137C9 -29 213 -49 295 47C316 3 344 -12 394 -12Z" stroke="rgb(0,0,0)" stroke-opacity="1" stroke-width="8" fill="rgb(0,0,0)" fill-opacity="1"></path></g></g></g></g><g><g><g><g transform="matrix(1,0,0,1,564.7166748046875,164.5333251953125)"><path transform="matrix(0.017,0,0,-0.017,0,0)" d="M171 -15C331 -15 431 100 434 257C436 343 410 361 345 404L345 407C398 407 457 403 511 411C518 431 521 451 524 474C485 453 364 467 313 457C150 424 28 329 28 153C28 48 59 -15 171 -15ZM367 267C367 168 329 13 203 13C111 13 103 112 104 182C105 292 143 412 274 412C359 412 367 328 367 267Z" stroke="rgb(0,0,0)" stroke-opacity="1" stroke-width="8" fill="rgb(0,0,0)" fill-opacity="1"></path></g></g></g></g></svg>
</svg>
