<svg xmlns="http://www.w3.org/2000/svg" xmlns:xlink="http://www.w3.org/1999/xlink" x="0" y="0" width="661.433349609375" height="301.433349609375" style="
        width:661.433349609375px;
        height:301.433349609375px;
        background: transparent;
        fill: none;
">
        
        
        <svg xmlns="http://www.w3.org/2000/svg" class="role-diagram-draw-area"><g class="shapes-region" style="stroke: black; fill: none;"><g class="composite-shape" data-amt="diagram/shapes/plot" transform="matrix(1,0,0,1,50,80)"><g><g><g class="test-xgi"><line x1="11.000000000000002" y1="0" x2="11.000000000000002" y2="200" fill="none" stroke="#c3c3c3" stroke-width="0.5"/><line x1="83.25663103256525" y1="0" x2="83.25663103256525" y2="200" fill="none" stroke="#c3c3c3" stroke-width="0.5"/><line x1="155.5132620651305" y1="0" x2="155.5132620651305" y2="200" fill="none" stroke="#c3c3c3" stroke-width="0.5"/><line x1="227.76989309769576" y1="0" x2="227.76989309769576" y2="200" fill="none" stroke="#c3c3c3" stroke-width="0.5"/></g><g class="test-ygi"><line x1="0" y1="151" x2="260" y2="151" fill="none" stroke="#c3c3c3" stroke-width="0.5"/><line x1="0" y1="101" x2="260" y2="101" fill="none" stroke="#c3c3c3" stroke-width="0.5"/><line x1="0" y1="51" x2="260" y2="51" fill="none" stroke="#c3c3c3" stroke-width="0.5"/><line x1="0" y1="1" x2="260" y2="1" fill="none" stroke="#c3c3c3" stroke-width="0.5"/></g></g><g><g class="test-xti" style="font-family: Asana-Math, Asana;"><line x1="0" y1="101" x2="256" y2="101" fill="none" stroke="rgb(50,50,50)" stroke-opacity="1" stroke-width="1"/><line x1="83.25663103256525" y1="97" x2="83.25663103256525" y2="105" fill="none" stroke="rgb(50,50,50)" stroke-opacity="1" stroke-width="1"/><line x1="155.5132620651305" y1="97" x2="155.5132620651305" y2="105" fill="none" stroke="rgb(50,50,50)" stroke-opacity="1" stroke-width="1"/><line x1="227.76989309769576" y1="97" x2="227.76989309769576" y2="105" fill="none" stroke="rgb(50,50,50)" stroke-opacity="1" stroke-width="1"/><path d="M251,97.4 L259,101 L251,104.6 Z" stroke="none" stroke-width="1" fill="rgb(50,50,50)" fill-opacity="1"/></g><g class="test-yti" style="font-family: Asana-Math, Asana;"><line x1="11" y1="4" x2="11" y2="200" fill="none" stroke="rgb(50,50,50)" stroke-opacity="1" stroke-width="1"/><line x1="7" y1="151" x2="15" y2="151" fill="none" stroke="rgb(50,50,50)" stroke-opacity="1" stroke-width="1"/><line x1="7" y1="51" x2="15" y2="51" fill="none" stroke="rgb(50,50,50)" stroke-opacity="1" stroke-width="1"/><line x1="7" y1="1" x2="15" y2="1" fill="none" stroke="rgb(50,50,50)" stroke-opacity="1" stroke-width="1"/><path d="M7.4,9 L11,1 L14.6,9 Z" stroke="none" stroke-width="1" fill="rgb(50,50,50)" fill-opacity="1"/></g><g class="test-plot-expression"><defs><clipPath id="cp3m6tp562i"><rect x="1" y="1" width="258" height="198"/></clipPath></defs><g clip-path="url(#cp3m6tp562i)"><path d=" M11.00,101.00 L11.48,99.97 L11.96,98.96 L12.44,97.97 L12.92,97.00 L13.40,96.06 L13.88,95.14 L14.36,94.24 L14.84,93.36 L15.32,92.50 L15.80,91.67 L16.28,90.86 L16.76,90.07 L17.24,89.31 L17.72,88.56 L18.20,87.84 L18.68,87.14 L19.16,86.46 L19.64,85.80 L20.12,85.17 L20.60,84.55 L21.08,83.96 L21.55,83.39 L22.03,82.84 L22.51,82.32 L22.99,81.81 L23.47,81.32 L23.95,80.86 L24.43,80.41 L24.91,79.99 L25.39,79.58 L25.87,79.20 L26.35,78.83 L26.83,78.49 L27.31,78.16 L27.79,77.85 L28.27,77.56 L28.75,77.29 L29.23,77.04 L29.71,76.81 L30.19,76.59 L30.67,76.39 L31.15,76.21 L31.63,76.05 L32.11,75.90 L32.59,75.77 L33.07,75.66 L33.55,75.56 L34.03,75.48 L34.51,75.41 L34.99,75.36 L35.47,75.32 L35.95,75.30 L36.43,75.29 L36.91,75.30 L37.39,75.32 L37.87,75.35 L38.35,75.39 L38.83,75.45 L39.31,75.53 L39.79,75.61 L40.27,75.70 L40.75,75.81 L41.23,75.93 L41.71,76.06 L42.18,76.20 L42.66,76.35 L43.14,76.51 L43.62,76.68 L44.10,76.86 L44.58,77.05 L45.06,77.25 L45.54,77.46 L46.02,77.68 L46.50,77.90 L46.98,78.13 L47.46,78.37 L47.94,78.62 L48.42,78.87 L48.90,79.13 L49.38,79.40 L49.86,79.67 L50.34,79.95 L50.82,80.23 L51.30,80.52 L51.78,80.82 L52.26,81.12 L52.74,81.42 L53.22,81.73 L53.70,82.04 L54.18,82.35 L54.66,82.67 L55.14,83.00 L55.62,83.32 L56.10,83.65 L56.58,83.98 L57.06,84.31 L57.54,84.65 L58.02,84.99 L58.50,85.33 L58.98,85.67 L59.46,86.01 L59.94,86.35 L60.42,86.69 L60.90,87.04 L61.38,87.38 L61.86,87.73 L62.34,88.07 L62.82,88.42 L63.29,88.76 L63.77,89.10 L64.25,89.45 L64.73,89.79 L65.21,90.13 L65.69,90.47 L66.17,90.81 L66.65,91.15 L67.13,91.48 L67.61,91.82 L68.09,92.15 L68.57,92.48 L69.05,92.80 L69.53,93.13 L70.01,93.45 L70.49,93.77 L70.97,94.09 L71.45,94.40 L71.93,94.71 L72.41,95.02 L72.89,95.33 L73.37,95.63 L73.85,95.93 L74.33,96.22 L74.81,96.52 L75.29,96.80 L75.77,97.09 L76.25,97.37 L76.73,97.65 L77.21,97.92 L77.69,98.19 L78.17,98.45 L78.65,98.71 L79.13,98.97 L79.61,99.22 L80.09,99.47 L80.57,99.71 L81.05,99.95 L81.53,100.19 L82.01,100.42 L82.49,100.65 L82.97,100.87 L83.45,101.08 L83.92,101.30 L84.40,101.51 L84.88,101.71 L85.36,101.91 L85.84,102.10 L86.32,102.29 L86.80,102.48 L87.28,102.66 L87.76,102.83 L88.24,103.01 L88.72,103.17 L89.20,103.33 L89.68,103.49 L90.16,103.65 L90.64,103.79 L91.12,103.94 L91.60,104.08 L92.08,104.21 L92.56,104.34 L93.04,104.47 L93.52,104.59 L94.00,104.71 L94.48,104.82 L94.96,104.93 L95.44,105.03 L95.92,105.13 L96.40,105.22 L96.88,105.32 L97.36,105.40 L97.84,105.48 L98.32,105.56 L98.80,105.64 L99.28,105.71 L99.76,105.77 L100.24,105.84 L100.72,105.89 L101.20,105.95 L101.68,106.00 L102.16,106.05 L102.64,106.09 L103.12,106.13 L103.60,106.17 L104.08,106.20 L104.55,106.23 L105.03,106.25 L105.51,106.28 L105.99,106.30 L106.47,106.31 L106.95,106.32 L107.43,106.33 L107.91,106.34 L108.39,106.34 L108.87,106.34 L109.35,106.34 L109.83,106.34 L110.31,106.33 L110.79,106.32 L111.27,106.31 L111.75,106.29 L112.23,106.27 L112.71,106.25 L113.19,106.23 L113.67,106.20 L114.15,106.17 L114.63,106.14 L115.11,106.11 L115.59,106.08 L116.07,106.04 L116.55,106.00 L117.03,105.96 L117.51,105.92 L117.99,105.88 L118.47,105.83 L118.95,105.78 L119.43,105.73 L119.91,105.68 L120.39,105.63 L120.87,105.58 L121.35,105.52 L121.83,105.47 L122.31,105.41 L122.79,105.35 L123.27,105.29 L123.75,105.23 L124.23,105.17 L124.71,105.11 L125.18,105.05 L125.66,104.98 L126.14,104.92 L126.62,104.85 L127.10,104.78 L127.58,104.72 L128.06,104.65 L128.54,104.58 L129.02,104.51 L129.50,104.44 L129.98,104.37 L130.46,104.30 L130.94,104.23 L131.42,104.16 L131.90,104.09 L132.38,104.02 L132.86,103.95 L133.34,103.87 L133.82,103.80 L134.30,103.73 L134.78,103.66 L135.26,103.59 L135.74,103.52 L136.22,103.44 L136.70,103.37 L137.18,103.30 L137.66,103.23 L138.14,103.16 L138.62,103.09 L139.10,103.02 L139.58,102.95 L140.06,102.88 L140.54,102.81 L141.02,102.75 L141.50,102.68 L141.98,102.61 L142.46,102.54 L142.94,102.48 L143.42,102.41 L143.90,102.35 L144.38,102.28 L144.86,102.22 L145.34,102.15 L145.82,102.09 L146.29,102.03 L146.77,101.97 L147.25,101.91 L147.73,101.85 L148.21,101.79 L148.69,101.73 L149.17,101.67 L149.65,101.62 L150.13,101.56 L150.61,101.51 L151.09,101.45 L151.57,101.40 L152.05,101.35 L152.53,101.30 L153.01,101.25 L153.49,101.20 L153.97,101.15 L154.45,101.10 L154.93,101.06 L155.41,101.01 L155.89,100.96 L156.37,100.92 L156.85,100.88 L157.33,100.84 L157.81,100.80 L158.29,100.76 L158.77,100.72 L159.25,100.68 L159.73,100.64 L160.21,100.60 L160.69,100.57 L161.17,100.53 L161.65,100.50 L162.13,100.47 L162.61,100.44 L163.09,100.41 L163.57,100.38 L164.05,100.35 L164.53,100.32 L165.01,100.29 L165.49,100.27 L165.97,100.24 L166.45,100.22 L166.92,100.20 L167.40,100.18 L167.88,100.15 L168.36,100.13 L168.84,100.11 L169.32,100.10 L169.80,100.08 L170.28,100.06 L170.76,100.05 L171.24,100.03 L171.72,100.02 L172.20,100.00 L172.68,99.99 L173.16,99.98 L173.64,99.97 L174.12,99.96 L174.60,99.95 L175.08,99.94 L175.56,99.93 L176.04,99.92 L176.52,99.92 L177.00,99.91 L177.48,99.91 L177.96,99.90 L178.44,99.90 L178.92,99.89 L179.40,99.89 L179.88,99.89 L180.36,99.89 L180.84,99.89 L181.32,99.89 L181.80,99.89 L182.28,99.89 L182.76,99.89 L183.24,99.90 L183.72,99.90 L184.20,99.90 L184.68,99.91 L185.16,99.91 L185.64,99.92 L186.12,99.92 L186.60,99.93 L187.08,99.93 L187.55,99.94 L188.03,99.95 L188.51,99.96 L188.99,99.96 L189.47,99.97 L189.95,99.98 L190.43,99.99 L190.91,100.00 L191.39,100.01 L191.87,100.02 L192.35,100.03 L192.83,100.04 L193.31,100.05 L193.79,100.06 L194.27,100.08 L194.75,100.09 L195.23,100.10 L195.71,100.11 L196.19,100.13 L196.67,100.14 L197.15,100.15 L197.63,100.16 L198.11,100.18 L198.59,100.19 L199.07,100.21 L199.55,100.22 L200.03,100.23 L200.51,100.25 L200.99,100.26 L201.47,100.28 L201.95,100.29 L202.43,100.30 L202.91,100.32 L203.39,100.33 L203.87,100.35 L204.35,100.36 L204.83,100.38 L205.31,100.39 L205.79,100.41 L206.27,100.42 L206.75,100.44 L207.23,100.45 L207.71,100.47 L208.18,100.48 L208.66,100.50 L209.14,100.51 L209.62,100.53 L210.10,100.54 L210.58,100.56 L211.06,100.57 L211.54,100.59 L212.02,100.60 L212.50,100.61 L212.98,100.63 L213.46,100.64 L213.94,100.66 L214.42,100.67 L214.90,100.68 L215.38,100.70 L215.86,100.71 L216.34,100.73 L216.82,100.74 L217.30,100.75 L217.78,100.77 L218.26,100.78 L218.74,100.79 L219.22,100.80 L219.70,100.82 L220.18,100.83 L220.66,100.84 L221.14,100.85 L221.62,100.86 L222.10,100.88 L222.58,100.89 L223.06,100.90 L223.54,100.91 L224.02,100.92 L224.50,100.93 L224.98,100.94 L225.46,100.95 L225.94,100.96 L226.42,100.97 L226.90,100.98 L227.38,100.99 L227.86,101.00 L228.34,101.01 L228.82,101.02 L229.29,101.03 L229.77,101.04 L230.25,101.05 L230.73,101.05 L231.21,101.06 L231.69,101.07 L232.17,101.08 L232.65,101.09 L233.13,101.09 L233.61,101.10 L234.09,101.11 L234.57,101.11 L235.05,101.12 L235.53,101.13 L236.01,101.13 L236.49,101.14 L236.97,101.14 L237.45,101.15 L237.93,101.15 L238.41,101.16 L238.89,101.16 L239.37,101.17 L239.85,101.17 L240.33,101.18 L240.81,101.18 L241.29,101.19 L241.77,101.19 L242.25,101.19 L242.73,101.20 L243.21,101.20 L243.69,101.20 L244.17,101.21 L244.65,101.21 L245.13,101.21 L245.61,101.21 L246.09,101.22 L246.57,101.22 L247.05,101.22 L247.53,101.22 L248.01,101.22 L248.49,101.22 L248.97,101.23 L249.45,101.23 L249.92,101.23 L250.40,101.23 L250.88,101.23 L251.36,101.23 L251.84,101.23 L252.32,101.23 L252.80,101.23 L253.28,101.23 L253.76,101.23 L254.24,101.23 L254.72,101.23 L255.20,101.23 L255.68,101.23 L256.16,101.23 L256.64,101.23 L257.12,101.23 L257.60,101.23 L258.08,101.23 L258.56,101.22 L259.04,101.22 L259.52,101.22 L260.00,101.22" style="stroke-width: 2px; stroke: rgb(74, 144, 226); stroke-opacity: 0.8;"/><path d=" M11.00,51.00 L11.48,51.52 L11.96,52.03 L12.44,52.54 L12.92,53.04 L13.40,53.54 L13.88,54.03 L14.36,54.52 L14.84,55.00 L15.32,55.48 L15.80,55.95 L16.28,56.42 L16.76,56.88 L17.24,57.34 L17.72,57.79 L18.20,58.24 L18.68,58.68 L19.16,59.12 L19.64,59.56 L20.12,59.99 L20.60,60.41 L21.08,60.83 L21.55,61.25 L22.03,61.66 L22.51,62.07 L22.99,62.48 L23.47,62.88 L23.95,63.27 L24.43,63.66 L24.91,64.05 L25.39,64.43 L25.87,64.81 L26.35,65.19 L26.83,65.56 L27.31,65.93 L27.79,66.29 L28.27,66.65 L28.75,67.01 L29.23,67.36 L29.71,67.71 L30.19,68.06 L30.67,68.40 L31.15,68.74 L31.63,69.07 L32.11,69.40 L32.59,69.73 L33.07,70.05 L33.55,70.37 L34.03,70.69 L34.51,71.01 L34.99,71.32 L35.47,71.63 L35.95,71.93 L36.43,72.23 L36.91,72.53 L37.39,72.83 L37.87,73.12 L38.35,73.41 L38.83,73.69 L39.31,73.98 L39.79,74.26 L40.27,74.54 L40.75,74.81 L41.23,75.08 L41.71,75.35 L42.18,75.62 L42.66,75.88 L43.14,76.14 L43.62,76.40 L44.10,76.65 L44.58,76.91 L45.06,77.16 L45.54,77.40 L46.02,77.65 L46.50,77.89 L46.98,78.13 L47.46,78.37 L47.94,78.60 L48.42,78.84 L48.90,79.07 L49.38,79.29 L49.86,79.52 L50.34,79.74 L50.82,79.96 L51.30,80.18 L51.78,80.40 L52.26,80.61 L52.74,80.82 L53.22,81.03 L53.70,81.24 L54.18,81.44 L54.66,81.65 L55.14,81.85 L55.62,82.05 L56.10,82.24 L56.58,82.44 L57.06,82.63 L57.54,82.82 L58.02,83.01 L58.50,83.20 L58.98,83.38 L59.46,83.56 L59.94,83.74 L60.42,83.92 L60.90,84.10 L61.38,84.28 L61.86,84.45 L62.34,84.62 L62.82,84.79 L63.29,84.96 L63.77,85.12 L64.25,85.29 L64.73,85.45 L65.21,85.61 L65.69,85.77 L66.17,85.93 L66.65,86.09 L67.13,86.24 L67.61,86.40 L68.09,86.55 L68.57,86.70 L69.05,86.85 L69.53,86.99 L70.01,87.14 L70.49,87.28 L70.97,87.42 L71.45,87.56 L71.93,87.70 L72.41,87.84 L72.89,87.98 L73.37,88.11 L73.85,88.25 L74.33,88.38 L74.81,88.51 L75.29,88.64 L75.77,88.77 L76.25,88.90 L76.73,89.02 L77.21,89.15 L77.69,89.27 L78.17,89.39 L78.65,89.51 L79.13,89.63 L79.61,89.75 L80.09,89.86 L80.57,89.98 L81.05,90.09 L81.53,90.21 L82.01,90.32 L82.49,90.43 L82.97,90.54 L83.45,90.65 L83.92,90.76 L84.40,90.86 L84.88,90.97 L85.36,91.07 L85.84,91.17 L86.32,91.28 L86.80,91.38 L87.28,91.48 L87.76,91.58 L88.24,91.67 L88.72,91.77 L89.20,91.87 L89.68,91.96 L90.16,92.05 L90.64,92.15 L91.12,92.24 L91.60,92.33 L92.08,92.42 L92.56,92.51 L93.04,92.60 L93.52,92.68 L94.00,92.77 L94.48,92.86 L94.96,92.94 L95.44,93.02 L95.92,93.11 L96.40,93.19 L96.88,93.27 L97.36,93.35 L97.84,93.43 L98.32,93.51 L98.80,93.59 L99.28,93.66 L99.76,93.74 L100.24,93.81 L100.72,93.89 L101.20,93.96 L101.68,94.04 L102.16,94.11 L102.64,94.18 L103.12,94.25 L103.60,94.32 L104.08,94.39 L104.55,94.46 L105.03,94.53 L105.51,94.59 L105.99,94.66 L106.47,94.73 L106.95,94.79 L107.43,94.85 L107.91,94.92 L108.39,94.98 L108.87,95.04 L109.35,95.11 L109.83,95.17 L110.31,95.23 L110.79,95.29 L111.27,95.35 L111.75,95.41 L112.23,95.46 L112.71,95.52 L113.19,95.58 L113.67,95.63 L114.15,95.69 L114.63,95.74 L115.11,95.80 L115.59,95.85 L116.07,95.91 L116.55,95.96 L117.03,96.01 L117.51,96.06 L117.99,96.11 L118.47,96.17 L118.95,96.22 L119.43,96.27 L119.91,96.31 L120.39,96.36 L120.87,96.41 L121.35,96.46 L121.83,96.51 L122.31,96.55 L122.79,96.60 L123.27,96.64 L123.75,96.69 L124.23,96.73 L124.71,96.78 L125.18,96.82 L125.66,96.87 L126.14,96.91 L126.62,96.95 L127.10,96.99 L127.58,97.03 L128.06,97.08 L128.54,97.12 L129.02,97.16 L129.50,97.20 L129.98,97.24 L130.46,97.28 L130.94,97.31 L131.42,97.35 L131.90,97.39 L132.38,97.43 L132.86,97.46 L133.34,97.50 L133.82,97.54 L134.30,97.57 L134.78,97.61 L135.26,97.64 L135.74,97.68 L136.22,97.71 L136.70,97.75 L137.18,97.78 L137.66,97.81 L138.14,97.85 L138.62,97.88 L139.10,97.91 L139.58,97.94 L140.06,97.98 L140.54,98.01 L141.02,98.04 L141.50,98.07 L141.98,98.10 L142.46,98.13 L142.94,98.16 L143.42,98.19 L143.90,98.22 L144.38,98.25 L144.86,98.28 L145.34,98.30 L145.82,98.33 L146.29,98.36 L146.77,98.39 L147.25,98.41 L147.73,98.44 L148.21,98.47 L148.69,98.49 L149.17,98.52 L149.65,98.55 L150.13,98.57 L150.61,98.60 L151.09,98.62 L151.57,98.65 L152.05,98.67 L152.53,98.69 L153.01,98.72 L153.49,98.74 L153.97,98.77 L154.45,98.79 L154.93,98.81 L155.41,98.83 L155.89,98.86 L156.37,98.88 L156.85,98.90 L157.33,98.92 L157.81,98.94 L158.29,98.97 L158.77,98.99 L159.25,99.01 L159.73,99.03 L160.21,99.05 L160.69,99.07 L161.17,99.09 L161.65,99.11 L162.13,99.13 L162.61,99.15 L163.09,99.17 L163.57,99.19 L164.05,99.21 L164.53,99.22 L165.01,99.24 L165.49,99.26 L165.97,99.28 L166.45,99.30 L166.92,99.31 L167.40,99.33 L167.88,99.35 L168.36,99.37 L168.84,99.38 L169.32,99.40 L169.80,99.42 L170.28,99.43 L170.76,99.45 L171.24,99.47 L171.72,99.48 L172.20,99.50 L172.68,99.51 L173.16,99.53 L173.64,99.54 L174.12,99.56 L174.60,99.57 L175.08,99.59 L175.56,99.60 L176.04,99.62 L176.52,99.63 L177.00,99.65 L177.48,99.66 L177.96,99.67 L178.44,99.69 L178.92,99.70 L179.40,99.71 L179.88,99.73 L180.36,99.74 L180.84,99.75 L181.32,99.77 L181.80,99.78 L182.28,99.79 L182.76,99.80 L183.24,99.82 L183.72,99.83 L184.20,99.84 L184.68,99.85 L185.16,99.87 L185.64,99.88 L186.12,99.89 L186.60,99.90 L187.08,99.91 L187.55,99.92 L188.03,99.93 L188.51,99.95 L188.99,99.96 L189.47,99.97 L189.95,99.98 L190.43,99.99 L190.91,100.00 L191.39,100.01 L191.87,100.02 L192.35,100.03 L192.83,100.04 L193.31,100.05 L193.79,100.06 L194.27,100.07 L194.75,100.08 L195.23,100.09 L195.71,100.10 L196.19,100.11 L196.67,100.12 L197.15,100.13 L197.63,100.14 L198.11,100.14 L198.59,100.15 L199.07,100.16 L199.55,100.17 L200.03,100.18 L200.51,100.19 L200.99,100.20 L201.47,100.20 L201.95,100.21 L202.43,100.22 L202.91,100.23 L203.39,100.24 L203.87,100.24 L204.35,100.25 L204.83,100.26 L205.31,100.27 L205.79,100.28 L206.27,100.28 L206.75,100.29 L207.23,100.30 L207.71,100.31 L208.18,100.31 L208.66,100.32 L209.14,100.33 L209.62,100.33 L210.10,100.34 L210.58,100.35 L211.06,100.35 L211.54,100.36 L212.02,100.37 L212.50,100.37 L212.98,100.38 L213.46,100.39 L213.94,100.39 L214.42,100.40 L214.90,100.41 L215.38,100.41 L215.86,100.42 L216.34,100.42 L216.82,100.43 L217.30,100.44 L217.78,100.44 L218.26,100.45 L218.74,100.45 L219.22,100.46 L219.70,100.46 L220.18,100.47 L220.66,100.48 L221.14,100.48 L221.62,100.49 L222.10,100.49 L222.58,100.50 L223.06,100.50 L223.54,100.51 L224.02,100.51 L224.50,100.52 L224.98,100.52 L225.46,100.53 L225.94,100.53 L226.42,100.54 L226.90,100.54 L227.38,100.55 L227.86,100.55 L228.34,100.56 L228.82,100.56 L229.29,100.57 L229.77,100.57 L230.25,100.57 L230.73,100.58 L231.21,100.58 L231.69,100.59 L232.17,100.59 L232.65,100.60 L233.13,100.60 L233.61,100.60 L234.09,100.61 L234.57,100.61 L235.05,100.62 L235.53,100.62 L236.01,100.62 L236.49,100.63 L236.97,100.63 L237.45,100.64 L237.93,100.64 L238.41,100.64 L238.89,100.65 L239.37,100.65 L239.85,100.65 L240.33,100.66 L240.81,100.66 L241.29,100.67 L241.77,100.67 L242.25,100.67 L242.73,100.68 L243.21,100.68 L243.69,100.68 L244.17,100.69 L244.65,100.69 L245.13,100.69 L245.61,100.70 L246.09,100.70 L246.57,100.70 L247.05,100.70 L247.53,100.71 L248.01,100.71 L248.49,100.71 L248.97,100.72 L249.45,100.72 L249.92,100.72 L250.40,100.73 L250.88,100.73 L251.36,100.73 L251.84,100.73 L252.32,100.74 L252.80,100.74 L253.28,100.74 L253.76,100.74 L254.24,100.75 L254.72,100.75 L255.20,100.75 L255.68,100.76 L256.16,100.76 L256.64,100.76 L257.12,100.76 L257.60,100.77 L258.08,100.77 L258.56,100.77 L259.04,100.77 L259.52,100.77 L260.00,100.78" style="stroke-width: 2px; stroke: rgb(218, 44, 0); stroke-opacity: 0.6; stroke-dasharray: 7.5px, 6px;"/><path d=" M11.00,151.00 L11.48,150.48 L11.96,149.97 L12.44,149.46 L12.92,148.96 L13.40,148.46 L13.88,147.97 L14.36,147.48 L14.84,147.00 L15.32,146.52 L15.80,146.05 L16.28,145.58 L16.76,145.12 L17.24,144.66 L17.72,144.21 L18.20,143.76 L18.68,143.32 L19.16,142.88 L19.64,142.44 L20.12,142.01 L20.60,141.59 L21.08,141.17 L21.55,140.75 L22.03,140.34 L22.51,139.93 L22.99,139.52 L23.47,139.12 L23.95,138.73 L24.43,138.34 L24.91,137.95 L25.39,137.57 L25.87,137.19 L26.35,136.81 L26.83,136.44 L27.31,136.07 L27.79,135.71 L28.27,135.35 L28.75,134.99 L29.23,134.64 L29.71,134.29 L30.19,133.94 L30.67,133.60 L31.15,133.26 L31.63,132.93 L32.11,132.60 L32.59,132.27 L33.07,131.95 L33.55,131.63 L34.03,131.31 L34.51,130.99 L34.99,130.68 L35.47,130.37 L35.95,130.07 L36.43,129.77 L36.91,129.47 L37.39,129.17 L37.87,128.88 L38.35,128.59 L38.83,128.31 L39.31,128.02 L39.79,127.74 L40.27,127.46 L40.75,127.19 L41.23,126.92 L41.71,126.65 L42.18,126.38 L42.66,126.12 L43.14,125.86 L43.62,125.60 L44.10,125.35 L44.58,125.09 L45.06,124.84 L45.54,124.60 L46.02,124.35 L46.50,124.11 L46.98,123.87 L47.46,123.63 L47.94,123.40 L48.42,123.16 L48.90,122.93 L49.38,122.71 L49.86,122.48 L50.34,122.26 L50.82,122.04 L51.30,121.82 L51.78,121.60 L52.26,121.39 L52.74,121.18 L53.22,120.97 L53.70,120.76 L54.18,120.56 L54.66,120.35 L55.14,120.15 L55.62,119.95 L56.10,119.76 L56.58,119.56 L57.06,119.37 L57.54,119.18 L58.02,118.99 L58.50,118.80 L58.98,118.62 L59.46,118.44 L59.94,118.26 L60.42,118.08 L60.90,117.90 L61.38,117.72 L61.86,117.55 L62.34,117.38 L62.82,117.21 L63.29,117.04 L63.77,116.88 L64.25,116.71 L64.73,116.55 L65.21,116.39 L65.69,116.23 L66.17,116.07 L66.65,115.91 L67.13,115.76 L67.61,115.60 L68.09,115.45 L68.57,115.30 L69.05,115.15 L69.53,115.01 L70.01,114.86 L70.49,114.72 L70.97,114.58 L71.45,114.44 L71.93,114.30 L72.41,114.16 L72.89,114.02 L73.37,113.89 L73.85,113.75 L74.33,113.62 L74.81,113.49 L75.29,113.36 L75.77,113.23 L76.25,113.10 L76.73,112.98 L77.21,112.85 L77.69,112.73 L78.17,112.61 L78.65,112.49 L79.13,112.37 L79.61,112.25 L80.09,112.14 L80.57,112.02 L81.05,111.91 L81.53,111.79 L82.01,111.68 L82.49,111.57 L82.97,111.46 L83.45,111.35 L83.92,111.24 L84.40,111.14 L84.88,111.03 L85.36,110.93 L85.84,110.83 L86.32,110.72 L86.80,110.62 L87.28,110.52 L87.76,110.42 L88.24,110.33 L88.72,110.23 L89.20,110.13 L89.68,110.04 L90.16,109.95 L90.64,109.85 L91.12,109.76 L91.60,109.67 L92.08,109.58 L92.56,109.49 L93.04,109.40 L93.52,109.32 L94.00,109.23 L94.48,109.14 L94.96,109.06 L95.44,108.98 L95.92,108.89 L96.40,108.81 L96.88,108.73 L97.36,108.65 L97.84,108.57 L98.32,108.49 L98.80,108.41 L99.28,108.34 L99.76,108.26 L100.24,108.19 L100.72,108.11 L101.20,108.04 L101.68,107.96 L102.16,107.89 L102.64,107.82 L103.12,107.75 L103.60,107.68 L104.08,107.61 L104.55,107.54 L105.03,107.47 L105.51,107.41 L105.99,107.34 L106.47,107.27 L106.95,107.21 L107.43,107.15 L107.91,107.08 L108.39,107.02 L108.87,106.96 L109.35,106.89 L109.83,106.83 L110.31,106.77 L110.79,106.71 L111.27,106.65 L111.75,106.59 L112.23,106.54 L112.71,106.48 L113.19,106.42 L113.67,106.37 L114.15,106.31 L114.63,106.26 L115.11,106.20 L115.59,106.15 L116.07,106.09 L116.55,106.04 L117.03,105.99 L117.51,105.94 L117.99,105.89 L118.47,105.83 L118.95,105.78 L119.43,105.73 L119.91,105.69 L120.39,105.64 L120.87,105.59 L121.35,105.54 L121.83,105.49 L122.31,105.45 L122.79,105.40 L123.27,105.36 L123.75,105.31 L124.23,105.27 L124.71,105.22 L125.18,105.18 L125.66,105.13 L126.14,105.09 L126.62,105.05 L127.10,105.01 L127.58,104.97 L128.06,104.92 L128.54,104.88 L129.02,104.84 L129.50,104.80 L129.98,104.76 L130.46,104.72 L130.94,104.69 L131.42,104.65 L131.90,104.61 L132.38,104.57 L132.86,104.54 L133.34,104.50 L133.82,104.46 L134.30,104.43 L134.78,104.39 L135.26,104.36 L135.74,104.32 L136.22,104.29 L136.70,104.25 L137.18,104.22 L137.66,104.19 L138.14,104.15 L138.62,104.12 L139.10,104.09 L139.58,104.06 L140.06,104.02 L140.54,103.99 L141.02,103.96 L141.50,103.93 L141.98,103.90 L142.46,103.87 L142.94,103.84 L143.42,103.81 L143.90,103.78 L144.38,103.75 L144.86,103.72 L145.34,103.70 L145.82,103.67 L146.29,103.64 L146.77,103.61 L147.25,103.59 L147.73,103.56 L148.21,103.53 L148.69,103.51 L149.17,103.48 L149.65,103.45 L150.13,103.43 L150.61,103.40 L151.09,103.38 L151.57,103.35 L152.05,103.33 L152.53,103.31 L153.01,103.28 L153.49,103.26 L153.97,103.23 L154.45,103.21 L154.93,103.19 L155.41,103.17 L155.89,103.14 L156.37,103.12 L156.85,103.10 L157.33,103.08 L157.81,103.06 L158.29,103.03 L158.77,103.01 L159.25,102.99 L159.73,102.97 L160.21,102.95 L160.69,102.93 L161.17,102.91 L161.65,102.89 L162.13,102.87 L162.61,102.85 L163.09,102.83 L163.57,102.81 L164.05,102.79 L164.53,102.78 L165.01,102.76 L165.49,102.74 L165.97,102.72 L166.45,102.70 L166.92,102.69 L167.40,102.67 L167.88,102.65 L168.36,102.63 L168.84,102.62 L169.32,102.60 L169.80,102.58 L170.28,102.57 L170.76,102.55 L171.24,102.53 L171.72,102.52 L172.20,102.50 L172.68,102.49 L173.16,102.47 L173.64,102.46 L174.12,102.44 L174.60,102.43 L175.08,102.41 L175.56,102.40 L176.04,102.38 L176.52,102.37 L177.00,102.35 L177.48,102.34 L177.96,102.33 L178.44,102.31 L178.92,102.30 L179.40,102.29 L179.88,102.27 L180.36,102.26 L180.84,102.25 L181.32,102.23 L181.80,102.22 L182.28,102.21 L182.76,102.20 L183.24,102.18 L183.72,102.17 L184.20,102.16 L184.68,102.15 L185.16,102.13 L185.64,102.12 L186.12,102.11 L186.60,102.10 L187.08,102.09 L187.55,102.08 L188.03,102.07 L188.51,102.05 L188.99,102.04 L189.47,102.03 L189.95,102.02 L190.43,102.01 L190.91,102.00 L191.39,101.99 L191.87,101.98 L192.35,101.97 L192.83,101.96 L193.31,101.95 L193.79,101.94 L194.27,101.93 L194.75,101.92 L195.23,101.91 L195.71,101.90 L196.19,101.89 L196.67,101.88 L197.15,101.87 L197.63,101.86 L198.11,101.86 L198.59,101.85 L199.07,101.84 L199.55,101.83 L200.03,101.82 L200.51,101.81 L200.99,101.80 L201.47,101.80 L201.95,101.79 L202.43,101.78 L202.91,101.77 L203.39,101.76 L203.87,101.76 L204.35,101.75 L204.83,101.74 L205.31,101.73 L205.79,101.72 L206.27,101.72 L206.75,101.71 L207.23,101.70 L207.71,101.69 L208.18,101.69 L208.66,101.68 L209.14,101.67 L209.62,101.67 L210.10,101.66 L210.58,101.65 L211.06,101.65 L211.54,101.64 L212.02,101.63 L212.50,101.63 L212.98,101.62 L213.46,101.61 L213.94,101.61 L214.42,101.60 L214.90,101.59 L215.38,101.59 L215.86,101.58 L216.34,101.58 L216.82,101.57 L217.30,101.56 L217.78,101.56 L218.26,101.55 L218.74,101.55 L219.22,101.54 L219.70,101.54 L220.18,101.53 L220.66,101.52 L221.14,101.52 L221.62,101.51 L222.10,101.51 L222.58,101.50 L223.06,101.50 L223.54,101.49 L224.02,101.49 L224.50,101.48 L224.98,101.48 L225.46,101.47 L225.94,101.47 L226.42,101.46 L226.90,101.46 L227.38,101.45 L227.86,101.45 L228.34,101.44 L228.82,101.44 L229.29,101.43 L229.77,101.43 L230.25,101.43 L230.73,101.42 L231.21,101.42 L231.69,101.41 L232.17,101.41 L232.65,101.40 L233.13,101.40 L233.61,101.40 L234.09,101.39 L234.57,101.39 L235.05,101.38 L235.53,101.38 L236.01,101.38 L236.49,101.37 L236.97,101.37 L237.45,101.36 L237.93,101.36 L238.41,101.36 L238.89,101.35 L239.37,101.35 L239.85,101.35 L240.33,101.34 L240.81,101.34 L241.29,101.33 L241.77,101.33 L242.25,101.33 L242.73,101.32 L243.21,101.32 L243.69,101.32 L244.17,101.31 L244.65,101.31 L245.13,101.31 L245.61,101.30 L246.09,101.30 L246.57,101.30 L247.05,101.30 L247.53,101.29 L248.01,101.29 L248.49,101.29 L248.97,101.28 L249.45,101.28 L249.92,101.28 L250.40,101.27 L250.88,101.27 L251.36,101.27 L251.84,101.27 L252.32,101.26 L252.80,101.26 L253.28,101.26 L253.76,101.26 L254.24,101.25 L254.72,101.25 L255.20,101.25 L255.68,101.24 L256.16,101.24 L256.64,101.24 L257.12,101.24 L257.60,101.23 L258.08,101.23 L258.56,101.23 L259.04,101.23 L259.52,101.23 L260.00,101.22" style="stroke-width: 2px; stroke: rgb(218, 44, 0); stroke-opacity: 0.6; stroke-dasharray: 7.5px, 6px;"/></g></g><g class="test-xtl" style="font-family: &quot;Open Sans&quot;, verdana, arial, sans-serif;"><text text-anchor="middle" font-size="11" dominant-baseline="hanging" stroke="none" fill="rgb(50,50,50)" fill-opacity="1" x="83.25663103256525" y="108">π</text><text text-anchor="middle" font-size="11" dominant-baseline="hanging" stroke="none" fill="rgb(50,50,50)" fill-opacity="1" x="155.5132620651305" y="108">2π</text><text text-anchor="middle" font-size="11" dominant-baseline="hanging" stroke="none" fill="rgb(50,50,50)" fill-opacity="1" x="227.76989309769576" y="108">3π</text><text text-anchor="middle" font-size="11" dominant-baseline="hanging" stroke="none" fill="rgb(50,50,50)" fill-opacity="1" x="3.0000000000000018" y="106">0</text></g><g class="test-ytl" style="font-family: &quot;Open Sans&quot;, verdana, arial, sans-serif;"><text text-anchor="end" dominant-baseline="middle" font-size="11" stroke="none" fill="rgb(50,50,50)" fill-opacity="1" x="3" y="151">-1</text><text text-anchor="end" dominant-baseline="middle" font-size="11" stroke="none" fill="rgb(50,50,50)" fill-opacity="1" x="3" y="51">1</text><text text-anchor="end" dominant-baseline="middle" font-size="11" stroke="none" fill="rgb(50,50,50)" fill-opacity="1" x="3" y="1">2</text></g><rect class="real" x="1" y="1" width="258" height="198" style="fill: transparent; stroke: none;"/></g></g></g><g class="arrow-line"><path class="connection real" stroke-dasharray="" d="  M330,180 L398,180" style="stroke: rgb(0, 0, 0); stroke-width: 1px; fill: none; fill-opacity: 1;"/><g stroke="#000" transform="matrix(-1,1.2246467991473532e-16,-1.2246467991473532e-16,-1,400,180)" style="stroke: rgb(0, 0, 0); stroke-width: 1px;"><path d=" M10.93,-3.29 Q4.96,-0.45 0,0 Q4.96,0.45 10.93,3.29"/></g></g><g class="arrow-line"><path class="connection real" stroke-dasharray="" d="  M500,100 L500,260" style="stroke: rgb(0, 0, 0); stroke-width: 1px; fill: none; fill-opacity: 1;"/></g><g class="arrow-line"><path class="connection real" stroke-dasharray="" d="  M580,180 L420,180" style="stroke: rgb(0, 0, 0); stroke-width: 1px; fill: none; fill-opacity: 1;"/></g><g class="arrow-line"><path class="connection real" stroke-dasharray="" d="  M480,140" style="stroke: rgb(218, 44, 0); stroke-opacity: 1; stroke-width: 1px; fill: none; fill-opacity: 1;"/><g stroke="rgb(218,44,0)" stroke-opacity="1" transform="matrix(0.7071067811865476,0.7071067811865476,-0.7071067811865476,0.7071067811865476,480,140)" style="stroke: rgb(218, 44, 0); stroke-width: 1px;"><path d=" M-5.59,0 L5.59,0 M0,5.59 L0,-5.59"/></g></g><g class="arrow-line"><path class="connection real" stroke-dasharray="" d="  M480,220" style="stroke: rgb(218, 44, 0); stroke-opacity: 1; stroke-width: 1px; fill: none; fill-opacity: 1;"/><g stroke="rgb(218,44,0)" stroke-opacity="1" transform="matrix(0.7071067811865476,0.7071067811865476,-0.7071067811865476,0.7071067811865476,480,220)" style="stroke: rgb(218, 44, 0); stroke-width: 1px;"><path d=" M-5.59,0 L5.59,0 M0,5.59 L0,-5.59"/></g></g><g/></g><g/><g/><g/></svg>
        <svg xmlns="http://www.w3.org/2000/svg" xmlns:xlink="http://www.w3.org/1999/xlink" width="660" height="300" style="width:660px;height:300px;font-family:Asana-Math, Asana;background:transparent;"><g><g><g><g transform="matrix(1,0,0,1,518.7166748046875,108.13333129882812)"><path transform="matrix(0.017,0,0,-0.017,0,0)" d="M614 588L614 516L645 516C645 568 654 621 664 668C616 685 526 709 433 709C206 709 22 571 22 344C22 117 184 -20 424 -20C485 -20 584 -1 642 34L669 84L661 94C615 60 529 34 458 34C381 34 314 53 261 89L261 627C303 652 355 667 416 667C492 667 614 632 614 588ZM215 127C160 184 129 263 129 360C129 452 158 535 215 591Z" stroke="rgb(0,0,0)" stroke-opacity="1" stroke-width="8" fill="rgb(0,0,0)" fill-opacity="1"></path></g></g><g><g><g><g><g transform="matrix(1,0,0,1,531.75,101.6166748046875)"><path transform="matrix(0.0119,0,0,-0.0119,0,0)" d="M16 23L16 -3C203 -3 203 0 239 0C275 0 275 -3 468 -3L468 82C353 77 307 81 122 77L304 270C401 373 431 428 431 503C431 618 353 689 226 689C154 689 105 669 56 619L39 483L68 483L81 529C97 587 133 612 200 612C286 612 341 558 341 473C341 398 299 324 186 204Z" stroke="rgb(0,0,0)" stroke-opacity="1" stroke-width="8" fill="rgb(0,0,0)" fill-opacity="1"></path></g></g></g></g></g></g></g><g><g><g><g transform="matrix(1,0,0,1,493.7166748046875,94.5333251953125)"><path transform="matrix(0.017,0,0,-0.017,0,0)" d="M394 -12C554 -12 671 181 673 325C674 363 660 458 607 458C592 458 562 441 548 434L548 423C593 392 607 338 606 284C605 189 542 17 425 17C366 17 362 73 363 119C365 185 380 261 403 324L393 324C372 317 350 309 328 304C323 217 294 16 174 16C111 16 100 81 100 129C102 278 168 388 306 443L306 463C152 428 40 300 25 137C9 -29 213 -49 295 47C316 3 344 -12 394 -12Z" stroke="rgb(0,0,0)" stroke-opacity="1" stroke-width="8" fill="rgb(0,0,0)" fill-opacity="1"></path></g></g></g></g><g><g><g><g transform="matrix(1,0,0,1,584.7166748046875,184.5333251953125)"><path transform="matrix(0.017,0,0,-0.017,0,0)" d="M171 -15C331 -15 431 100 434 257C436 343 410 361 345 404L345 407C398 407 457 403 511 411C518 431 521 451 524 474C485 453 364 467 313 457C150 424 28 329 28 153C28 48 59 -15 171 -15ZM367 267C367 168 329 13 203 13C111 13 103 112 104 182C105 292 143 412 274 412C359 412 367 328 367 267Z" stroke="rgb(0,0,0)" stroke-opacity="1" stroke-width="8" fill="rgb(0,0,0)" fill-opacity="1"></path></g></g></g></g></svg>
</svg>
