<svg xmlns="http://www.w3.org/2000/svg" xmlns:xlink="http://www.w3.org/1999/xlink" x="0" y="0" width="661.13330078125" height="301.1333312988281" style="
        width:661.13330078125px;
        height:301.1333312988281px;
        background: transparent;
        fill: none;
">
        
        
        <svg xmlns="http://www.w3.org/2000/svg" class="role-diagram-draw-area"><g class="shapes-region" style="stroke: black; fill: none;"><g class="composite-shape"><path class="real" d=" M170,123 L250,123 L250,163 L170,163 Z" style="stroke-width: 1px; stroke: rgb(0, 0, 0); fill: none; fill-opacity: 1;"/></g><g class="arrow-line"><path class="connection real" stroke-dasharray="" d="  M250,143 L307,143" style="stroke: rgb(60, 180, 75); stroke-opacity: 1; stroke-width: 1px; fill: none; fill-opacity: 1;"/><g stroke="none" fill="rgb(60,180,75)" fill-opacity="1" transform="matrix(-1,1.2246467991473532e-16,-1.2246467991473532e-16,-1,310,143.00000000000003)" style="stroke: none; fill: rgb(60, 180, 75); stroke-width: 1px;"><path d=" M8.93,-4.29 L0,0 L8.93,4.29 Z"/></g></g><g class="arrow-line"><path class="connection real" stroke-dasharray="" d="  M110,143 L167,143" style="stroke: rgb(74, 144, 226); stroke-opacity: 1; stroke-width: 1px; fill: rgb(74, 144, 226); fill-opacity: 1;"/><g stroke="none" fill="rgb(74,144,226)" fill-opacity="1" transform="matrix(-1,1.2246467991473532e-16,-1.2246467991473532e-16,-1,169.99999999999997,143.00000000000003)" style="stroke: none; fill: rgb(74, 144, 226); stroke-width: 1px;"><path d=" M8.93,-4.29 L0,0 L8.93,4.29 Z"/></g></g><g class="composite-shape" data-amt="diagram/shapes/plot" transform="matrix(1,0,0,1,350,40)"><g><g><g class="test-xgi"><line x1="11.000000000000002" y1="0" x2="11.000000000000002" y2="200.0000000000001" fill="none" stroke="#c3c3c3" stroke-width="0.5"/><line x1="141" y1="0" x2="141" y2="200.0000000000001" fill="none" stroke="#c3c3c3" stroke-width="0.5"/></g><g class="test-ygi"><line x1="0" y1="101.00000000000013" x2="250" y2="101.00000000000013" fill="none" stroke="#c3c3c3" stroke-width="0.5"/></g></g><g><g class="test-xti" style="font-family: Asana-Math, Asana;"><line x1="0" y1="101.00000000000011" x2="246" y2="101.00000000000011" fill="none" stroke="rgb(50,50,50)" stroke-opacity="1" stroke-width="1"/><line x1="141" y1="97.00000000000011" x2="141" y2="105.00000000000011" fill="none" stroke="rgb(50,50,50)" stroke-opacity="1" stroke-width="1"/><path d="M241,97.40000000000012 L249,101.00000000000011 L241,104.60000000000011 Z" stroke="none" stroke-width="1" fill="rgb(50,50,50)" fill-opacity="1"/></g><g class="test-yti" style="font-family: Asana-Math, Asana;"><line x1="11" y1="4" x2="11" y2="200.0000000000001" fill="none" stroke="rgb(50,50,50)" stroke-opacity="1" stroke-width="1"/><path d="M7.4,9 L11,1 L14.6,9 Z" stroke="none" stroke-width="1" fill="rgb(50,50,50)" fill-opacity="1"/></g><g class="test-plot-expression"><defs><clipPath id="cp3my3bmsuj"><rect x="1" y="1" width="248" height="198.0000000000001"/></clipPath></defs><g clip-path="url(#cp3my3bmsuj)"><path d=" M11.00,101.00 L11.48,99.08 L11.96,97.17 L12.44,95.26 L12.92,93.36 L13.39,91.47 L13.87,89.60 L14.35,87.74 L14.83,85.89 L15.31,84.07 L15.79,82.27 L16.27,80.50 L16.75,78.75 L17.23,77.04 L17.71,75.35 L18.18,73.70 L18.66,72.09 L19.14,70.52 L19.62,68.99 L20.10,67.50 L20.58,66.06 L21.06,64.66 L21.54,63.32 L22.02,62.02 L22.49,60.78 L22.97,59.59 L23.45,58.46 L23.93,57.39 L24.41,56.38 L24.89,55.42 L25.37,54.53 L25.85,53.70 L26.33,52.94 L26.81,52.24 L27.28,51.61 L27.76,51.04 L28.24,50.55 L28.72,50.12 L29.20,49.76 L29.68,49.47 L30.16,49.24 L30.64,49.09 L31.12,49.01 L31.60,49.00 L32.07,49.07 L32.55,49.20 L33.03,49.40 L33.51,49.67 L33.99,50.01 L34.47,50.42 L34.95,50.90 L35.43,51.45 L35.91,52.06 L36.38,52.75 L36.86,53.49 L37.34,54.30 L37.82,55.18 L38.30,56.11 L38.78,57.11 L39.26,58.17 L39.74,59.28 L40.22,60.46 L40.70,61.68 L41.17,62.96 L41.65,64.29 L42.13,65.68 L42.61,67.11 L43.09,68.58 L43.57,70.10 L44.05,71.66 L44.53,73.26 L45.01,74.90 L45.48,76.58 L45.96,78.29 L46.44,80.02 L46.92,81.79 L47.40,83.58 L47.88,85.40 L48.36,87.24 L48.84,89.09 L49.32,90.97 L49.80,92.85 L50.27,94.75 L50.75,96.66 L51.23,98.57 L51.71,100.48 L52.19,102.40 L52.67,104.31 L53.15,106.22 L53.63,108.12 L54.11,110.02 L54.59,111.90 L55.06,113.76 L55.54,115.61 L56.02,117.44 L56.50,119.24 L56.98,121.03 L57.46,122.78 L57.94,124.50 L58.42,126.20 L58.90,127.86 L59.37,129.48 L59.85,131.06 L60.33,132.60 L60.81,134.10 L61.29,135.56 L61.77,136.97 L62.25,138.32 L62.73,139.63 L63.21,140.89 L63.69,142.09 L64.16,143.24 L64.64,144.32 L65.12,145.35 L65.60,146.32 L66.08,147.23 L66.56,148.08 L67.04,148.86 L67.52,149.58 L68.00,150.23 L68.47,150.81 L68.95,151.33 L69.43,151.77 L69.91,152.15 L70.39,152.46 L70.87,152.70 L71.35,152.87 L71.83,152.97 L72.31,153.00 L72.79,152.96 L73.26,152.85 L73.74,152.66 L74.22,152.41 L74.70,152.09 L75.18,151.69 L75.66,151.23 L76.14,150.70 L76.62,150.11 L77.10,149.44 L77.58,148.72 L78.05,147.92 L78.53,147.06 L79.01,146.14 L79.49,145.16 L79.97,144.12 L80.45,143.02 L80.93,141.87 L81.41,140.65 L81.89,139.39 L82.36,138.07 L82.84,136.70 L83.32,135.28 L83.80,133.82 L84.28,132.31 L84.76,130.76 L85.24,129.17 L85.72,127.54 L86.20,125.88 L86.68,124.18 L87.15,122.45 L87.63,120.69 L88.11,118.90 L88.59,117.09 L89.07,115.26 L89.55,113.41 L90.03,111.54 L90.51,109.66 L90.99,107.76 L91.46,105.86 L91.94,103.95 L92.42,102.03 L92.90,100.12 L93.38,98.20 L93.86,96.29 L94.34,94.39 L94.82,92.49 L95.30,90.61 L95.78,88.74 L96.25,86.89 L96.73,85.05 L97.21,83.24 L97.69,81.45 L98.17,79.69 L98.65,77.96 L99.13,76.26 L99.61,74.59 L100.09,72.96 L100.57,71.36 L101.04,69.81 L101.52,68.30 L102.00,66.83 L102.48,65.41 L102.96,64.04 L103.44,62.72 L103.92,61.45 L104.40,60.23 L104.88,59.07 L105.35,57.96 L105.83,56.92 L106.31,55.93 L106.79,55.01 L107.27,54.14 L107.75,53.35 L108.23,52.61 L108.71,51.94 L109.19,51.34 L109.67,50.81 L110.14,50.34 L110.62,49.94 L111.10,49.61 L111.58,49.36 L112.06,49.17 L112.54,49.05 L113.02,49.00 L113.50,49.02 L113.98,49.12 L114.45,49.28 L114.93,49.52 L115.41,49.82 L115.89,50.19 L116.37,50.64 L116.85,51.15 L117.33,51.72 L117.81,52.37 L118.29,53.08 L118.77,53.86 L119.24,54.70 L119.72,55.60 L120.20,56.57 L120.68,57.59 L121.16,58.67 L121.64,59.82 L122.12,61.01 L122.60,62.27 L123.08,63.57 L123.56,64.92 L124.03,66.33 L124.51,67.78 L124.99,69.28 L125.47,70.81 L125.95,72.40 L126.43,74.01 L126.91,75.67 L127.39,77.36 L127.87,79.08 L128.34,80.83 L128.82,82.61 L129.30,84.42 L129.78,86.24 L130.26,88.09 L130.74,89.95 L131.22,91.83 L131.70,93.73 L132.18,95.63 L132.66,97.54 L133.13,99.45 L133.61,101.36 L134.09,103.28 L134.57,105.19 L135.05,107.10 L135.53,109.00 L136.01,110.88 L136.49,112.76 L136.97,114.61 L137.44,116.45 L137.92,118.27 L138.40,120.07 L138.88,121.84 L139.36,123.58 L139.84,125.29 L140.32,126.96 L140.80,128.61 L141.28,130.21 L141.76,131.78 L142.23,133.30 L142.71,134.78 L143.19,136.21 L143.67,137.60 L144.15,138.93 L144.63,140.22 L145.11,141.45 L145.59,142.62 L146.07,143.74 L146.55,144.81 L147.02,145.81 L147.50,146.75 L147.98,147.63 L148.46,148.45 L148.94,149.20 L149.42,149.88 L149.90,150.50 L150.38,151.06 L150.86,151.54 L151.33,151.96 L151.81,152.30 L152.29,152.58 L152.77,152.79 L153.25,152.93 L153.73,152.99 L154.21,152.99 L154.69,152.91 L155.17,152.77 L155.65,152.55 L156.12,152.27 L156.60,151.91 L157.08,151.49 L157.56,151.00 L158.04,150.44 L158.52,149.81 L159.00,149.12 L159.48,148.36 L159.96,147.54 L160.43,146.65 L160.91,145.70 L161.39,144.69 L161.87,143.62 L162.35,142.50 L162.83,141.31 L163.31,140.08 L163.79,138.79 L164.27,137.45 L164.75,136.06 L165.22,134.62 L165.70,133.13 L166.18,131.60 L166.66,130.04 L167.14,128.43 L167.62,126.78 L168.10,125.10 L168.58,123.39 L169.06,121.64 L169.54,119.87 L170.01,118.07 L170.49,116.25 L170.97,114.41 L171.45,112.55 L171.93,110.68 L172.41,108.79 L172.89,106.89 L173.37,104.98 L173.85,103.07 L174.32,101.15 L174.80,99.24 L175.28,97.32 L175.76,95.42 L176.24,93.52 L176.72,91.63 L177.20,89.75 L177.68,87.89 L178.16,86.04 L178.64,84.22 L179.11,82.41 L179.59,80.64 L180.07,78.89 L180.55,77.17 L181.03,75.48 L181.51,73.83 L181.99,72.22 L182.47,70.64 L182.95,69.11 L183.42,67.62 L183.90,66.17 L184.38,64.77 L184.86,63.42 L185.34,62.12 L185.82,60.88 L186.30,59.69 L186.78,58.55 L187.26,57.47 L187.74,56.46 L188.21,55.50 L188.69,54.60 L189.17,53.77 L189.65,53.00 L190.13,52.30 L190.61,51.66 L191.09,51.09 L191.57,50.58 L192.05,50.15 L192.53,49.78 L193.00,49.49 L193.48,49.26 L193.96,49.10 L194.44,49.02 L194.92,49.00 L195.40,49.06 L195.88,49.18 L196.36,49.38 L196.84,49.65 L197.31,49.98 L197.79,50.39 L198.27,50.86 L198.75,51.40 L199.23,52.01 L199.71,52.69 L200.19,53.43 L200.67,54.24 L201.15,55.11 L201.63,56.04 L202.10,57.03 L202.58,58.08 L203.06,59.19 L203.54,60.36 L204.02,61.58 L204.50,62.86 L204.98,64.19 L205.46,65.56 L205.94,66.99 L206.41,68.46 L206.89,69.98 L207.37,71.54 L207.85,73.14 L208.33,74.77 L208.81,76.44 L209.29,78.15 L209.77,79.88 L210.25,81.65 L210.73,83.44 L211.20,85.25 L211.68,87.09 L212.16,88.95 L212.64,90.82 L213.12,92.70 L213.60,94.60 L214.08,96.50 L214.56,98.42 L215.04,100.33 L215.52,102.25 L215.99,104.16 L216.47,106.07 L216.95,107.97 L217.43,109.87 L217.91,111.75 L218.39,113.61 L218.87,115.46 L219.35,117.29 L219.83,119.10 L220.30,120.88 L220.78,122.64 L221.26,124.37 L221.74,126.06 L222.22,127.72 L222.70,129.35 L223.18,130.94 L223.66,132.48 L224.14,133.98 L224.62,135.44 L225.09,136.85 L225.57,138.22 L226.05,139.53 L226.53,140.79 L227.01,142.00 L227.49,143.15 L227.97,144.24 L228.45,145.27 L228.93,146.25 L229.40,147.16 L229.88,148.01 L230.36,148.80 L230.84,149.52 L231.32,150.18 L231.80,150.77 L232.28,151.29 L232.76,151.74 L233.24,152.13 L233.72,152.44 L234.19,152.69 L234.67,152.86 L235.15,152.97 L235.63,153.00 L236.11,152.96 L236.59,152.86 L237.07,152.68 L237.55,152.43 L238.03,152.11 L238.51,151.73 L238.98,151.27 L239.46,150.75 L239.94,150.16 L240.42,149.50 L240.90,148.78 L241.38,147.99 L241.86,147.14 L242.34,146.22 L242.82,145.24 L243.29,144.21 L243.77,143.11 L244.25,141.96 L244.73,140.75 L245.21,139.49 L245.69,138.18 L246.17,136.81 L246.65,135.40 L247.13,133.94 L247.61,132.43 L248.08,130.89 L248.56,129.30 L249.04,127.67 L249.52,126.01 L250.00,124.32" style="stroke-width: 2px; stroke: rgb(74, 144, 226); stroke-opacity: 0.8;"/><path d=" M11.00,136.46 L11.48,137.04 L11.96,137.56 L12.44,138.04 L12.92,138.46 L13.39,138.84 L13.87,139.16 L14.35,139.43 L14.83,139.65 L15.31,139.81 L15.79,139.93 L16.27,139.99 L16.75,140.00 L17.23,139.95 L17.71,139.85 L18.18,139.70 L18.66,139.50 L19.14,139.24 L19.62,138.94 L20.10,138.58 L20.58,138.17 L21.06,137.71 L21.54,137.20 L22.02,136.64 L22.49,136.03 L22.97,135.38 L23.45,134.67 L23.93,133.93 L24.41,133.14 L24.89,132.30 L25.37,131.42 L25.85,130.50 L26.33,129.54 L26.81,128.54 L27.28,127.51 L27.76,126.44 L28.24,125.33 L28.72,124.19 L29.20,123.02 L29.68,121.82 L30.16,120.59 L30.64,119.34 L31.12,118.05 L31.60,116.75 L32.07,115.43 L32.55,114.08 L33.03,112.72 L33.51,111.34 L33.99,109.95 L34.47,108.55 L34.95,107.13 L35.43,105.71 L35.91,104.28 L36.38,102.85 L36.86,101.41 L37.34,99.97 L37.82,98.54 L38.30,97.10 L38.78,95.68 L39.26,94.26 L39.74,92.85 L40.22,91.45 L40.70,90.06 L41.17,88.69 L41.65,87.34 L42.13,86.00 L42.61,84.68 L43.09,83.39 L43.57,82.12 L44.05,80.88 L44.53,79.66 L45.01,78.47 L45.48,77.31 L45.96,76.19 L46.44,75.10 L46.92,74.04 L47.40,73.02 L47.88,72.04 L48.36,71.10 L48.84,70.20 L49.32,69.34 L49.80,68.52 L50.27,67.74 L50.75,67.02 L51.23,66.34 L51.71,65.70 L52.19,65.11 L52.67,64.58 L53.15,64.09 L53.63,63.65 L54.11,63.26 L54.59,62.92 L55.06,62.64 L55.54,62.41 L56.02,62.23 L56.50,62.10 L56.98,62.02 L57.46,62.00 L57.94,62.03 L58.42,62.11 L58.90,62.25 L59.37,62.44 L59.85,62.68 L60.33,62.97 L60.81,63.32 L61.29,63.72 L61.77,64.16 L62.25,64.66 L62.73,65.20 L63.21,65.80 L63.69,66.44 L64.16,67.13 L64.64,67.87 L65.12,68.65 L65.60,69.47 L66.08,70.34 L66.56,71.25 L67.04,72.20 L67.52,73.18 L68.00,74.21 L68.47,75.27 L68.95,76.37 L69.43,77.50 L69.91,78.66 L70.39,79.85 L70.87,81.08 L71.35,82.32 L71.83,83.60 L72.31,84.89 L72.79,86.21 L73.26,87.55 L73.74,88.91 L74.22,90.28 L74.70,91.67 L75.18,93.07 L75.66,94.49 L76.14,95.91 L76.62,97.34 L77.10,98.77 L77.58,100.20 L78.05,101.64 L78.53,103.08 L79.01,104.51 L79.49,105.94 L79.97,107.36 L80.45,108.77 L80.93,110.17 L81.41,111.56 L81.89,112.94 L82.36,114.30 L82.84,115.64 L83.32,116.96 L83.80,118.26 L84.28,119.54 L84.76,120.79 L85.24,122.01 L85.72,123.21 L86.20,124.38 L86.68,125.51 L87.15,126.61 L87.63,127.68 L88.11,128.71 L88.59,129.70 L89.07,130.65 L89.55,131.57 L90.03,132.44 L90.51,133.27 L90.99,134.05 L91.46,134.79 L91.94,135.49 L92.42,136.13 L92.90,136.73 L93.38,137.28 L93.86,137.79 L94.34,138.24 L94.82,138.64 L95.30,138.99 L95.78,139.29 L96.25,139.54 L96.73,139.73 L97.21,139.87 L97.69,139.96 L98.17,140.00 L98.65,139.98 L99.13,139.91 L99.61,139.79 L100.09,139.62 L100.57,139.39 L101.04,139.11 L101.52,138.78 L102.00,138.40 L102.48,137.96 L102.96,137.48 L103.44,136.95 L103.92,136.37 L104.40,135.74 L104.88,135.06 L105.35,134.34 L105.83,133.57 L106.31,132.76 L106.79,131.90 L107.27,131.00 L107.75,130.06 L108.23,129.09 L108.71,128.07 L109.19,127.02 L109.67,125.93 L110.14,124.81 L110.62,123.66 L111.10,122.47 L111.58,121.26 L112.06,120.02 L112.54,118.75 L113.02,117.46 L113.50,116.14 L113.98,114.81 L114.45,113.46 L114.93,112.09 L115.41,110.70 L115.89,109.30 L116.37,107.90 L116.85,106.48 L117.33,105.05 L117.81,103.62 L118.29,102.18 L118.77,100.75 L119.24,99.31 L119.72,97.88 L120.20,96.45 L120.68,95.02 L121.16,93.61 L121.64,92.20 L122.12,90.81 L122.60,89.43 L123.08,88.07 L123.56,86.72 L124.03,85.39 L124.51,84.09 L124.99,82.80 L125.47,81.54 L125.95,80.31 L126.43,79.11 L126.91,77.94 L127.39,76.79 L127.87,75.68 L128.34,74.61 L128.82,73.57 L129.30,72.56 L129.78,71.60 L130.26,70.68 L130.74,69.79 L131.22,68.95 L131.70,68.16 L132.18,67.40 L132.66,66.70 L133.13,66.04 L133.61,65.42 L134.09,64.86 L134.57,64.34 L135.05,63.88 L135.53,63.46 L136.01,63.10 L136.49,62.79 L136.97,62.53 L137.44,62.32 L137.92,62.16 L138.40,62.06 L138.88,62.01 L139.36,62.01 L139.84,62.06 L140.32,62.17 L140.80,62.33 L141.28,62.54 L141.76,62.81 L142.23,63.13 L142.71,63.50 L143.19,63.91 L143.67,64.38 L144.15,64.90 L144.63,65.47 L145.11,66.09 L145.59,66.75 L146.07,67.46 L146.55,68.22 L147.02,69.02 L147.50,69.86 L147.98,70.75 L148.46,71.68 L148.94,72.64 L149.42,73.65 L149.90,74.69 L150.38,75.77 L150.86,76.88 L151.33,78.03 L151.81,79.21 L152.29,80.41 L152.77,81.65 L153.25,82.91 L153.73,84.19 L154.21,85.50 L154.69,86.83 L155.17,88.18 L155.65,89.54 L156.12,90.92 L156.60,92.32 L157.08,93.72 L157.56,95.14 L158.04,96.56 L158.52,97.99 L159.00,99.43 L159.48,100.86 L159.96,102.30 L160.43,103.74 L160.91,105.17 L161.39,106.59 L161.87,108.01 L162.35,109.42 L162.83,110.82 L163.31,112.20 L163.79,113.57 L164.27,114.92 L164.75,116.25 L165.22,117.56 L165.70,118.85 L166.18,120.12 L166.66,121.36 L167.14,122.57 L167.62,123.75 L168.10,124.90 L168.58,126.02 L169.06,127.11 L169.54,128.16 L170.01,129.17 L170.49,130.14 L170.97,131.08 L171.45,131.97 L171.93,132.82 L172.41,133.63 L172.89,134.40 L173.37,135.12 L173.85,135.79 L174.32,136.41 L174.80,136.99 L175.28,137.52 L175.76,138.00 L176.24,138.43 L176.72,138.81 L177.20,139.13 L177.68,139.41 L178.16,139.63 L178.64,139.80 L179.11,139.92 L179.59,139.99 L180.07,140.00 L180.55,139.96 L181.03,139.86 L181.51,139.72 L181.99,139.52 L182.47,139.27 L182.95,138.96 L183.42,138.61 L183.90,138.20 L184.38,137.75 L184.86,137.24 L185.34,136.69 L185.82,136.08 L186.30,135.43 L186.78,134.73 L187.26,133.99 L187.74,133.20 L188.21,132.37 L188.69,131.49 L189.17,130.58 L189.65,129.62 L190.13,128.62 L190.61,127.59 L191.09,126.52 L191.57,125.42 L192.05,124.28 L192.53,123.11 L193.00,121.92 L193.48,120.69 L193.96,119.44 L194.44,118.16 L194.92,116.86 L195.40,115.53 L195.88,114.19 L196.36,112.83 L196.84,111.45 L197.31,110.06 L197.79,108.66 L198.27,107.24 L198.75,105.82 L199.23,104.39 L199.71,102.96 L200.19,101.52 L200.67,100.09 L201.15,98.65 L201.63,97.22 L202.10,95.79 L202.58,94.37 L203.06,92.96 L203.54,91.56 L204.02,90.17 L204.50,88.80 L204.98,87.44 L205.46,86.11 L205.94,84.79 L206.41,83.49 L206.89,82.22 L207.37,80.97 L207.85,79.76 L208.33,78.57 L208.81,77.41 L209.29,76.28 L209.77,75.18 L210.25,74.12 L210.73,73.10 L211.20,72.12 L211.68,71.17 L212.16,70.27 L212.64,69.40 L213.12,68.58 L213.60,67.80 L214.08,67.07 L214.56,66.39 L215.04,65.75 L215.52,65.16 L215.99,64.62 L216.47,64.12 L216.95,63.68 L217.43,63.29 L217.91,62.95 L218.39,62.66 L218.87,62.42 L219.35,62.24 L219.83,62.11 L220.30,62.03 L220.78,62.00 L221.26,62.03 L221.74,62.11 L222.22,62.24 L222.70,62.42 L223.18,62.66 L223.66,62.95 L224.14,63.29 L224.62,63.68 L225.09,64.12 L225.57,64.62 L226.05,65.16 L226.53,65.75 L227.01,66.39 L227.49,67.07 L227.97,67.81 L228.45,68.58 L228.93,69.40 L229.40,70.27 L229.88,71.17 L230.36,72.12 L230.84,73.10 L231.32,74.13 L231.80,75.19 L232.28,76.28 L232.76,77.41 L233.24,78.57 L233.72,79.76 L234.19,80.98 L234.67,82.22 L235.15,83.49 L235.63,84.79 L236.11,86.11 L236.59,87.45 L237.07,88.80 L237.55,90.17 L238.03,91.56 L238.51,92.96 L238.98,94.37 L239.46,95.79 L239.94,97.22 L240.42,98.65 L240.90,100.09 L241.38,101.53 L241.86,102.96 L242.34,104.40 L242.82,105.82 L243.29,107.25 L243.77,108.66 L244.25,110.06 L244.73,111.45 L245.21,112.83 L245.69,114.19 L246.17,115.54 L246.65,116.86 L247.13,118.16 L247.61,119.44 L248.08,120.69 L248.56,121.92 L249.04,123.12 L249.52,124.28 L250.00,125.42" style="stroke-width: 2px; stroke: rgb(60, 180, 75); stroke-opacity: 0.8;"/></g></g><g class="test-xtl" style="font-family: &quot;Open Sans&quot;, verdana, arial, sans-serif;"><text text-anchor="middle" font-size="11" dominant-baseline="hanging" stroke="none" fill="rgb(50,50,50)" fill-opacity="1" x="141" y="108.00000000000011">10</text><text text-anchor="middle" font-size="11" dominant-baseline="hanging" stroke="none" fill="rgb(50,50,50)" fill-opacity="1" x="3.0000000000000018" y="106.00000000000011">0</text></g><g class="test-ytl" style="font-family: &quot;Open Sans&quot;, verdana, arial, sans-serif;"/><rect class="real" x="1" y="1" width="248" height="198.0000000000001" style="fill: transparent; stroke: none;"/></g></g></g><g/></g><g/><g/><g/></svg>
        <svg xmlns="http://www.w3.org/2000/svg" xmlns:xlink="http://www.w3.org/1999/xlink" width="660" height="300" style="width:660px;height:300px;font-family:Asana-Math, Asana;background:transparent;"><g><g><g><text x="195.41668701171875" y="134.5" style="white-space:pre;stroke:none;fill:rgb(0,0,0);fill-opacity:1;font-size:15px;font-family:Arial, Helvetica, sans-serif;font-weight:400;font-style:normal;dominant-baseline:text-before-edge;text-decoration:rgb(0, 0, 0);">G(s)</text></g></g></g><g><g><g><g transform="matrix(1,0,0,1,134.7833251953125,137.03335571289062)"><path transform="matrix(0.017,0,0,-0.017,0,0)" d="M368 365C371 403 376 435 384 476C373 481 369 482 364 482C333 482 302 458 266 407C227 351 188 291 172 256L204 408C208 425 210 438 210 450C210 470 202 482 187 482C166 482 128 461 54 408L26 388L33 368L65 389C93 407 104 412 113 412C123 412 130 403 130 390C130 332 87 126 47 -2L57 -9C72 -4 88 -1 111 4L124 6L150 126C168 209 191 262 235 319C269 363 296 384 318 384C333 384 343 379 354 365Z" stroke="rgb(74,144,226)" stroke-opacity="1" stroke-width="8" fill="rgb(74,144,226)" fill-opacity="1"></path></g></g></g></g><g><g><g><g transform="matrix(1,0,0,1,274.7833251953125,137.03335571289062)"><path transform="matrix(0.017,0,0,-0.017,0,0)" d="M492 473L485 482L417 465L407 414C392 336 367 268 336 221C277 130 199 59 159 59C151 59 146 68 146 85C146 99 148 112 153 137L210 408C213 424 215 438 215 451C215 470 206 482 192 482C172 482 134 461 60 408L32 388L39 368L71 389C99 407 110 412 119 412C128 412 136 403 136 392C136 388 135 378 134 374L71 77C69 68 67 44 67 30C67 7 82 -11 102 -11C165 -11 286 101 370 239L333 97C326 73 322 46 322 31C322 6 333 -9 352 -9C378 -9 414 12 512 85L502 103L476 86C452 70 426 59 415 59C407 59 402 66 402 76C402 112 477 416 492 473Z" stroke="rgb(60,180,75)" stroke-opacity="1" stroke-width="8" fill="rgb(60,180,75)" fill-opacity="1"></path></g></g></g></g></svg>
</svg>
