<?xml version="1.0" encoding="UTF-8" standalone="no"?>
<svg width="125.236mm" height="255.058mm"
 viewBox="0 0 355 723"
 xmlns="http://www.w3.org/2000/svg" xmlns:xlink="http://www.w3.org/1999/xlink"  version="1.2" baseProfile="tiny">
<title>Qt SVG Document</title>
<desc>MATLAB, The MathWorks, Inc. Version 25.1.0.2943329 R2025a</desc>
<defs>
</defs>
<g fill="none" stroke="black" stroke-width="1" fill-rule="evenodd" stroke-linecap="square" stroke-linejoin="bevel" >

<g fill="#ffffff" fill-opacity="1" stroke="none" transform="matrix(0.431033,0,0,0.435877,-706.027,-46.3331)"
font-family="MS Shell Dlg 2" font-size="8.14286" font-weight="400" font-style="normal" 
>
<path vector-effect="none" fill-rule="evenodd" d="M1637,105 L2461,105 L2461,1764 L1637,1764 L1637,105"/>
</g>

<g fill="#212121" fill-opacity="1" stroke="none" transform="matrix(0.431033,0,0,0.435877,92.6383,11.5252)"
font-family="MS Shell Dlg 2" font-size="8.14286" font-weight="400" font-style="normal" 
>
<path vector-effect="none" fill-rule="evenodd" d="M11.2656,0.359375 L3.71875,-19.7188 C3.53125,-20.1667 3.17188,-20.4479 2.64063,-20.5625 C2.10938,-20.6771 1.43229,-20.7344 0.609375,-20.7344 L0.609375,-21.8594 L9.40625,-21.8594 L9.40625,-20.7344 C7.63542,-20.7344 6.75,-20.4583 6.75,-19.9063 C6.76042,-19.875 6.76823,-19.8464 6.77344,-19.8203 C6.77865,-19.7943 6.78125,-19.7604 6.78125,-19.7188 L12.9219,-3.39063 L18.7188,-18.8438 C18.7604,-18.9271 18.7813,-19.0573 18.7813,-19.2344 C18.7813,-19.7552 18.5417,-20.1354 18.0625,-20.375 C17.5833,-20.6146 17.0469,-20.7344 16.4531,-20.7344 L16.4531,-21.8594 L23.3594,-21.8594 L23.3594,-20.7344 C22.5573,-20.7344 21.8516,-20.5859 21.2422,-20.2891 C20.6328,-19.9922 20.1979,-19.5104 19.9375,-18.8438 L12.7031,0.359375 C12.6406,0.588542 12.4688,0.703125 12.1875,0.703125 L11.7813,0.703125 C11.5,0.703125 11.3281,0.588542 11.2656,0.359375 "/>
</g>

<g fill="#212121" fill-opacity="1" stroke="none" transform="matrix(0.431033,0,0,0.435877,102.025,11.5252)"
font-family="MS Shell Dlg 2" font-size="8.14286" font-weight="400" font-style="normal" 
>
<path vector-effect="none" fill-rule="evenodd" d="M7.96875,0.359375 C6.66667,0.359375 5.47135,0.0182292 4.38281,-0.664063 C3.29427,-1.34635 2.4401,-2.25781 1.82031,-3.39844 C1.20052,-4.53906 0.890625,-5.74479 0.890625,-7.01563 C0.890625,-8.26563 1.17448,-9.45313 1.74219,-10.5781 C2.3099,-11.7031 3.10156,-12.612 4.11719,-13.3047 C5.13281,-13.9974 6.26563,-14.3438 7.51563,-14.3438 C8.49479,-14.3438 9.34635,-14.1797 10.0703,-13.8516 C10.7943,-13.5234 11.3906,-13.0677 11.8594,-12.4844 C12.3281,-11.901 12.6823,-11.2135 12.9219,-10.4219 C13.1615,-9.63021 13.2813,-8.76042 13.2813,-7.8125 C13.2813,-7.53125 13.1719,-7.39063 12.9531,-7.39063 L3.6875,-7.39063 L3.6875,-7.04688 C3.6875,-5.27604 4.04427,-3.75781 4.75781,-2.49219 C5.47135,-1.22656 6.63542,-0.59375 8.25,-0.59375 C8.90625,-0.59375 9.51302,-0.739583 10.0703,-1.03125 C10.6276,-1.32292 11.112,-1.72917 11.5234,-2.25 C11.9349,-2.77083 12.2135,-3.32813 12.3594,-3.92188 C12.3802,-3.99479 12.4193,-4.05729 12.4766,-4.10938 C12.5339,-4.16146 12.599,-4.1875 12.6719,-4.1875 L12.9531,-4.1875 C13.1719,-4.1875 13.2813,-4.05729 13.2813,-3.79688 C12.9792,-2.57813 12.3281,-1.58073 11.3281,-0.804688 C10.3281,-0.0286458 9.20833,0.359375 7.96875,0.359375 M3.71875,-8.1875 L11.0156,-8.1875 C11.0156,-8.98958 10.9036,-9.79948 10.6797,-10.6172 C10.4557,-11.4349 10.0833,-12.1172 9.5625,-12.6641 C9.04167,-13.2109 8.35938,-13.4844 7.51563,-13.4844 C6.30729,-13.4844 5.3724,-12.9219 4.71094,-11.7969 C4.04948,-10.6719 3.71875,-9.46875 3.71875,-8.1875 "/>
</g>

<g fill="#212121" fill-opacity="1" stroke="none" transform="matrix(0.431033,0,0,0.435877,108.283,11.5252)"
font-family="MS Shell Dlg 2" font-size="8.14286" font-weight="400" font-style="normal" 
>
<path vector-effect="none" fill-rule="evenodd" d="M7.96875,0.359375 C6.67708,0.359375 5.50521,0.0234375 4.45313,-0.648438 C3.40104,-1.32031 2.57292,-2.21615 1.96875,-3.33594 C1.36458,-4.45573 1.0625,-5.64583 1.0625,-6.90625 C1.0625,-8.16667 1.36198,-9.375 1.96094,-10.5313 C2.5599,-11.6875 3.38802,-12.612 4.44531,-13.3047 C5.5026,-13.9974 6.67708,-14.3438 7.96875,-14.3438 C9.21875,-14.3438 10.3568,-14.099 11.3828,-13.6094 C12.4089,-13.1198 12.9219,-12.3177 12.9219,-11.2031 C12.9219,-10.7865 12.7734,-10.4245 12.4766,-10.1172 C12.1797,-9.8099 11.8177,-9.65625 11.3906,-9.65625 C10.9635,-9.65625 10.6016,-9.80729 10.3047,-10.1094 C10.0078,-10.4115 9.85938,-10.7708 9.85938,-11.1875 C9.85938,-11.5625 9.97917,-11.888 10.2188,-12.1641 C10.4583,-12.4401 10.7552,-12.6146 11.1094,-12.6875 C10.3698,-13.1563 9.33333,-13.3906 8,-13.3906 C6.97917,-13.3906 6.15625,-13.0521 5.53125,-12.375 C4.90625,-11.6979 4.46875,-10.862 4.21875,-9.86719 C3.96875,-8.8724 3.84375,-7.88542 3.84375,-6.90625 C3.84375,-5.875 3.9974,-4.88021 4.30469,-3.92188 C4.61198,-2.96354 5.10677,-2.16927 5.78906,-1.53906 C6.47135,-0.908854 7.32813,-0.59375 8.35938,-0.59375 C9.36979,-0.59375 10.2292,-0.903646 10.9375,-1.52344 C11.6458,-2.14323 12.1302,-2.94792 12.3906,-3.9375 C12.3906,-4.0625 12.474,-4.125 12.6406,-4.125 L13.0313,-4.125 C13.0938,-4.125 13.151,-4.09635 13.2031,-4.03906 C13.2552,-3.98177 13.2813,-3.91667 13.2813,-3.84375 L13.2813,-3.76563 C12.9583,-2.49479 12.3177,-1.48958 11.3594,-0.75 C10.401,-0.0104167 9.27083,0.359375 7.96875,0.359375 "/>
</g>

<g fill="#212121" fill-opacity="1" stroke="none" transform="matrix(0.431033,0,0,0.435877,114.541,11.5252)"
font-family="MS Shell Dlg 2" font-size="8.14286" font-weight="400" font-style="normal" 
>
<path vector-effect="none" fill-rule="evenodd" d="M3.26563,-3.84375 L3.26563,-12.6719 L0.609375,-12.6719 L0.609375,-13.5 C2.00521,-13.5 3.03125,-14.151 3.6875,-15.4531 C4.34375,-16.7552 4.67188,-18.1667 4.67188,-19.6875 L5.59375,-19.6875 L5.59375,-13.7969 L10.1094,-13.7969 L10.1094,-12.6719 L5.59375,-12.6719 L5.59375,-3.92188 C5.59375,-3.03646 5.74219,-2.26042 6.03906,-1.59375 C6.33594,-0.927083 6.86979,-0.59375 7.64063,-0.59375 C8.36979,-0.59375 8.89583,-0.945313 9.21875,-1.64844 C9.54167,-2.35156 9.70313,-3.10938 9.70313,-3.92188 L9.70313,-5.8125 L10.625,-5.8125 L10.625,-3.84375 C10.625,-3.17708 10.5026,-2.51823 10.2578,-1.86719 C10.013,-1.21615 9.65104,-0.682292 9.17188,-0.265625 C8.69271,0.151042 8.10938,0.359375 7.42188,0.359375 C6.14063,0.359375 5.1276,-0.0234375 4.38281,-0.789063 C3.63802,-1.55469 3.26563,-2.57292 3.26563,-3.84375 "/>
</g>

<g fill="#212121" fill-opacity="1" stroke="none" transform="matrix(0.431033,0,0,0.435877,120.017,11.5252)"
font-family="MS Shell Dlg 2" font-size="8.14286" font-weight="400" font-style="normal" 
>
<path vector-effect="none" fill-rule="evenodd" d="M8,0.359375 C6.71875,0.359375 5.53125,0.0338542 4.4375,-0.617188 C3.34375,-1.26823 2.47917,-2.14063 1.84375,-3.23438 C1.20833,-4.32813 0.890625,-5.52083 0.890625,-6.8125 C0.890625,-7.79167 1.0651,-8.73438 1.41406,-9.64063 C1.76302,-10.5469 2.26302,-11.3568 2.91406,-12.0703 C3.5651,-12.7839 4.32292,-13.3411 5.1875,-13.7422 C6.05208,-14.1432 6.98958,-14.3438 8,-14.3438 C9.3125,-14.3438 10.5078,-13.9974 11.5859,-13.3047 C12.6641,-12.612 13.5156,-11.6849 14.1406,-10.5234 C14.7656,-9.36198 15.0781,-8.125 15.0781,-6.8125 C15.0781,-5.53125 14.7604,-4.34115 14.125,-3.24219 C13.4896,-2.14323 12.6276,-1.26823 11.5391,-0.617188 C10.4505,0.0338542 9.27083,0.359375 8,0.359375 M8,-0.59375 C9.70833,-0.59375 10.849,-1.21094 11.4219,-2.44531 C11.9948,-3.67969 12.2813,-5.25521 12.2813,-7.17188 C12.2813,-8.24479 12.224,-9.13021 12.1094,-9.82813 C11.9948,-10.526 11.7448,-11.1615 11.3594,-11.7344 C11.1198,-12.0885 10.8151,-12.3984 10.4453,-12.6641 C10.0755,-12.9297 9.6849,-13.1328 9.27344,-13.2734 C8.86198,-13.4141 8.4375,-13.4844 8,-13.4844 C7.33333,-13.4844 6.70052,-13.3333 6.10156,-13.0313 C5.5026,-12.7292 5.00521,-12.2969 4.60938,-11.7344 C4.21354,-11.1302 3.96094,-10.4688 3.85156,-9.75 C3.74219,-9.03125 3.6875,-8.17188 3.6875,-7.17188 C3.6875,-5.97396 3.79167,-4.90104 4,-3.95313 C4.20833,-3.00521 4.6276,-2.20833 5.25781,-1.5625 C5.88802,-0.916667 6.80208,-0.59375 8,-0.59375 "/>
</g>

<g fill="#212121" fill-opacity="1" stroke="none" transform="matrix(0.431033,0,0,0.435877,127.057,11.5252)"
font-family="MS Shell Dlg 2" font-size="8.14286" font-weight="400" font-style="normal" 
>
<path vector-effect="none" fill-rule="evenodd" d="M0.828125,0 L0.828125,-1.125 C1.55729,-1.125 2.15625,-1.18229 2.625,-1.29688 C3.09375,-1.41146 3.32813,-1.69271 3.32813,-2.14063 L3.32813,-10.875 C3.32813,-11.4479 3.24219,-11.862 3.07031,-12.1172 C2.89844,-12.3724 2.65104,-12.5286 2.32813,-12.5859 C2.00521,-12.6432 1.50521,-12.6719 0.828125,-12.6719 L0.828125,-13.7969 L5.40625,-14.1406 L5.40625,-11.0156 C5.75,-11.9427 6.23958,-12.6953 6.875,-13.2734 C7.51042,-13.8516 8.28125,-14.1406 9.1875,-14.1406 C9.82292,-14.1406 10.3906,-13.9531 10.8906,-13.5781 C11.3906,-13.2031 11.6406,-12.7083 11.6406,-12.0938 C11.6406,-11.7083 11.5026,-11.3724 11.2266,-11.0859 C10.9505,-10.7995 10.6094,-10.6563 10.2031,-10.6563 C9.80729,-10.6563 9.46875,-10.7969 9.1875,-11.0781 C8.90625,-11.3594 8.76563,-11.6979 8.76563,-12.0938 C8.76563,-12.6667 8.96875,-13.0729 9.375,-13.3125 L9.1875,-13.3125 C8.32292,-13.3125 7.61719,-13 7.07031,-12.375 C6.52344,-11.75 6.13542,-10.974 5.90625,-10.0469 C5.67708,-9.11979 5.5625,-8.23438 5.5625,-7.39063 L5.5625,-2.14063 C5.5625,-1.46354 6.59896,-1.125 8.67188,-1.125 L8.67188,0 L0.828125,0"/>
</g>

<g fill="#212121" fill-opacity="1" stroke="none" transform="matrix(0.431033,0,0,0.435877,137.265,11.5252)"
font-family="MS Shell Dlg 2" font-size="8.14286" font-weight="400" font-style="normal" 
>
<path vector-effect="none" fill-rule="evenodd" d="M1.79688,0.453125 L1.79688,-7.01563 C1.79688,-7.18229 1.89063,-7.26563 2.07813,-7.26563 L2.46875,-7.26563 C2.53125,-7.26563 2.58854,-7.23958 2.64063,-7.1875 C2.69271,-7.13542 2.71875,-7.07813 2.71875,-7.01563 C2.71875,-4.92188 3.36719,-3.29948 4.66406,-2.14844 C5.96094,-0.997396 7.66146,-0.421875 9.76563,-0.421875 C10.5052,-0.421875 11.1875,-0.635417 11.8125,-1.0625 C12.4375,-1.48958 12.9245,-2.04948 13.2734,-2.74219 C13.6224,-3.4349 13.7969,-4.15104 13.7969,-4.89063 C13.7969,-5.53646 13.6667,-6.16406 13.4063,-6.77344 C13.1458,-7.38281 12.7708,-7.91146 12.2813,-8.35938 C11.7917,-8.80729 11.2396,-9.10417 10.625,-9.25 L6.46875,-10.2656 C5.09375,-10.6302 3.97135,-11.3776 3.10156,-12.5078 C2.23177,-13.638 1.79688,-14.9063 1.79688,-16.3125 C1.79688,-17.4167 2.07813,-18.4531 2.64063,-19.4219 C3.20313,-20.3906 3.96094,-21.1563 4.91406,-21.7188 C5.86719,-22.2813 6.89583,-22.5625 8,-22.5625 C10.1354,-22.5625 11.8333,-21.8385 13.0938,-20.3906 L14.4063,-22.4688 C14.4688,-22.5313 14.5417,-22.5625 14.625,-22.5625 L14.8438,-22.5625 C14.9063,-22.5625 14.9661,-22.5391 15.0234,-22.4922 C15.0807,-22.4453 15.1094,-22.3802 15.1094,-22.2969 L15.1094,-14.875 C15.1094,-14.6875 15.0208,-14.5938 14.8438,-14.5938 L14.4688,-14.5938 C14.2708,-14.5938 14.1719,-14.6875 14.1719,-14.875 C14.1719,-15.4167 14.0807,-16.0104 13.8984,-16.6563 C13.7161,-17.3021 13.4635,-17.9219 13.1406,-18.5156 C12.8177,-19.1094 12.4688,-19.5938 12.0938,-19.9688 C11.0625,-21.0104 9.69792,-21.5313 8,-21.5313 C7.27083,-21.5313 6.59896,-21.3464 5.98438,-20.9766 C5.36979,-20.6068 4.88021,-20.1042 4.51563,-19.4688 C4.15104,-18.8333 3.96875,-18.1667 3.96875,-17.4688 C3.96875,-16.5521 4.2526,-15.7214 4.82031,-14.9766 C5.38802,-14.2318 6.13021,-13.7396 7.04688,-13.5 L11.2031,-12.4844 C11.8906,-12.3177 12.5391,-12.0182 13.1484,-11.5859 C13.7578,-11.1536 14.2656,-10.651 14.6719,-10.0781 C15.0781,-9.50521 15.3958,-8.86719 15.625,-8.16406 C15.8542,-7.46094 15.9688,-6.73438 15.9688,-5.98438 C15.9688,-4.82813 15.7031,-3.73698 15.1719,-2.71094 C14.6406,-1.6849 13.8932,-0.859375 12.9297,-0.234375 C11.9661,0.390625 10.9115,0.703125 9.76563,0.703125 C9.05729,0.703125 8.33333,0.625 7.59375,0.46875 C6.85417,0.3125 6.17188,0.0729167 5.54688,-0.25 C4.92188,-0.572917 4.35417,-0.989583 3.84375,-1.5 L2.5,0.609375 C2.4375,0.671875 2.35938,0.703125 2.26563,0.703125 L2.07813,0.703125 C1.89063,0.703125 1.79688,0.619792 1.79688,0.453125 "/>
</g>

<g fill="#212121" fill-opacity="1" stroke="none" transform="matrix(0.431033,0,0,0.435877,145.088,11.5252)"
font-family="MS Shell Dlg 2" font-size="8.14286" font-weight="400" font-style="normal" 
>
<path vector-effect="none" fill-rule="evenodd" d="M3.45313,-3.8125 L3.45313,-10.875 C3.45313,-11.4479 3.36719,-11.862 3.19531,-12.1172 C3.02344,-12.3724 2.77604,-12.5286 2.45313,-12.5859 C2.13021,-12.6432 1.63021,-12.6719 0.953125,-12.6719 L0.953125,-13.7969 L5.79688,-14.1406 L5.79688,-3.82813 C5.79688,-2.99479 5.85677,-2.34635 5.97656,-1.88281 C6.09635,-1.41927 6.35156,-1.07292 6.74219,-0.84375 C7.13281,-0.614583 7.75521,-0.5 8.60938,-0.5 C9.75521,-0.5 10.6667,-0.979167 11.3438,-1.9375 C12.0208,-2.89583 12.3594,-3.98438 12.3594,-5.20313 L12.3594,-10.875 C12.3594,-11.4479 12.2708,-11.862 12.0938,-12.1172 C11.9167,-12.3724 11.6693,-12.5286 11.3516,-12.5859 C11.0339,-12.6432 10.5365,-12.6719 9.85938,-12.6719 L9.85938,-13.7969 L14.6875,-14.1406 L14.6875,-2.90625 C14.6875,-2.34375 14.7734,-1.9349 14.9453,-1.67969 C15.1172,-1.42448 15.3646,-1.26823 15.6875,-1.21094 C16.0104,-1.15365 16.5104,-1.125 17.1875,-1.125 L17.1875,0 L12.4531,0.359375 L12.4531,-2.35938 C12.0573,-1.55729 11.5052,-0.903646 10.7969,-0.398438 C10.0885,0.106771 9.30729,0.359375 8.45313,0.359375 C6.92188,0.359375 5.70573,0.0338542 4.80469,-0.617188 C3.90365,-1.26823 3.45313,-2.33333 3.45313,-3.8125 "/>
</g>

<g fill="#212121" fill-opacity="1" stroke="none" transform="matrix(0.431033,0,0,0.435877,152.91,11.5252)"
font-family="MS Shell Dlg 2" font-size="8.14286" font-weight="400" font-style="normal" 
>
<path vector-effect="none" fill-rule="evenodd" d="M0.953125,0 L0.953125,-1.125 C1.68229,-1.125 2.28125,-1.18229 2.75,-1.29688 C3.21875,-1.41146 3.45313,-1.69271 3.45313,-2.14063 L3.45313,-10.875 C3.45313,-11.4479 3.36719,-11.862 3.19531,-12.1172 C3.02344,-12.3724 2.77604,-12.5286 2.45313,-12.5859 C2.13021,-12.6432 1.63021,-12.6719 0.953125,-12.6719 L0.953125,-13.7969 L5.59375,-14.1406 L5.59375,-11.0156 C6.02083,-11.9323 6.65365,-12.6823 7.49219,-13.2656 C8.33073,-13.849 9.24479,-14.1406 10.2344,-14.1406 C12.6927,-14.1406 14.1354,-13.1406 14.5625,-11.1406 C14.9896,-12.0365 15.6146,-12.7604 16.4375,-13.3125 C17.2604,-13.8646 18.1615,-14.1406 19.1406,-14.1406 C20.1094,-14.1406 20.9245,-13.9844 21.5859,-13.6719 C22.2474,-13.3594 22.7448,-12.8828 23.0781,-12.2422 C23.4115,-11.6016 23.5781,-10.7969 23.5781,-9.82813 L23.5781,-2.14063 C23.5781,-1.69271 23.8151,-1.41146 24.2891,-1.29688 C24.763,-1.18229 25.3594,-1.125 26.0781,-1.125 L26.0781,0 L18.75,0 L18.75,-1.125 C19.4792,-1.125 20.0781,-1.18229 20.5469,-1.29688 C21.0156,-1.41146 21.25,-1.69271 21.25,-2.14063 L21.25,-9.73438 C21.25,-10.8073 21.099,-11.6719 20.7969,-12.3281 C20.4948,-12.9844 19.875,-13.3125 18.9375,-13.3125 C17.7083,-13.3125 16.6927,-12.8177 15.8906,-11.8281 C15.0885,-10.8385 14.6875,-9.71354 14.6875,-8.45313 L14.6875,-2.14063 C14.6875,-1.69271 14.9219,-1.41146 15.3906,-1.29688 C15.8594,-1.18229 16.4583,-1.125 17.1875,-1.125 L17.1875,0 L9.85938,0 L9.85938,-1.125 C10.5885,-1.125 11.1875,-1.18229 11.6563,-1.29688 C12.125,-1.41146 12.3594,-1.69271 12.3594,-2.14063 L12.3594,-9.73438 C12.3594,-10.776 12.2083,-11.6328 11.9063,-12.3047 C11.6042,-12.9766 10.9844,-13.3125 10.0469,-13.3125 C8.80729,-13.3125 7.78906,-12.8177 6.99219,-11.8281 C6.19531,-10.8385 5.79688,-9.71354 5.79688,-8.45313 L5.79688,-2.14063 C5.79688,-1.69271 6.03125,-1.41146 6.5,-1.29688 C6.96875,-1.18229 7.5625,-1.125 8.28125,-1.125 L8.28125,0 L0.953125,0"/>
</g>

<g fill="#212121" fill-opacity="1" stroke="none" transform="matrix(0.431033,0,0,0.435877,169.337,11.5252)"
font-family="MS Shell Dlg 2" font-size="8.14286" font-weight="400" font-style="normal" 
>
<path vector-effect="none" fill-rule="evenodd" d="M8,0.359375 C6.71875,0.359375 5.53125,0.0338542 4.4375,-0.617188 C3.34375,-1.26823 2.47917,-2.14063 1.84375,-3.23438 C1.20833,-4.32813 0.890625,-5.52083 0.890625,-6.8125 C0.890625,-7.79167 1.0651,-8.73438 1.41406,-9.64063 C1.76302,-10.5469 2.26302,-11.3568 2.91406,-12.0703 C3.5651,-12.7839 4.32292,-13.3411 5.1875,-13.7422 C6.05208,-14.1432 6.98958,-14.3438 8,-14.3438 C9.3125,-14.3438 10.5078,-13.9974 11.5859,-13.3047 C12.6641,-12.612 13.5156,-11.6849 14.1406,-10.5234 C14.7656,-9.36198 15.0781,-8.125 15.0781,-6.8125 C15.0781,-5.53125 14.7604,-4.34115 14.125,-3.24219 C13.4896,-2.14323 12.6276,-1.26823 11.5391,-0.617188 C10.4505,0.0338542 9.27083,0.359375 8,0.359375 M8,-0.59375 C9.70833,-0.59375 10.849,-1.21094 11.4219,-2.44531 C11.9948,-3.67969 12.2813,-5.25521 12.2813,-7.17188 C12.2813,-8.24479 12.224,-9.13021 12.1094,-9.82813 C11.9948,-10.526 11.7448,-11.1615 11.3594,-11.7344 C11.1198,-12.0885 10.8151,-12.3984 10.4453,-12.6641 C10.0755,-12.9297 9.6849,-13.1328 9.27344,-13.2734 C8.86198,-13.4141 8.4375,-13.4844 8,-13.4844 C7.33333,-13.4844 6.70052,-13.3333 6.10156,-13.0313 C5.5026,-12.7292 5.00521,-12.2969 4.60938,-11.7344 C4.21354,-11.1302 3.96094,-10.4688 3.85156,-9.75 C3.74219,-9.03125 3.6875,-8.17188 3.6875,-7.17188 C3.6875,-5.97396 3.79167,-4.90104 4,-3.95313 C4.20833,-3.00521 4.6276,-2.20833 5.25781,-1.5625 C5.88802,-0.916667 6.80208,-0.59375 8,-0.59375 "/>
</g>

<g fill="#212121" fill-opacity="1" stroke="none" transform="matrix(0.431033,0,0,0.435877,176.378,11.5252)"
font-family="MS Shell Dlg 2" font-size="8.14286" font-weight="400" font-style="normal" 
>
<path vector-effect="none" fill-rule="evenodd" d="M1.03125,0 L1.03125,-1.125 C1.75,-1.125 2.34375,-1.18229 2.8125,-1.29688 C3.28125,-1.41146 3.51563,-1.69271 3.51563,-2.14063 L3.51563,-12.6719 L1.0625,-12.6719 L1.0625,-13.7969 L3.51563,-13.7969 L3.51563,-17.625 C3.51563,-18.3125 3.65885,-18.9557 3.94531,-19.5547 C4.23177,-20.1536 4.61719,-20.6771 5.10156,-21.125 C5.58594,-21.5729 6.14323,-21.9245 6.77344,-22.1797 C7.40365,-22.4349 8.05729,-22.5625 8.73438,-22.5625 C9.45313,-22.5625 10.1016,-22.349 10.6797,-21.9219 C11.2578,-21.4948 11.5469,-20.9271 11.5469,-20.2188 C11.5469,-19.8125 11.4089,-19.4714 11.1328,-19.1953 C10.8568,-18.9193 10.5156,-18.7813 10.1094,-18.7813 C9.70313,-18.7813 9.35677,-18.9193 9.07031,-19.1953 C8.78385,-19.4714 8.64063,-19.8125 8.64063,-20.2188 C8.64063,-20.8854 8.92708,-21.3333 9.5,-21.5625 C9.15625,-21.6771 8.84896,-21.7344 8.57813,-21.7344 C7.95313,-21.7344 7.41927,-21.513 6.97656,-21.0703 C6.53385,-20.6276 6.20313,-20.0885 5.98438,-19.4531 C5.76563,-18.8177 5.65625,-18.1875 5.65625,-17.5625 L5.65625,-13.7969 L9.34375,-13.7969 L9.34375,-12.6719 L5.76563,-12.6719 L5.76563,-2.14063 C5.76563,-1.70313 6.07813,-1.42448 6.70313,-1.30469 C7.32813,-1.1849 8.04688,-1.125 8.85938,-1.125 L8.85938,0 L1.03125,0"/>
</g>

<g fill="#212121" fill-opacity="1" stroke="none" transform="matrix(0.431033,0,0,0.435877,185.373,11.5252)"
font-family="MS Shell Dlg 2" font-size="8.14286" font-weight="400" font-style="normal" 
>
<path vector-effect="none" fill-rule="evenodd" d="M7.29688,-3.42188 C8.02604,-2.49479 8.9375,-1.76302 10.0313,-1.22656 C11.125,-0.690104 12.2604,-0.421875 13.4375,-0.421875 C14.4271,-0.421875 15.3438,-0.617188 16.1875,-1.00781 C17.0313,-1.39844 17.7682,-1.94271 18.3984,-2.64063 C19.0286,-3.33854 19.513,-4.13021 19.8516,-5.01563 C20.1901,-5.90104 20.3594,-6.83333 20.3594,-7.8125 C20.3594,-7.97917 20.4531,-8.0625 20.6406,-8.0625 L21.0313,-8.0625 C21.1979,-8.0625 21.2813,-7.95833 21.2813,-7.75 C21.2813,-6.63542 21.0677,-5.5599 20.6406,-4.52344 C20.2135,-3.48698 19.6094,-2.57552 18.8281,-1.78906 C18.0469,-1.0026 17.1484,-0.390625 16.1328,0.046875 C15.1172,0.484375 14.0573,0.703125 12.9531,0.703125 C11.4219,0.703125 9.97135,0.393229 8.60156,-0.226563 C7.23177,-0.846354 6.03906,-1.69531 5.02344,-2.77344 C4.00781,-3.85156 3.21615,-5.09896 2.64844,-6.51563 C2.08073,-7.93229 1.79688,-9.40625 1.79688,-10.9375 C1.79688,-12.4688 2.08073,-13.9427 2.64844,-15.3594 C3.21615,-16.776 4.00781,-18.026 5.02344,-19.1094 C6.03906,-20.1927 7.23177,-21.0391 8.60156,-21.6484 C9.97135,-22.2578 11.4219,-22.5625 12.9531,-22.5625 C14.0469,-22.5625 15.0938,-22.3255 16.0938,-21.8516 C17.0938,-21.3776 17.9688,-20.7083 18.7188,-19.8438 L20.5781,-22.4688 C20.7031,-22.5313 20.776,-22.5625 20.7969,-22.5625 L21.0313,-22.5625 C21.0938,-22.5625 21.151,-22.5365 21.2031,-22.4844 C21.2552,-22.4323 21.2813,-22.3698 21.2813,-22.2969 L21.2813,-13.6563 C21.2813,-13.4688 21.1979,-13.375 21.0313,-13.375 L20.4531,-13.375 C20.2552,-13.375 20.1563,-13.4688 20.1563,-13.6563 C20.1563,-14.2708 20.0339,-14.9583 19.7891,-15.7188 C19.5443,-16.4792 19.2318,-17.2005 18.8516,-17.8828 C18.4714,-18.5651 18.0313,-19.1667 17.5313,-19.6875 C16.3333,-20.8542 14.9583,-21.4375 13.4063,-21.4375 C12.2292,-21.4375 11.1016,-21.1719 10.0234,-20.6406 C8.94531,-20.1094 8.03646,-19.375 7.29688,-18.4375 C6.51563,-17.4375 5.97396,-16.2995 5.67188,-15.0234 C5.36979,-13.7474 5.21875,-12.3854 5.21875,-10.9375 C5.21875,-9.48958 5.36979,-8.125 5.67188,-6.84375 C5.97396,-5.5625 6.51563,-4.42188 7.29688,-3.42188 "/>
</g>

<g fill="#212121" fill-opacity="1" stroke="none" transform="matrix(0.431033,0,0,0.435877,195.543,11.5252)"
font-family="MS Shell Dlg 2" font-size="8.14286" font-weight="400" font-style="normal" 
>
<path vector-effect="none" fill-rule="evenodd" d="M8,0.359375 C6.71875,0.359375 5.53125,0.0338542 4.4375,-0.617188 C3.34375,-1.26823 2.47917,-2.14063 1.84375,-3.23438 C1.20833,-4.32813 0.890625,-5.52083 0.890625,-6.8125 C0.890625,-7.79167 1.0651,-8.73438 1.41406,-9.64063 C1.76302,-10.5469 2.26302,-11.3568 2.91406,-12.0703 C3.5651,-12.7839 4.32292,-13.3411 5.1875,-13.7422 C6.05208,-14.1432 6.98958,-14.3438 8,-14.3438 C9.3125,-14.3438 10.5078,-13.9974 11.5859,-13.3047 C12.6641,-12.612 13.5156,-11.6849 14.1406,-10.5234 C14.7656,-9.36198 15.0781,-8.125 15.0781,-6.8125 C15.0781,-5.53125 14.7604,-4.34115 14.125,-3.24219 C13.4896,-2.14323 12.6276,-1.26823 11.5391,-0.617188 C10.4505,0.0338542 9.27083,0.359375 8,0.359375 M8,-0.59375 C9.70833,-0.59375 10.849,-1.21094 11.4219,-2.44531 C11.9948,-3.67969 12.2813,-5.25521 12.2813,-7.17188 C12.2813,-8.24479 12.224,-9.13021 12.1094,-9.82813 C11.9948,-10.526 11.7448,-11.1615 11.3594,-11.7344 C11.1198,-12.0885 10.8151,-12.3984 10.4453,-12.6641 C10.0755,-12.9297 9.6849,-13.1328 9.27344,-13.2734 C8.86198,-13.4141 8.4375,-13.4844 8,-13.4844 C7.33333,-13.4844 6.70052,-13.3333 6.10156,-13.0313 C5.5026,-12.7292 5.00521,-12.2969 4.60938,-11.7344 C4.21354,-11.1302 3.96094,-10.4688 3.85156,-9.75 C3.74219,-9.03125 3.6875,-8.17188 3.6875,-7.17188 C3.6875,-5.97396 3.79167,-4.90104 4,-3.95313 C4.20833,-3.00521 4.6276,-2.20833 5.25781,-1.5625 C5.88802,-0.916667 6.80208,-0.59375 8,-0.59375 "/>
</g>

<g fill="#212121" fill-opacity="1" stroke="none" transform="matrix(0.431033,0,0,0.435877,202.583,11.5252)"
font-family="MS Shell Dlg 2" font-size="8.14286" font-weight="400" font-style="normal" 
>
<path vector-effect="none" fill-rule="evenodd" d="M0.953125,0 L0.953125,-1.125 C1.68229,-1.125 2.28125,-1.18229 2.75,-1.29688 C3.21875,-1.41146 3.45313,-1.69271 3.45313,-2.14063 L3.45313,-10.875 C3.45313,-11.4479 3.36719,-11.862 3.19531,-12.1172 C3.02344,-12.3724 2.77604,-12.5286 2.45313,-12.5859 C2.13021,-12.6432 1.63021,-12.6719 0.953125,-12.6719 L0.953125,-13.7969 L5.59375,-14.1406 L5.59375,-11.0156 C6.02083,-11.9323 6.65365,-12.6823 7.49219,-13.2656 C8.33073,-13.849 9.24479,-14.1406 10.2344,-14.1406 C12.6927,-14.1406 14.1354,-13.1406 14.5625,-11.1406 C14.9896,-12.0365 15.6146,-12.7604 16.4375,-13.3125 C17.2604,-13.8646 18.1615,-14.1406 19.1406,-14.1406 C20.1094,-14.1406 20.9245,-13.9844 21.5859,-13.6719 C22.2474,-13.3594 22.7448,-12.8828 23.0781,-12.2422 C23.4115,-11.6016 23.5781,-10.7969 23.5781,-9.82813 L23.5781,-2.14063 C23.5781,-1.69271 23.8151,-1.41146 24.2891,-1.29688 C24.763,-1.18229 25.3594,-1.125 26.0781,-1.125 L26.0781,0 L18.75,0 L18.75,-1.125 C19.4792,-1.125 20.0781,-1.18229 20.5469,-1.29688 C21.0156,-1.41146 21.25,-1.69271 21.25,-2.14063 L21.25,-9.73438 C21.25,-10.8073 21.099,-11.6719 20.7969,-12.3281 C20.4948,-12.9844 19.875,-13.3125 18.9375,-13.3125 C17.7083,-13.3125 16.6927,-12.8177 15.8906,-11.8281 C15.0885,-10.8385 14.6875,-9.71354 14.6875,-8.45313 L14.6875,-2.14063 C14.6875,-1.69271 14.9219,-1.41146 15.3906,-1.29688 C15.8594,-1.18229 16.4583,-1.125 17.1875,-1.125 L17.1875,0 L9.85938,0 L9.85938,-1.125 C10.5885,-1.125 11.1875,-1.18229 11.6563,-1.29688 C12.125,-1.41146 12.3594,-1.69271 12.3594,-2.14063 L12.3594,-9.73438 C12.3594,-10.776 12.2083,-11.6328 11.9063,-12.3047 C11.6042,-12.9766 10.9844,-13.3125 10.0469,-13.3125 C8.80729,-13.3125 7.78906,-12.8177 6.99219,-11.8281 C6.19531,-10.8385 5.79688,-9.71354 5.79688,-8.45313 L5.79688,-2.14063 C5.79688,-1.69271 6.03125,-1.41146 6.5,-1.29688 C6.96875,-1.18229 7.5625,-1.125 8.28125,-1.125 L8.28125,0 L0.953125,0"/>
</g>

<g fill="#212121" fill-opacity="1" stroke="none" transform="matrix(0.431033,0,0,0.435877,214.317,11.5252)"
font-family="MS Shell Dlg 2" font-size="8.14286" font-weight="400" font-style="normal" 
>
<path vector-effect="none" fill-rule="evenodd" d="M0.828125,6.20313 L0.828125,5.09375 C1.55729,5.09375 2.15625,5.03125 2.625,4.90625 C3.09375,4.78125 3.32813,4.5 3.32813,4.0625 L3.32813,-11.3594 C3.32813,-11.9427 3.11979,-12.3073 2.70313,-12.4531 C2.28646,-12.599 1.66146,-12.6719 0.828125,-12.6719 L0.828125,-13.7969 L5.5625,-14.1406 L5.5625,-12.1563 C6.14583,-12.8021 6.82552,-13.2943 7.60156,-13.6328 C8.3776,-13.9714 9.20313,-14.1406 10.0781,-14.1406 C11.3385,-14.1406 12.474,-13.7995 13.4844,-13.1172 C14.4948,-12.4349 15.2839,-11.5391 15.8516,-10.4297 C16.4193,-9.32031 16.7031,-8.14583 16.7031,-6.90625 C16.7031,-5.61458 16.388,-4.41146 15.7578,-3.29688 C15.1276,-2.18229 14.2682,-1.29427 13.1797,-0.632813 C12.0911,0.0286458 10.8958,0.359375 9.59375,0.359375 C8.04167,0.359375 6.72917,-0.276042 5.65625,-1.54688 L5.65625,4.0625 C5.65625,4.5 5.89323,4.78125 6.36719,4.90625 C6.84115,5.03125 7.4375,5.09375 8.15625,5.09375 L8.15625,6.20313 L0.828125,6.20313 M5.65625,-3.125 C6.03125,-2.36458 6.55208,-1.73698 7.21875,-1.24219 C7.88542,-0.747396 8.61458,-0.5 9.40625,-0.5 C10.1458,-0.5 10.7995,-0.697917 11.3672,-1.09375 C11.9349,-1.48958 12.4115,-2.02083 12.7969,-2.6875 C13.1823,-3.35417 13.4661,-4.05469 13.6484,-4.78906 C13.8307,-5.52344 13.9219,-6.23438 13.9219,-6.92188 C13.9219,-7.76563 13.7682,-8.6849 13.4609,-9.67969 C13.1536,-10.6745 12.6849,-11.513 12.0547,-12.1953 C11.4245,-12.8776 10.6615,-13.2188 9.76563,-13.2188 C8.90104,-13.2188 8.10677,-12.9974 7.38281,-12.5547 C6.65885,-12.112 6.08333,-11.5104 5.65625,-10.75 L5.65625,-3.125"/>
</g>

<g fill="#212121" fill-opacity="1" stroke="none" transform="matrix(0.431033,0,0,0.435877,222.53,11.5252)"
font-family="MS Shell Dlg 2" font-size="8.14286" font-weight="400" font-style="normal" 
>
<path vector-effect="none" fill-rule="evenodd" d="M8,0.359375 C6.71875,0.359375 5.53125,0.0338542 4.4375,-0.617188 C3.34375,-1.26823 2.47917,-2.14063 1.84375,-3.23438 C1.20833,-4.32813 0.890625,-5.52083 0.890625,-6.8125 C0.890625,-7.79167 1.0651,-8.73438 1.41406,-9.64063 C1.76302,-10.5469 2.26302,-11.3568 2.91406,-12.0703 C3.5651,-12.7839 4.32292,-13.3411 5.1875,-13.7422 C6.05208,-14.1432 6.98958,-14.3438 8,-14.3438 C9.3125,-14.3438 10.5078,-13.9974 11.5859,-13.3047 C12.6641,-12.612 13.5156,-11.6849 14.1406,-10.5234 C14.7656,-9.36198 15.0781,-8.125 15.0781,-6.8125 C15.0781,-5.53125 14.7604,-4.34115 14.125,-3.24219 C13.4896,-2.14323 12.6276,-1.26823 11.5391,-0.617188 C10.4505,0.0338542 9.27083,0.359375 8,0.359375 M8,-0.59375 C9.70833,-0.59375 10.849,-1.21094 11.4219,-2.44531 C11.9948,-3.67969 12.2813,-5.25521 12.2813,-7.17188 C12.2813,-8.24479 12.224,-9.13021 12.1094,-9.82813 C11.9948,-10.526 11.7448,-11.1615 11.3594,-11.7344 C11.1198,-12.0885 10.8151,-12.3984 10.4453,-12.6641 C10.0755,-12.9297 9.6849,-13.1328 9.27344,-13.2734 C8.86198,-13.4141 8.4375,-13.4844 8,-13.4844 C7.33333,-13.4844 6.70052,-13.3333 6.10156,-13.0313 C5.5026,-12.7292 5.00521,-12.2969 4.60938,-11.7344 C4.21354,-11.1302 3.96094,-10.4688 3.85156,-9.75 C3.74219,-9.03125 3.6875,-8.17188 3.6875,-7.17188 C3.6875,-5.97396 3.79167,-4.90104 4,-3.95313 C4.20833,-3.00521 4.6276,-2.20833 5.25781,-1.5625 C5.88802,-0.916667 6.80208,-0.59375 8,-0.59375 "/>
</g>

<g fill="#212121" fill-opacity="1" stroke="none" transform="matrix(0.431033,0,0,0.435877,229.57,11.5252)"
font-family="MS Shell Dlg 2" font-size="8.14286" font-weight="400" font-style="normal" 
>
<path vector-effect="none" fill-rule="evenodd" d="M0.953125,0 L0.953125,-1.125 C1.68229,-1.125 2.28125,-1.18229 2.75,-1.29688 C3.21875,-1.41146 3.45313,-1.69271 3.45313,-2.14063 L3.45313,-10.875 C3.45313,-11.4479 3.36719,-11.862 3.19531,-12.1172 C3.02344,-12.3724 2.77604,-12.5286 2.45313,-12.5859 C2.13021,-12.6432 1.63021,-12.6719 0.953125,-12.6719 L0.953125,-13.7969 L5.59375,-14.1406 L5.59375,-11.0156 C6.02083,-11.9323 6.65365,-12.6823 7.49219,-13.2656 C8.33073,-13.849 9.24479,-14.1406 10.2344,-14.1406 C11.7135,-14.1406 12.8255,-13.7865 13.5703,-13.0781 C14.3151,-12.3698 14.6875,-11.2865 14.6875,-9.82813 L14.6875,-2.14063 C14.6875,-1.69271 14.9219,-1.41146 15.3906,-1.29688 C15.8594,-1.18229 16.4583,-1.125 17.1875,-1.125 L17.1875,0 L9.85938,0 L9.85938,-1.125 C10.5885,-1.125 11.1875,-1.18229 11.6563,-1.29688 C12.125,-1.41146 12.3594,-1.69271 12.3594,-2.14063 L12.3594,-9.73438 C12.3594,-10.776 12.2083,-11.6328 11.9063,-12.3047 C11.6042,-12.9766 10.9844,-13.3125 10.0469,-13.3125 C8.80729,-13.3125 7.78906,-12.8177 6.99219,-11.8281 C6.19531,-10.8385 5.79688,-9.71354 5.79688,-8.45313 L5.79688,-2.14063 C5.79688,-1.69271 6.03125,-1.41146 6.5,-1.29688 C6.96875,-1.18229 7.5625,-1.125 8.28125,-1.125 L8.28125,0 L0.953125,0"/>
</g>

<g fill="#212121" fill-opacity="1" stroke="none" transform="matrix(0.431033,0,0,0.435877,237.393,11.5252)"
font-family="MS Shell Dlg 2" font-size="8.14286" font-weight="400" font-style="normal" 
>
<path vector-effect="none" fill-rule="evenodd" d="M7.96875,0.359375 C6.66667,0.359375 5.47135,0.0182292 4.38281,-0.664063 C3.29427,-1.34635 2.4401,-2.25781 1.82031,-3.39844 C1.20052,-4.53906 0.890625,-5.74479 0.890625,-7.01563 C0.890625,-8.26563 1.17448,-9.45313 1.74219,-10.5781 C2.3099,-11.7031 3.10156,-12.612 4.11719,-13.3047 C5.13281,-13.9974 6.26563,-14.3438 7.51563,-14.3438 C8.49479,-14.3438 9.34635,-14.1797 10.0703,-13.8516 C10.7943,-13.5234 11.3906,-13.0677 11.8594,-12.4844 C12.3281,-11.901 12.6823,-11.2135 12.9219,-10.4219 C13.1615,-9.63021 13.2813,-8.76042 13.2813,-7.8125 C13.2813,-7.53125 13.1719,-7.39063 12.9531,-7.39063 L3.6875,-7.39063 L3.6875,-7.04688 C3.6875,-5.27604 4.04427,-3.75781 4.75781,-2.49219 C5.47135,-1.22656 6.63542,-0.59375 8.25,-0.59375 C8.90625,-0.59375 9.51302,-0.739583 10.0703,-1.03125 C10.6276,-1.32292 11.112,-1.72917 11.5234,-2.25 C11.9349,-2.77083 12.2135,-3.32813 12.3594,-3.92188 C12.3802,-3.99479 12.4193,-4.05729 12.4766,-4.10938 C12.5339,-4.16146 12.599,-4.1875 12.6719,-4.1875 L12.9531,-4.1875 C13.1719,-4.1875 13.2813,-4.05729 13.2813,-3.79688 C12.9792,-2.57813 12.3281,-1.58073 11.3281,-0.804688 C10.3281,-0.0286458 9.20833,0.359375 7.96875,0.359375 M3.71875,-8.1875 L11.0156,-8.1875 C11.0156,-8.98958 10.9036,-9.79948 10.6797,-10.6172 C10.4557,-11.4349 10.0833,-12.1172 9.5625,-12.6641 C9.04167,-13.2109 8.35938,-13.4844 7.51563,-13.4844 C6.30729,-13.4844 5.3724,-12.9219 4.71094,-11.7969 C4.04948,-10.6719 3.71875,-9.46875 3.71875,-8.1875 "/>
</g>

<g fill="#212121" fill-opacity="1" stroke="none" transform="matrix(0.431033,0,0,0.435877,243.651,11.5252)"
font-family="MS Shell Dlg 2" font-size="8.14286" font-weight="400" font-style="normal" 
>
<path vector-effect="none" fill-rule="evenodd" d="M0.953125,0 L0.953125,-1.125 C1.68229,-1.125 2.28125,-1.18229 2.75,-1.29688 C3.21875,-1.41146 3.45313,-1.69271 3.45313,-2.14063 L3.45313,-10.875 C3.45313,-11.4479 3.36719,-11.862 3.19531,-12.1172 C3.02344,-12.3724 2.77604,-12.5286 2.45313,-12.5859 C2.13021,-12.6432 1.63021,-12.6719 0.953125,-12.6719 L0.953125,-13.7969 L5.59375,-14.1406 L5.59375,-11.0156 C6.02083,-11.9323 6.65365,-12.6823 7.49219,-13.2656 C8.33073,-13.849 9.24479,-14.1406 10.2344,-14.1406 C11.7135,-14.1406 12.8255,-13.7865 13.5703,-13.0781 C14.3151,-12.3698 14.6875,-11.2865 14.6875,-9.82813 L14.6875,-2.14063 C14.6875,-1.69271 14.9219,-1.41146 15.3906,-1.29688 C15.8594,-1.18229 16.4583,-1.125 17.1875,-1.125 L17.1875,0 L9.85938,0 L9.85938,-1.125 C10.5885,-1.125 11.1875,-1.18229 11.6563,-1.29688 C12.125,-1.41146 12.3594,-1.69271 12.3594,-2.14063 L12.3594,-9.73438 C12.3594,-10.776 12.2083,-11.6328 11.9063,-12.3047 C11.6042,-12.9766 10.9844,-13.3125 10.0469,-13.3125 C8.80729,-13.3125 7.78906,-12.8177 6.99219,-11.8281 C6.19531,-10.8385 5.79688,-9.71354 5.79688,-8.45313 L5.79688,-2.14063 C5.79688,-1.69271 6.03125,-1.41146 6.5,-1.29688 C6.96875,-1.18229 7.5625,-1.125 8.28125,-1.125 L8.28125,0 L0.953125,0"/>
</g>

<g fill="#212121" fill-opacity="1" stroke="none" transform="matrix(0.431033,0,0,0.435877,251.082,11.5252)"
font-family="MS Shell Dlg 2" font-size="8.14286" font-weight="400" font-style="normal" 
>
<path vector-effect="none" fill-rule="evenodd" d="M3.26563,-3.84375 L3.26563,-12.6719 L0.609375,-12.6719 L0.609375,-13.5 C2.00521,-13.5 3.03125,-14.151 3.6875,-15.4531 C4.34375,-16.7552 4.67188,-18.1667 4.67188,-19.6875 L5.59375,-19.6875 L5.59375,-13.7969 L10.1094,-13.7969 L10.1094,-12.6719 L5.59375,-12.6719 L5.59375,-3.92188 C5.59375,-3.03646 5.74219,-2.26042 6.03906,-1.59375 C6.33594,-0.927083 6.86979,-0.59375 7.64063,-0.59375 C8.36979,-0.59375 8.89583,-0.945313 9.21875,-1.64844 C9.54167,-2.35156 9.70313,-3.10938 9.70313,-3.92188 L9.70313,-5.8125 L10.625,-5.8125 L10.625,-3.84375 C10.625,-3.17708 10.5026,-2.51823 10.2578,-1.86719 C10.013,-1.21615 9.65104,-0.682292 9.17188,-0.265625 C8.69271,0.151042 8.10938,0.359375 7.42188,0.359375 C6.14063,0.359375 5.1276,-0.0234375 4.38281,-0.789063 C3.63802,-1.55469 3.26563,-2.57292 3.26563,-3.84375 "/>
</g>

<g fill="#212121" fill-opacity="1" stroke="none" transform="matrix(0.431033,0,0,0.435877,256.558,11.5252)"
font-family="MS Shell Dlg 2" font-size="8.14286" font-weight="400" font-style="normal" 
>
<path vector-effect="none" fill-rule="evenodd" d="M1.0625,0.09375 L1.0625,-5.14063 C1.0625,-5.30729 1.15625,-5.39063 1.34375,-5.39063 L1.73438,-5.39063 C1.85938,-5.39063 1.94271,-5.30729 1.98438,-5.14063 C2.57813,-2.04688 4.01563,-0.5 6.29688,-0.5 C7.30729,-0.5 8.15365,-0.729167 8.83594,-1.1875 C9.51823,-1.64583 9.85938,-2.35417 9.85938,-3.3125 C9.85938,-4 9.59375,-4.58594 9.0625,-5.07031 C8.53125,-5.55469 7.90104,-5.88542 7.17188,-6.0625 L5.03125,-6.48438 C4.3125,-6.64063 3.65885,-6.88021 3.07031,-7.20313 C2.48177,-7.52604 2,-7.95573 1.625,-8.49219 C1.25,-9.02865 1.0625,-9.65104 1.0625,-10.3594 C1.0625,-11.2865 1.3099,-12.0495 1.80469,-12.6484 C2.29948,-13.2474 2.94271,-13.6797 3.73438,-13.9453 C4.52604,-14.2109 5.38021,-14.3438 6.29688,-14.3438 C7.39063,-14.3438 8.34375,-14.0573 9.15625,-13.4844 L10.0781,-14.2656 C10.0781,-14.3177 10.1302,-14.3438 10.2344,-14.3438 L10.4688,-14.3438 C10.5313,-14.3438 10.5885,-14.3151 10.6406,-14.2578 C10.6927,-14.2005 10.7188,-14.1406 10.7188,-14.0781 L10.7188,-9.90625 C10.7188,-9.70833 10.6354,-9.60938 10.4688,-9.60938 L10.0781,-9.60938 C9.89063,-9.60938 9.79688,-9.70833 9.79688,-9.90625 C9.79688,-11.0208 9.48698,-11.9167 8.86719,-12.5938 C8.2474,-13.2708 7.38021,-13.6094 6.26563,-13.6094 C5.30729,-13.6094 4.47656,-13.4323 3.77344,-13.0781 C3.07031,-12.724 2.71875,-12.1146 2.71875,-11.25 C2.71875,-10.6563 2.97135,-10.1693 3.47656,-9.78906 C3.98177,-9.40885 4.57292,-9.13542 5.25,-8.96875 L7.42188,-8.5625 C8.15104,-8.39583 8.83073,-8.11458 9.46094,-7.71875 C10.0911,-7.32292 10.5911,-6.82292 10.9609,-6.21875 C11.3307,-5.61458 11.5156,-4.93229 11.5156,-4.17188 C11.5156,-3.39063 11.3828,-2.71615 11.1172,-2.14844 C10.8516,-1.58073 10.4818,-1.10938 10.0078,-0.734375 C9.53385,-0.359375 8.97396,-0.0833333 8.32813,0.09375 C7.68229,0.270833 7.00521,0.359375 6.29688,0.359375 C4.96354,0.359375 3.82292,-0.09375 2.875,-1 L1.70313,0.28125 C1.70313,0.333333 1.64583,0.359375 1.53125,0.359375 L1.34375,0.359375 C1.15625,0.359375 1.0625,0.270833 1.0625,0.09375 "/>
</g>

<g fill="none" stroke="#1171be" stroke-opacity="1" stroke-width="1.16667" stroke-linecap="butt" stroke-linejoin="round" transform="matrix(0.431033,0,0,0.435877,-706.027,-46.3331)"
font-family="MS Shell Dlg 2" font-size="8.14286" font-weight="400" font-style="normal" 
>
<polyline fill="none" vector-effect="none" points="1866.26,365.681 1868.2,378.25 1860.57,368.07 " />
<polyline fill="none" vector-effect="none" points="1860.06,402.138 1851.91,411.898 1854.51,399.45 " />
<polyline fill="none" vector-effect="none" points="1828.66,421.716 1815.95,422.124 1826.97,415.783 " />
<polyline fill="none" vector-effect="none" points="1793.09,411.43 1784.27,402.262 1796.36,406.204 " />
<polyline fill="none" vector-effect="none" points="1776.77,378.165 1777.61,365.476 1782.84,377.066 " />
<polyline fill="none" vector-effect="none" points="1790.24,343.626 1800.13,335.637 1795.16,347.342 " />
<polyline fill="none" vector-effect="none" points="1824.72,329.964 1837.31,331.749 1825.36,336.099 " />
<polyline fill="none" vector-effect="none" points="1858.32,345.741 1865.66,356.123 1854.29,350.418 " />
<polyline fill="none" vector-effect="none" points="1870.04,380.977 1867.6,393.458 1863.88,381.297 " />
<polyline fill="none" vector-effect="none" points="1852.76,413.871 1842.09,420.785 1848.25,409.662 " />
<polyline fill="none" vector-effect="none" points="1817.11,424.43 1804.71,421.623 1816.98,418.263 " />
<polyline fill="none" vector-effect="none" points="1784.57,406.417 1777.85,395.621 1788.86,401.985 " />
<polyline fill="none" vector-effect="none" points="1774.37,370.624 1777.26,358.24 1780.54,370.527 " />
<polyline fill="none" vector-effect="none" points="1792.37,338.027 1803.14,331.258 1796.83,342.297 " />
<polyline fill="none" vector-effect="none" points="1828.08,327.379 1840.5,330.069 1828.27,333.544 " />
<polyline fill="none" vector-effect="none" points="1861.13,344.619 1868.19,355.194 1856.98,349.187 " />
<polyline fill="none" vector-effect="none" points="1873.03,379.962 1870.83,392.486 1866.88,380.397 " />
<polyline fill="none" vector-effect="none" points="1857.33,413.811 1847.12,421.396 1852.56,409.9 " />
<polyline fill="none" vector-effect="none" points="1822.7,427.758 1810.07,426.328 1821.89,421.643 " />
<polyline fill="none" vector-effect="none" points="1787.81,414.424 1779.5,404.797 1791.37,409.381 " />
<polyline fill="none" vector-effect="none" points="1771.11,380.999 1771.46,368.287 1777.13,379.672 " />
<polyline fill="none" vector-effect="none" points="1781.19,344.997 1789.97,335.805 1786.54,348.051 " />
<polyline fill="none" vector-effect="none" points="1812.74,324.908 1825.41,323.905 1814.7,330.756 " />
<polyline fill="none" vector-effect="none" points="1849.69,330.802 1859.86,338.44 1847.29,336.485 " />
<polyline fill="none" vector-effect="none" points="1873.61,359.599 1876.25,372.039 1868.07,362.304 " />
<polyline fill="none" vector-effect="none" points="1872.84,397.045 1866.71,408.187 1866.88,395.472 " />
<polyline fill="none" vector-effect="none" points="1847.89,425.002 1836,429.502 1844.38,419.935 " />
<polyline fill="none" vector-effect="none" points="1810.77,430.227 1798.78,426.001 1811.35,424.086 " />
<polyline fill="none" vector-effect="none" points="1778.94,410.408 1772.43,399.483 1783.31,406.06 " />
<polyline fill="none" vector-effect="none" points="1767.03,374.83 1768.95,362.26 1773.17,374.257 " />
<polyline fill="none" vector-effect="none" points="1780.33,339.733 1789.76,331.2 1785.45,343.166 " />
<polyline fill="none" vector-effect="none" points="1812.75,320.786 1825.44,320.05 1814.59,326.673 " />
<polyline fill="none" vector-effect="none" points="1849.91,326.211 1860.31,333.538 1847.69,331.964 " />
<polyline fill="none" vector-effect="none" points="1875.74,353.508 1879.38,365.692 1870.43,356.655 " />
<polyline fill="none" vector-effect="none" points="1879.31,390.929 1874.71,402.785 1873.19,390.159 " />
<polyline fill="none" vector-effect="none" points="1859.28,422.758 1848.41,429.358 1854.9,418.419 " />
<polyline fill="none" vector-effect="none" points="1824.05,435.942 1811.4,434.628 1823.18,429.835 " />
<polyline fill="none" vector-effect="none" points="1787.96,425.277 1778.63,416.636 1790.93,419.869 " />
<polyline fill="none" vector-effect="none" points="1765.37,395.165 1763.02,382.668 1770.97,392.589 " />
<polyline fill="none" vector-effect="none" points="1765,357.509 1770.49,346.037 1771.05,358.742 " />
<polyline fill="none" vector-effect="none" points="1786.85,326.819 1798.02,320.744 1791.02,331.362 " />
<polyline fill="none" vector-effect="none" points="1822.5,314.625 1835.12,316.18 1823.26,320.747 " />
<polyline fill="none" vector-effect="none" points="1858.65,325.31 1868.06,333.863 1855.73,330.745 " />
<polyline fill="none" vector-effect="none" points="1882.13,354.816 1884.95,367.215 1876.63,357.602 " />
<polyline fill="none" vector-effect="none" points="1884.64,392.45 1879.93,404.26 1878.53,391.621 " />
<polyline fill="none" vector-effect="none" points="1865.46,424.941 1854.92,432.048 1860.88,420.814 " />
<polyline fill="none" vector-effect="none" points="1831.37,441.131 1818.65,441.14 1829.87,435.148 " />
<polyline fill="none" vector-effect="none" points="1794.02,435.673 1783.42,428.641 1796.08,429.859 " />
<polyline fill="none" vector-effect="none" points="1765.82,410.551 1760.82,398.858 1770.74,406.822 " />
<polyline fill="none" vector-effect="none" points="1755.9,374.106 1758.06,361.575 1762.05,373.651 " />
<polyline fill="none" vector-effect="none" points="1767.26,338.074 1775.84,328.689 1772.69,341.008 " />
<polyline fill="none" vector-effect="none" points="1796.18,313.741 1808.45,310.393 1799.2,319.121 " />
<polyline fill="none" vector-effect="none" points="1833.61,308.482 1845.79,312.14 1833.32,314.644 " />
<polyline fill="none" vector-effect="none" points="1868.22,323.717 1876.66,333.222 1864.74,328.812 " />
<polyline fill="none" vector-effect="none" points="1889.8,354.77 1892.08,367.281 1884.18,357.313 " />
<polyline fill="none" vector-effect="none" points="1892.24,392.518 1887.75,404.415 1886.11,391.804 " />
<polyline fill="none" vector-effect="none" points="1875.02,426.204 1865.08,434.146 1870.11,422.464 " />
<polyline fill="none" vector-effect="none" points="1843.09,446.517 1830.5,448.353 1840.74,440.811 " />
<polyline fill="none" vector-effect="none" points="1805.27,448.06 1793.46,443.354 1806.09,441.947 " />
<polyline fill="none" vector-effect="none" points="1771.68,430.6 1763.75,420.66 1775.42,425.698 " />
<polyline fill="none" vector-effect="none" points="1751.02,398.865 1748.98,386.313 1756.69,396.429 " />
<polyline fill="none" vector-effect="none" points="1748.44,361.082 1752.75,349.118 1754.58,361.703 " />
<polyline fill="none" vector-effect="none" points="1764.39,326.728 1773.92,318.307 1769.48,330.221 " />
<polyline fill="none" vector-effect="none" points="1794.81,304.144 1807.2,301.266 1797.62,309.635 " />
<polyline fill="none" vector-effect="none" points="1832.29,298.595 1844.58,301.882 1832.19,304.762 " />
<polyline fill="none" vector-effect="none" points="1868.03,311.196 1877.38,319.822 1865.07,316.608 " />
<polyline fill="none" vector-effect="none" points="1893.91,338.888 1898.24,350.847 1888.79,342.33 " />
<polyline fill="none" vector-effect="none" points="1904.28,375.35 1902.68,387.967 1898.15,376.084 " />
<polyline fill="none" vector-effect="none" points="1897.05,412.566 1889.94,423.114 1891.25,410.464 " />
<polyline fill="none" vector-effect="none" points="1873.95,442.634 1862.89,448.917 1869.69,438.17 " />
<polyline fill="none" vector-effect="none" points="1839.94,459.408 1827.24,460.186 1838.08,453.527 " />
<polyline fill="none" vector-effect="none" points="1802.01,459.651 1790.25,454.832 1802.9,453.547 " />
<polyline fill="none" vector-effect="none" points="1767.69,443.507 1759.14,434.098 1771.11,438.374 " />
<polyline fill="none" vector-effect="none" points="1743.53,414.268 1739.78,402.118 1748.8,411.074 " />
<polyline fill="none" vector-effect="none" points="1733.92,377.569 1735.61,364.965 1740.05,376.882 " />
<polyline fill="none" vector-effect="none" points="1740.45,340.197 1747.21,329.426 1746.32,342.111 " />
<polyline fill="none" vector-effect="none" points="1761.76,308.804 1772.34,301.741 1766.33,312.95 " />
<polyline fill="none" vector-effect="none" points="1793.97,288.751 1806.5,286.56 1796.48,294.388 " />
<polyline fill="none" vector-effect="none" points="1831.52,283.273 1843.88,286.257 1831.57,289.441 " />
<polyline fill="none" vector-effect="none" points="1868.18,293.078 1878.37,300.685 1865.8,298.769 " />
<polyline fill="none" vector-effect="none" points="1898.12,316.403 1904.56,327.369 1893.71,320.723 " />
<polyline fill="none" vector-effect="none" points="1916.78,349.449 1918.53,362.045 1911.06,351.755 " />
<polyline fill="none" vector-effect="none" points="1921.51,387.106 1918.37,399.43 1915.34,387.08 " />
<polyline fill="none" vector-effect="none" points="1911.8,423.797 1904.3,434.067 1906.09,421.476 " />
<polyline fill="none" vector-effect="none" points="1889.25,454.322 1878.5,461.122 1884.78,450.065 " />
<polyline fill="none" vector-effect="none" points="1857.14,474.56 1844.66,477.011 1854.52,468.976 " />
<polyline fill="none" vector-effect="none" points="1819.91,481.952 1807.38,479.795 1819.45,475.8 " />
<polyline fill="none" vector-effect="none" points="1782.47,475.731 1771.5,469.31 1784.2,469.81 " />
<polyline fill="none" vector-effect="none" points="1749.53,456.884 1741.45,447.064 1753.2,451.927 " />
<polyline fill="none" vector-effect="none" points="1725.03,427.902 1720.77,415.918 1730.17,424.491 " />
<polyline fill="none" vector-effect="none" points="1711.72,392.361 1711.73,379.644 1717.7,390.868 " />
<polyline fill="none" vector-effect="none" points="1710.95,354.419 1715.15,342.416 1717.09,354.983 " />
<polyline fill="none" vector-effect="none" points="1722.59,318.302 1730.45,308.309 1728.22,320.828 " />
<polyline fill="none" vector-effect="none" points="1745.2,287.828 1755.84,280.866 1749.73,292.017 " />
<polyline fill="none" vector-effect="none" points="1776.26,266.041 1788.55,262.766 1779.25,271.438 " />
<polyline fill="none" vector-effect="none" points="1812.55,254.955 1825.25,255.626 1813.73,261.01 " />
<polyline fill="none" vector-effect="none" points="1850.49,255.445 1862.39,259.929 1849.78,261.572 " />
<polyline fill="none" vector-effect="none" points="1886.54,267.257 1896.56,275.076 1884.04,272.897 " />
<polyline fill="none" vector-effect="none" points="1917.52,289.133 1924.84,299.538 1913.49,293.798 " />
<polyline fill="none" vector-effect="none" points="1940.89,319.009 1944.92,331.071 1935.69,322.322 " />
<polyline fill="none" vector-effect="none" points="1954.86,354.268 1955.33,366.976 1948.93,355.987 " />
<polyline fill="none" vector-effect="none" points="1958.5,392.014 1955.46,404.361 1952.33,392.034 " />
<polyline fill="none" vector-effect="none" points="1951.75,429.324 1945.48,440.391 1945.8,427.678 " />
<polyline fill="none" vector-effect="none" points="1935.3,463.483 1926.33,472.5 1930,460.324 " />
<polyline fill="none" vector-effect="none" points="1910.52,492.168 1899.52,498.555 1906.22,487.745 " />
<polyline fill="none" vector-effect="none" points="1879.24,513.573 1866.98,516.963 1876.2,508.204 " />
<polyline fill="none" vector-effect="none" points="1843.61,526.483 1830.9,526.729 1842,520.529 " />
<polyline fill="none" vector-effect="none" points="1805.91,530.299 1793.52,527.454 1805.8,524.131 " />
<polyline fill="none" vector-effect="none" points="1768.4,525.004 1757.03,519.304 1769.75,518.984 " />
<polyline fill="none" vector-effect="none" points="1733.17,511.108 1723.42,502.933 1735.87,505.563 " />
<polyline fill="none" vector-effect="none" points="1702.02,489.559 1694.38,479.395 1705.91,484.767 " />
<polyline fill="none" vector-effect="none" points="1676.45,461.635 1671.23,450.038 1681.29,457.816 " />
<polyline fill="none" vector-effect="none" points="1657.53,428.842 1654.93,416.395 1663.09,426.152 " />
<polyline fill="none" vector-effect="none" points="1645.97,392.803 1646.02,380.086 1651.96,391.334 " />
<polyline fill="none" vector-effect="none" points="1642.05,355.164 1644.7,342.725 1648.22,354.945 " />
<polyline fill="none" vector-effect="none" points="1645.74,317.51 1650.79,305.841 1651.82,318.515 " />
<polyline fill="none" vector-effect="none" points="1656.67,281.296 1663.87,270.818 1662.44,283.455 " />
<polyline fill="none" vector-effect="none" points="1674.23,247.804 1683.26,238.856 1679.5,251.003 " />
<polyline fill="none" vector-effect="none" points="1697.62,218.099 1708.13,210.937 1702.22,222.201 " />
<polyline fill="none" vector-effect="none" points="1725.9,193.024 1737.51,187.819 1729.72,197.871 " />
<polyline fill="none" vector-effect="none" points="1758.07,173.188 1770.39,170.032 1761,178.614 " />
<polyline fill="none" vector-effect="none" points="1793.08,158.981 1805.75,157.893 1795.08,164.816 " />
<polyline fill="none" vector-effect="none" points="1829.9,150.585 1842.58,151.522 1830.95,156.663 " />
<polyline fill="none" vector-effect="none" points="1867.58,148 1879.96,150.868 1867.68,154.168 " />
<polyline fill="none" vector-effect="none" points="1905.2,151.071 1917.03,155.736 1904.4,157.187 " />
<polyline fill="none" vector-effect="none" points="1941.98,159.518 1953.03,165.814 1940.32,165.458 " />
<polyline fill="none" vector-effect="none" points="1977.24,172.96 1987.32,180.703 1974.78,178.618 " />
<polyline fill="none" vector-effect="none" points="2010.39,190.949 2019.38,199.943 2007.21,196.238 " />
<polyline fill="none" vector-effect="none" points="2040.98,212.991 2048.78,223.037 2037.17,217.841 " />
<polyline fill="none" vector-effect="none" points="2068.67,238.57 2075.21,249.474 2064.31,242.931 " />
<polyline fill="none" vector-effect="none" points="2093.21,267.167 2098.47,278.744 2088.38,271.004 " />
<polyline fill="none" vector-effect="none" points="2114.45,298.277 2118.43,310.355 2109.23,301.57 " />
<polyline fill="none" vector-effect="none" points="2132.33,331.42 2135.05,343.842 2126.8,334.162 " />
<polyline fill="none" vector-effect="none" points="2146.85,366.151 2148.35,378.778 2141.08,368.347 " />
<polyline fill="none" vector-effect="none" points="2158.07,402.069 2158.43,414.781 2152.13,403.731 " />
<polyline fill="none" vector-effect="none" points="2166.12,438.816 2165.39,451.511 2160.06,439.965 " />
<polyline fill="none" vector-effect="none" points="2171.15,476.083 2169.41,488.68 2165.02,476.746 " />
<polyline fill="none" vector-effect="none" points="2173.33,513.61 2170.66,526.044 2167.17,513.817 " />
<polyline fill="none" vector-effect="none" points="2172.88,551.183 2169.37,563.406 2166.71,550.969 " />
<polyline fill="none" vector-effect="none" points="2170,588.635 2165.73,600.614 2163.86,588.035 " />
<polyline fill="none" vector-effect="none" points="2164.93,625.838 2159.99,637.555 2158.83,624.89 " />
<polyline fill="none" vector-effect="none" points="2157.89,662.705 2152.35,674.152 2151.85,661.445 " />
<polyline fill="none" vector-effect="none" points="2149.12,699.181 2143.06,710.365 2143.14,697.648 " />
<polyline fill="none" vector-effect="none" points="2138.83,735.244 2132.34,746.178 2132.92,733.475 " />
<polyline fill="none" vector-effect="none" points="2127.26,770.899 2120.4,781.604 2121.41,768.928 " />
<polyline fill="none" vector-effect="none" points="2114.62,806.17 2107.45,816.676 2108.83,804.034 " />
<polyline fill="none" vector-effect="none" points="2101.11,841.104 2093.71,851.443 2095.37,838.836 " />
<polyline fill="none" vector-effect="none" points="2086.95,875.759 2079.37,885.971 2081.26,873.394 " />
<polyline fill="none" vector-effect="none" points="2072.34,910.209 2064.65,920.333 2066.67,907.779 " />
<polyline fill="none" vector-effect="none" points="2057.48,944.531 2049.73,954.611 2051.82,942.068 " />
<polyline fill="none" vector-effect="none" points="2042.56,978.808 2034.8,988.889 2036.9,976.346 " />
<polyline fill="none" vector-effect="none" points="2027.77,1013.13 2020.08,1023.25 2022.1,1010.7 " />
<polyline fill="none" vector-effect="none" points="2013.32,1047.57 2005.74,1057.78 2007.63,1045.2 " />
<polyline fill="none" vector-effect="none" points="1999.4,1082.21 1992,1092.55 1993.67,1079.94 " />
<polyline fill="none" vector-effect="none" points="1986.22,1117.11 1979.06,1127.62 1980.43,1114.98 " />
<polyline fill="none" vector-effect="none" points="1973.98,1152.34 1967.11,1163.04 1968.13,1150.37 " />
<polyline fill="none" vector-effect="none" points="1962.88,1187.92 1956.39,1198.86 1956.97,1186.15 " />
<polyline fill="none" vector-effect="none" points="1953.15,1223.89 1947.1,1235.07 1947.17,1222.35 " />
<polyline fill="none" vector-effect="none" points="1945,1260.22 1939.47,1271.67 1938.96,1258.96 " />
<polyline fill="none" vector-effect="none" points="1938.66,1296.89 1933.72,1308.61 1932.57,1295.94 " />
<polyline fill="none" vector-effect="none" points="1934.35,1333.84 1930.09,1345.82 1928.22,1333.24 " />
<polyline fill="none" vector-effect="none" points="1932.3,1370.96 1928.79,1383.18 1926.13,1370.74 " />
<polyline fill="none" vector-effect="none" points="1932.71,1408.11 1930.04,1420.54 1926.55,1408.32 " />
<polyline fill="none" vector-effect="none" points="1935.8,1445.11 1934.06,1457.71 1929.67,1445.78 " />
<polyline fill="none" vector-effect="none" points="1941.76,1481.75 1941.02,1494.44 1935.7,1482.9 " />
<polyline fill="none" vector-effect="none" points="1950.74,1517.73 1951.1,1530.44 1944.8,1519.39 " />
<polyline fill="none" vector-effect="none" points="1962.89,1552.75 1964.4,1565.38 1957.13,1554.95 " />
<polyline fill="none" vector-effect="none" points="1978.3,1586.45 1981.02,1598.87 1972.78,1589.19 " />
<polyline fill="none" vector-effect="none" points="1997.01,1618.4 2000.98,1630.48 1991.79,1621.69 " />
<polyline fill="none" vector-effect="none" points="2018.98,1648.17 2024.24,1659.75 2014.15,1652.01 " />
<polyline fill="none" vector-effect="none" points="2044.13,1675.28 2050.68,1686.18 2039.77,1679.64 " />
<polyline fill="none" vector-effect="none" points="2072.28,1699.23 2080.07,1709.28 2068.47,1704.08 " />
<polyline fill="none" vector-effect="none" points="2103.14,1719.53 2112.13,1728.52 2099.96,1724.81 " />
<polyline fill="none" vector-effect="none" points="2136.33,1735.67 2146.42,1743.41 2133.88,1741.32 " />
<polyline fill="none" vector-effect="none" points="2171.37,1747.19 2182.42,1753.49 2169.71,1753.13 " />
<polyline fill="none" vector-effect="none" points="2207.66,1753.69 2219.49,1758.35 2206.85,1759.81 " />
<polyline fill="none" vector-effect="none" points="2244.48,1754.83 2256.87,1757.7 2244.59,1761 " />
<polyline fill="none" vector-effect="none" points="2281.02,1750.39 2293.7,1751.33 2282.07,1756.47 " />
<polyline fill="none" vector-effect="none" points="2316.39,1740.28 2329.06,1739.19 2318.4,1746.11 " />
<polyline fill="none" vector-effect="none" points="2349.63,1724.56 2361.95,1721.4 2352.56,1729.99 " />
<polyline fill="none" vector-effect="none" points="2379.72,1703.49 2391.33,1698.29 2383.54,1708.34 " />
<polyline fill="none" vector-effect="none" points="2405.68,1677.53 2416.19,1670.37 2410.29,1681.63 " />
<polyline fill="none" vector-effect="none" points="2426.54,1647.35 2435.58,1638.4 2431.82,1650.55 " />
<polyline fill="none" vector-effect="none" points="2441.45,1613.86 2448.66,1603.38 2447.23,1616.02 " />
<polyline fill="none" vector-effect="none" points="2449.7,1578.17 2454.76,1566.5 2455.79,1579.17 " />
<polyline fill="none" vector-effect="none" points="2450.78,1541.57 2453.43,1529.14 2456.95,1541.36 " />
<polyline fill="none" vector-effect="none" points="2444.47,1505.54 2444.52,1492.83 2450.46,1504.07 " />
<polyline fill="none" vector-effect="none" points="2430.82,1471.63 2428.22,1459.18 2436.37,1468.94 " />
<polyline fill="none" vector-effect="none" points="2410.29,1441.42 2405.07,1429.83 2415.13,1437.61 " />
<polyline fill="none" vector-effect="none" points="2383.67,1416.45 2376.03,1406.29 2387.55,1411.66 " />
<polyline fill="none" vector-effect="none" points="2352.16,1398.09 2342.42,1389.92 2354.86,1392.55 " />
<polyline fill="none" vector-effect="none" points="2317.3,1387.47 2305.93,1381.77 2318.64,1381.45 " />
<polyline fill="none" vector-effect="none" points="2280.95,1385.34 2268.55,1382.49 2280.83,1379.17 " />
<polyline fill="none" vector-effect="none" points="2245.18,1392.01 2232.47,1392.26 2243.57,1386.06 " />
<polyline fill="none" vector-effect="none" points="2212.18,1407.28 2199.93,1410.67 2209.15,1401.91 " />
<polyline fill="none" vector-effect="none" points="2184.11,1430.34 2173.12,1436.72 2179.82,1425.91 " />
<polyline fill="none" vector-effect="none" points="2162.94,1459.82 2153.97,1468.83 2157.64,1456.66 " />
<polyline fill="none" vector-effect="none" points="2150.26,1493.79 2144,1504.86 2144.32,1492.15 " />
<polyline fill="none" vector-effect="none" points="2147.16,1529.9 2144.12,1542.25 2140.99,1529.92 " />
<polyline fill="none" vector-effect="none" points="2154.06,1565.44 2154.53,1578.15 2148.14,1567.16 " />
<polyline fill="none" vector-effect="none" points="2170.59,1597.62 2174.62,1609.68 2165.39,1600.94 " />
<polyline fill="none" vector-effect="none" points="2195.58,1623.74 2202.89,1634.15 2191.54,1628.41 " />
<polyline fill="none" vector-effect="none" points="2227.04,1641.48 2237.07,1649.29 2224.54,1647.11 " />
<polyline fill="none" vector-effect="none" points="2262.3,1649.11 2274.2,1653.6 2261.59,1655.24 " />
<polyline fill="none" vector-effect="none" points="2298.2,1645.78 2310.9,1646.46 2299.38,1651.84 " />
<polyline fill="none" vector-effect="none" points="2331.32,1631.63 2343.61,1628.36 2334.31,1637.03 " />
<polyline fill="none" vector-effect="none" points="2358.36,1607.87 2369,1600.91 2362.88,1612.06 " />
<polyline fill="none" vector-effect="none" points="2376.44,1576.8 2384.31,1566.81 2382.07,1579.32 " />
<polyline fill="none" vector-effect="none" points="2383.53,1541.58 2387.73,1529.58 2389.67,1542.15 " />
<polyline fill="none" vector-effect="none" points="2378.67,1506.02 2378.68,1493.3 2384.66,1504.53 " />
<polyline fill="none" vector-effect="none" points="2362.26,1474.14 2358,1462.16 2367.4,1470.73 " />
<polyline fill="none" vector-effect="none" points="2336.04,1449.73 2327.96,1439.91 2339.71,1444.77 " />
<polyline fill="none" vector-effect="none" points="2303.05,1435.85 2292.07,1429.43 2304.78,1429.93 " />
<polyline fill="none" vector-effect="none" points="2267.32,1434.37 2254.79,1432.21 2266.86,1428.22 " />
<polyline fill="none" vector-effect="none" points="2233.43,1445.65 2220.95,1448.1 2230.81,1440.06 " />
<polyline fill="none" vector-effect="none" points="2205.9,1468.36 2195.15,1475.16 2201.43,1464.1 " />
<polyline fill="none" vector-effect="none" points="2188.58,1499.52 2181.08,1509.79 2182.87,1497.2 " />
<polyline fill="none" vector-effect="none" points="2184.06,1534.85 2180.92,1547.18 2177.89,1534.83 " />
<polyline fill="none" vector-effect="none" points="2193.15,1569.26 2194.89,1581.85 2187.42,1571.56 " />
<polyline fill="none" vector-effect="none" points="2214.64,1597.57 2221.08,1608.54 2210.24,1601.89 " />
<polyline fill="none" vector-effect="none" points="2245.38,1615.36 2255.57,1622.97 2243,1621.05 " />
<polyline fill="none" vector-effect="none" points="2280.59,1619.68 2292.95,1622.66 2280.64,1625.85 " />
<polyline fill="none" vector-effect="none" points="2314.59,1609.67 2327.12,1607.48 2317.09,1615.31 " />
<polyline fill="none" vector-effect="none" points="2341.66,1586.86 2352.24,1579.8 2346.23,1591.01 " />
<polyline fill="none" vector-effect="none" points="2357.08,1555.03 2363.84,1544.26 2362.94,1556.94 " />
<polyline fill="none" vector-effect="none" points="2357.99,1519.71 2359.68,1507.1 2364.12,1519.02 " />
<polyline fill="none" vector-effect="none" points="2344.07,1487.28 2340.31,1475.12 2349.34,1484.08 " />
<polyline fill="none" vector-effect="none" points="2317.76,1463.8 2309.21,1454.39 2321.18,1458.67 " />
<polyline fill="none" vector-effect="none" points="2283.97,1453.86 2272.21,1449.04 2284.86,1447.75 " />
<polyline fill="none" vector-effect="none" points="2249.25,1459.53 2236.56,1460.31 2247.39,1453.65 " />
<polyline fill="none" vector-effect="none" points="2220.56,1479.83 2209.51,1486.11 2216.31,1475.36 " />
<polyline fill="none" vector-effect="none" points="2203.87,1510.71 2196.77,1521.26 2198.07,1508.61 " />
<polyline fill="none" vector-effect="none" points="2202.81,1545.76 2201.22,1558.38 2196.69,1546.49 " />
<polyline fill="none" vector-effect="none" points="2217.75,1577.44 2222.07,1589.4 2212.63,1580.88 " />
<polyline fill="none" vector-effect="none" points="2245.53,1598.71 2254.87,1607.34 2242.57,1604.13 " />
<polyline fill="none" vector-effect="none" points="2279.97,1604.67 2292.25,1607.96 2279.87,1610.84 " />
<polyline fill="none" vector-effect="none" points="2313.14,1593.79 2325.53,1590.92 2315.95,1599.28 " />
<polyline fill="none" vector-effect="none" points="2337.17,1568.53 2346.7,1560.1 2342.26,1572.02 " />
<polyline fill="none" vector-effect="none" points="2346.16,1534.87 2350.47,1522.91 2352.29,1535.49 " />
<polyline fill="none" vector-effect="none" points="2337.74,1501.11 2335.7,1488.56 2343.41,1498.68 " />
<polyline fill="none" vector-effect="none" points="2313.93,1475.81 2306,1465.87 2317.67,1470.91 " />
<polyline fill="none" vector-effect="none" points="2280.76,1465.58 2268.95,1460.87 2281.59,1459.46 " />
<polyline fill="none" vector-effect="none" points="2246.95,1473.24 2234.37,1475.08 2244.61,1467.54 " />
<polyline fill="none" vector-effect="none" points="2221.63,1496.87 2211.7,1504.81 2216.73,1493.13 " />
<polyline fill="none" vector-effect="none" points="2211.86,1530.04 2207.37,1541.94 2205.74,1529.33 " />
<polyline fill="none" vector-effect="none" points="2220.51,1563.49 2222.79,1576 2214.89,1566.03 " />
<polyline fill="none" vector-effect="none" points="2245.21,1587.58 2253.66,1597.08 2241.73,1592.67 " />
<polyline fill="none" vector-effect="none" points="2278.82,1595.17 2291,1598.83 2278.54,1601.33 " />
<polyline fill="none" vector-effect="none" points="2311.34,1583.88 2323.61,1580.53 2314.36,1589.26 " />
<polyline fill="none" vector-effect="none" points="2332.81,1557.03 2341.39,1547.65 2338.23,1559.97 " />
<polyline fill="none" vector-effect="none" points="2336.46,1522.9 2338.63,1510.36 2342.61,1522.44 " />
<polyline fill="none" vector-effect="none" points="2321.03,1492.27 2316.03,1480.58 2325.95,1488.55 " />
<polyline fill="none" vector-effect="none" points="2291.39,1475.11 2280.8,1468.08 2293.46,1469.3 " />
<polyline fill="none" vector-effect="none" points="2257.25,1477.17 2244.54,1477.17 2255.75,1471.18 " />
<polyline fill="none" vector-effect="none" points="2230.07,1497.86 2219.53,1504.96 2225.49,1493.73 " />
<polyline fill="none" vector-effect="none" points="2219.21,1530.2 2214.5,1542.01 2213.1,1529.37 " />
<polyline fill="none" vector-effect="none" points="2228.57,1562.96 2231.39,1575.36 2223.06,1565.75 " />
<polyline fill="none" vector-effect="none" points="2254.92,1584.49 2264.33,1593.04 2252,1589.92 " />
<polyline fill="none" vector-effect="none" points="2288.81,1586.92 2301.43,1588.48 2289.56,1593.05 " />
<polyline fill="none" vector-effect="none" points="2317.79,1569.26 2328.96,1563.18 2321.96,1573.8 " />
<polyline fill="none" vector-effect="none" points="2330.95,1538.03 2336.43,1526.55 2336.99,1539.26 " />
<polyline fill="none" vector-effect="none" points="2323.17,1505.08 2320.82,1492.59 2328.78,1502.51 " />
<polyline fill="none" vector-effect="none" points="2297.38,1483.24 2288.05,1474.59 2300.35,1477.83 " />
<polyline fill="none" vector-effect="none" points="2263.69,1481.18 2251.04,1479.86 2262.82,1475.07 " />
<polyline fill="none" vector-effect="none" points="2235.61,1499.84 2224.74,1506.44 2231.23,1495.5 " />
<polyline fill="none" vector-effect="none" points="2224.67,1531.67 2220.07,1543.53 2218.55,1530.9 " />
<polyline fill="none" vector-effect="none" points="2235.5,1563.5 2239.14,1575.68 2230.2,1566.65 " />
<polyline fill="none" vector-effect="none" points="2263.62,1581.84 2274.01,1589.17 2261.39,1587.6 " />
<polyline fill="none" vector-effect="none" points="2297,1578.76 2309.69,1578.02 2298.84,1584.65 " />
<polyline fill="none" vector-effect="none" points="2321.07,1555.5 2330.5,1546.96 2326.2,1558.93 " />
<polyline fill="none" vector-effect="none" points="2325.1,1522.31 2327.02,1509.74 2331.24,1521.74 " />
<polyline fill="none" vector-effect="none" points="2307.18,1494.15 2300.67,1483.22 2311.56,1489.8 " />
<polyline fill="none" vector-effect="none" points="2275.45,1483.95 2263.45,1479.72 2276.02,1477.8 " />
<polyline fill="none" vector-effect="none" points="2244.63,1496.53 2232.74,1501.03 2241.12,1491.47 " />
<polyline fill="none" vector-effect="none" points="2229.33,1526.04 2223.2,1537.18 2223.37,1524.47 " />
<polyline fill="none" vector-effect="none" points="2236.96,1558.34 2239.59,1570.78 2231.41,1561.05 " />
<polyline fill="none" vector-effect="none" points="2263.87,1577.68 2274.04,1585.32 2261.47,1583.36 " />
<polyline fill="none" vector-effect="none" points="2296.8,1574.42 2309.48,1573.42 2298.77,1580.27 " />
<polyline fill="none" vector-effect="none" points="2319.2,1550.13 2327.99,1540.94 2324.56,1553.18 " />
<polyline fill="none" vector-effect="none" points="2319.59,1517.14 2319.95,1504.42 2325.61,1515.81 " />
<polyline fill="none" vector-effect="none" points="2297.69,1492.52 2289.39,1482.89 2301.25,1487.48 " />
<polyline fill="none" vector-effect="none" points="2264.96,1489.26 2252.33,1487.83 2264.15,1483.14 " />
<polyline fill="none" vector-effect="none" points="2238.83,1509.15 2228.62,1516.74 2234.06,1505.24 " />
<polyline fill="none" vector-effect="none" points="2233.47,1541.5 2231.26,1554.03 2227.32,1541.94 " />
<polyline fill="none" vector-effect="none" points="2251.88,1568.58 2258.95,1579.15 2247.74,1573.15 " />
<polyline fill="none" vector-effect="none" points="2283.88,1575.27 2296.31,1577.96 2284.08,1581.44 " />
<polyline fill="none" vector-effect="none" points="2311.42,1557.75 2322.19,1550.98 2315.88,1562.02 " />
<polyline fill="none" vector-effect="none" points="2318.71,1525.99 2321.6,1513.6 2324.88,1525.89 " />
<polyline fill="none" vector-effect="none" points="2301.46,1498.4 2294.74,1487.6 2305.75,1493.96 " />
<polyline fill="none" vector-effect="none" points="2269.77,1491.24 2257.36,1488.44 2269.63,1485.08 " />
<polyline fill="none" vector-effect="none" points="2242.53,1508.85 2231.85,1515.76 2238.02,1504.64 " />
<polyline fill="none" vector-effect="none" points="2236.23,1540.62 2233.79,1553.1 2230.07,1540.94 " />
<polyline fill="none" vector-effect="none" points="2254.8,1567.09 2262.14,1577.47 2250.77,1571.77 " />
<polyline fill="none" vector-effect="none" points="2286.73,1571.8 2299.32,1573.59 2287.37,1577.94 " />
<polyline fill="none" vector-effect="none" points="2311.95,1551.74 2321.84,1543.75 2316.87,1555.45 " />
<polyline fill="none" vector-effect="none" points="2314.34,1519.65 2315.18,1506.96 2320.41,1518.55 " />
<polyline fill="none" vector-effect="none" points="2292.32,1496.27 2283.51,1487.1 2295.6,1491.04 " />
<polyline fill="none" vector-effect="none" points="2260.26,1496.92 2247.55,1497.32 2258.57,1490.98 " />
<polyline fill="none" vector-effect="none" points="2239.41,1521.21 2231.26,1530.97 2233.86,1518.52 " />
<polyline fill="none" vector-effect="none" points="2243.8,1552.87 2245.73,1565.44 2238.11,1555.26 " />
</g>

<g fill="#1171be" fill-opacity="1" stroke="#1171be" stroke-opacity="1" stroke-width="1.16667" stroke-linecap="butt" stroke-linejoin="round" transform="matrix(0.431033,0,0,0.435877,-706.027,-46.3331)"
font-family="MS Shell Dlg 2" font-size="8.14286" font-weight="400" font-style="normal" 
>
<polyline fill="none" vector-effect="none" points="1853.72,343.782 1868.2,378.25 " />
<polyline fill="none" vector-effect="none" points="1868.2,378.25 1851.91,411.898 " />
<polyline fill="none" vector-effect="none" points="1851.91,411.898 1815.95,422.124 " />
<polyline fill="none" vector-effect="none" points="1815.95,422.124 1784.27,402.262 " />
<polyline fill="none" vector-effect="none" points="1784.27,402.262 1777.61,365.476 " />
<polyline fill="none" vector-effect="none" points="1777.61,365.476 1800.13,335.637 " />
<polyline fill="none" vector-effect="none" points="1800.13,335.637 1837.31,331.749 " />
<polyline fill="none" vector-effect="none" points="1837.31,331.749 1865.66,356.123 " />
<polyline fill="none" vector-effect="none" points="1865.66,356.123 1867.6,393.458 " />
<polyline fill="none" vector-effect="none" points="1867.6,393.458 1842.09,420.785 " />
<polyline fill="none" vector-effect="none" points="1842.09,420.785 1804.71,421.623 " />
<polyline fill="none" vector-effect="none" points="1804.71,421.623 1777.85,395.621 " />
<polyline fill="none" vector-effect="none" points="1777.85,395.621 1777.26,358.24 " />
<polyline fill="none" vector-effect="none" points="1777.26,358.24 1803.14,331.258 " />
<polyline fill="none" vector-effect="none" points="1803.14,331.258 1840.5,330.069 " />
<polyline fill="none" vector-effect="none" points="1840.5,330.069 1868.19,355.194 " />
<polyline fill="none" vector-effect="none" points="1868.19,355.194 1870.83,392.486 " />
<polyline fill="none" vector-effect="none" points="1870.83,392.486 1847.12,421.396 " />
<polyline fill="none" vector-effect="none" points="1847.12,421.396 1810.07,426.328 " />
<polyline fill="none" vector-effect="none" points="1810.07,426.328 1779.5,404.797 " />
<polyline fill="none" vector-effect="none" points="1779.5,404.797 1771.46,368.287 " />
<polyline fill="none" vector-effect="none" points="1771.46,368.287 1789.97,335.805 " />
<polyline fill="none" vector-effect="none" points="1789.97,335.805 1825.41,323.905 " />
<polyline fill="none" vector-effect="none" points="1825.41,323.905 1859.86,338.44 " />
<polyline fill="none" vector-effect="none" points="1859.86,338.44 1876.25,372.039 " />
<polyline fill="none" vector-effect="none" points="1876.25,372.039 1866.71,408.187 " />
<polyline fill="none" vector-effect="none" points="1866.71,408.187 1836,429.502 " />
<polyline fill="none" vector-effect="none" points="1836,429.502 1798.78,426.001 " />
<polyline fill="none" vector-effect="none" points="1798.78,426.001 1772.43,399.483 " />
<polyline fill="none" vector-effect="none" points="1772.43,399.483 1768.95,362.26 " />
<polyline fill="none" vector-effect="none" points="1768.95,362.26 1789.76,331.2 " />
<polyline fill="none" vector-effect="none" points="1789.76,331.2 1825.44,320.05 " />
<polyline fill="none" vector-effect="none" points="1825.44,320.05 1860.31,333.538 " />
<polyline fill="none" vector-effect="none" points="1860.31,333.538 1879.38,365.692 " />
<polyline fill="none" vector-effect="none" points="1879.38,365.692 1874.71,402.785 " />
<polyline fill="none" vector-effect="none" points="1874.71,402.785 1848.41,429.358 " />
<polyline fill="none" vector-effect="none" points="1848.41,429.358 1811.4,434.628 " />
<polyline fill="none" vector-effect="none" points="1811.4,434.628 1778.63,416.636 " />
<polyline fill="none" vector-effect="none" points="1778.63,416.636 1763.02,382.668 " />
<polyline fill="none" vector-effect="none" points="1763.02,382.668 1770.49,346.037 " />
<polyline fill="none" vector-effect="none" points="1770.49,346.037 1798.02,320.744 " />
<polyline fill="none" vector-effect="none" points="1798.02,320.744 1835.12,316.18 " />
<polyline fill="none" vector-effect="none" points="1835.12,316.18 1868.06,333.863 " />
<polyline fill="none" vector-effect="none" points="1868.06,333.863 1884.95,367.215 " />
<polyline fill="none" vector-effect="none" points="1884.95,367.215 1879.93,404.26 " />
<polyline fill="none" vector-effect="none" points="1879.93,404.26 1854.92,432.048 " />
<polyline fill="none" vector-effect="none" points="1854.92,432.048 1818.65,441.14 " />
<polyline fill="none" vector-effect="none" points="1818.65,441.14 1783.42,428.641 " />
<polyline fill="none" vector-effect="none" points="1783.42,428.641 1760.82,398.858 " />
<polyline fill="none" vector-effect="none" points="1760.82,398.858 1758.06,361.575 " />
<polyline fill="none" vector-effect="none" points="1758.06,361.575 1775.84,328.689 " />
<polyline fill="none" vector-effect="none" points="1775.84,328.689 1808.45,310.393 " />
<polyline fill="none" vector-effect="none" points="1808.45,310.393 1845.79,312.14 " />
<polyline fill="none" vector-effect="none" points="1845.79,312.14 1876.66,333.222 " />
<polyline fill="none" vector-effect="none" points="1876.66,333.222 1892.08,367.281 " />
<polyline fill="none" vector-effect="none" points="1892.08,367.281 1887.75,404.415 " />
<polyline fill="none" vector-effect="none" points="1887.75,404.415 1865.08,434.146 " />
<polyline fill="none" vector-effect="none" points="1865.08,434.146 1830.5,448.353 " />
<polyline fill="none" vector-effect="none" points="1830.5,448.353 1793.46,443.354 " />
<polyline fill="none" vector-effect="none" points="1793.46,443.354 1763.75,420.66 " />
<polyline fill="none" vector-effect="none" points="1763.75,420.66 1748.98,386.313 " />
<polyline fill="none" vector-effect="none" points="1748.98,386.313 1752.75,349.118 " />
<polyline fill="none" vector-effect="none" points="1752.75,349.118 1773.92,318.307 " />
<polyline fill="none" vector-effect="none" points="1773.92,318.307 1807.2,301.266 " />
<polyline fill="none" vector-effect="none" points="1807.2,301.266 1844.58,301.882 " />
<polyline fill="none" vector-effect="none" points="1844.58,301.882 1877.38,319.822 " />
<polyline fill="none" vector-effect="none" points="1877.38,319.822 1898.24,350.847 " />
<polyline fill="none" vector-effect="none" points="1898.24,350.847 1902.68,387.967 " />
<polyline fill="none" vector-effect="none" points="1902.68,387.967 1889.94,423.114 " />
<polyline fill="none" vector-effect="none" points="1889.94,423.114 1862.89,448.917 " />
<polyline fill="none" vector-effect="none" points="1862.89,448.917 1827.24,460.186 " />
<polyline fill="none" vector-effect="none" points="1827.24,460.186 1790.25,454.832 " />
<polyline fill="none" vector-effect="none" points="1790.25,454.832 1759.14,434.098 " />
<polyline fill="none" vector-effect="none" points="1759.14,434.098 1739.78,402.118 " />
<polyline fill="none" vector-effect="none" points="1739.78,402.118 1735.61,364.965 " />
<polyline fill="none" vector-effect="none" points="1735.61,364.965 1747.21,329.426 " />
<polyline fill="none" vector-effect="none" points="1747.21,329.426 1772.34,301.741 " />
<polyline fill="none" vector-effect="none" points="1772.34,301.741 1806.5,286.56 " />
<polyline fill="none" vector-effect="none" points="1806.5,286.56 1843.88,286.257 " />
<polyline fill="none" vector-effect="none" points="1843.88,286.257 1878.37,300.685 " />
<polyline fill="none" vector-effect="none" points="1878.37,300.685 1904.56,327.369 " />
<polyline fill="none" vector-effect="none" points="1904.56,327.369 1918.53,362.045 " />
<polyline fill="none" vector-effect="none" points="1918.53,362.045 1918.37,399.43 " />
<polyline fill="none" vector-effect="none" points="1918.37,399.43 1904.3,434.067 " />
<polyline fill="none" vector-effect="none" points="1904.3,434.067 1878.5,461.122 " />
<polyline fill="none" vector-effect="none" points="1878.5,461.122 1844.66,477.011 " />
<polyline fill="none" vector-effect="none" points="1844.66,477.011 1807.38,479.795 " />
<polyline fill="none" vector-effect="none" points="1807.38,479.795 1771.5,469.31 " />
<polyline fill="none" vector-effect="none" points="1771.5,469.31 1741.45,447.064 " />
<polyline fill="none" vector-effect="none" points="1741.45,447.064 1720.77,415.918 " />
<polyline fill="none" vector-effect="none" points="1720.77,415.918 1711.73,379.644 " />
<polyline fill="none" vector-effect="none" points="1711.73,379.644 1715.15,342.416 " />
<polyline fill="none" vector-effect="none" points="1715.15,342.416 1730.45,308.309 " />
<polyline fill="none" vector-effect="none" points="1730.45,308.309 1755.84,280.866 " />
<polyline fill="none" vector-effect="none" points="1755.84,280.866 1788.55,262.766 " />
<polyline fill="none" vector-effect="none" points="1788.55,262.766 1825.25,255.626 " />
<polyline fill="none" vector-effect="none" points="1825.25,255.626 1862.39,259.929 " />
<polyline fill="none" vector-effect="none" points="1862.39,259.929 1896.56,275.076 " />
<polyline fill="none" vector-effect="none" points="1896.56,275.076 1924.84,299.538 " />
<polyline fill="none" vector-effect="none" points="1924.84,299.538 1944.92,331.071 " />
<polyline fill="none" vector-effect="none" points="1944.92,331.071 1955.33,366.976 " />
<polyline fill="none" vector-effect="none" points="1955.33,366.976 1955.46,404.361 " />
<polyline fill="none" vector-effect="none" points="1955.46,404.361 1945.48,440.391 " />
<polyline fill="none" vector-effect="none" points="1945.48,440.391 1926.33,472.5 " />
<polyline fill="none" vector-effect="none" points="1926.33,472.5 1899.52,498.555 " />
<polyline fill="none" vector-effect="none" points="1899.52,498.555 1866.98,516.963 " />
<polyline fill="none" vector-effect="none" points="1866.98,516.963 1830.9,526.729 " />
<polyline fill="none" vector-effect="none" points="1830.9,526.729 1793.52,527.454 " />
<polyline fill="none" vector-effect="none" points="1793.52,527.454 1757.03,519.304 " />
<polyline fill="none" vector-effect="none" points="1757.03,519.304 1723.42,502.933 " />
<polyline fill="none" vector-effect="none" points="1723.42,502.933 1694.38,479.395 " />
<polyline fill="none" vector-effect="none" points="1694.38,479.395 1671.23,450.038 " />
<polyline fill="none" vector-effect="none" points="1671.23,450.038 1654.93,416.395 " />
<polyline fill="none" vector-effect="none" points="1654.93,416.395 1646.02,380.086 " />
<polyline fill="none" vector-effect="none" points="1646.02,380.086 1644.7,342.725 " />
<polyline fill="none" vector-effect="none" points="1644.7,342.725 1650.79,305.841 " />
<polyline fill="none" vector-effect="none" points="1650.79,305.841 1663.87,270.818 " />
<polyline fill="none" vector-effect="none" points="1663.87,270.818 1683.26,238.856 " />
<polyline fill="none" vector-effect="none" points="1683.26,238.856 1708.13,210.937 " />
<polyline fill="none" vector-effect="none" points="1708.13,210.937 1737.51,187.819 " />
<polyline fill="none" vector-effect="none" points="1737.51,187.819 1770.39,170.032 " />
<polyline fill="none" vector-effect="none" points="1770.39,170.032 1805.75,157.893 " />
<polyline fill="none" vector-effect="none" points="1805.75,157.893 1842.58,151.522 " />
<polyline fill="none" vector-effect="none" points="1842.58,151.522 1879.96,150.868 " />
<polyline fill="none" vector-effect="none" points="1879.96,150.868 1917.03,155.736 " />
<polyline fill="none" vector-effect="none" points="1917.03,155.736 1953.03,165.814 " />
<polyline fill="none" vector-effect="none" points="1953.03,165.814 1987.32,180.703 " />
<polyline fill="none" vector-effect="none" points="1987.32,180.703 2019.38,199.943 " />
<polyline fill="none" vector-effect="none" points="2019.38,199.943 2048.78,223.037 " />
<polyline fill="none" vector-effect="none" points="2048.78,223.037 2075.21,249.474 " />
<polyline fill="none" vector-effect="none" points="2075.21,249.474 2098.47,278.744 " />
<polyline fill="none" vector-effect="none" points="2098.47,278.744 2118.43,310.355 " />
<polyline fill="none" vector-effect="none" points="2118.43,310.355 2135.05,343.842 " />
<polyline fill="none" vector-effect="none" points="2135.05,343.842 2148.35,378.778 " />
<polyline fill="none" vector-effect="none" points="2148.35,378.778 2158.43,414.781 " />
<polyline fill="none" vector-effect="none" points="2158.43,414.781 2165.39,451.511 " />
<polyline fill="none" vector-effect="none" points="2165.39,451.511 2169.41,488.68 " />
<polyline fill="none" vector-effect="none" points="2169.41,488.68 2170.66,526.044 " />
<polyline fill="none" vector-effect="none" points="2170.66,526.044 2169.37,563.406 " />
<polyline fill="none" vector-effect="none" points="2169.37,563.406 2165.73,600.614 " />
<polyline fill="none" vector-effect="none" points="2165.73,600.614 2159.99,637.555 " />
<polyline fill="none" vector-effect="none" points="2159.99,637.555 2152.35,674.152 " />
<polyline fill="none" vector-effect="none" points="2152.35,674.152 2143.06,710.365 " />
<polyline fill="none" vector-effect="none" points="2143.06,710.365 2132.34,746.178 " />
<polyline fill="none" vector-effect="none" points="2132.34,746.178 2120.4,781.604 " />
<polyline fill="none" vector-effect="none" points="2120.4,781.604 2107.45,816.676 " />
<polyline fill="none" vector-effect="none" points="2107.45,816.676 2093.71,851.443 " />
<polyline fill="none" vector-effect="none" points="2093.71,851.443 2079.37,885.971 " />
<polyline fill="none" vector-effect="none" points="2079.37,885.971 2064.65,920.333 " />
<polyline fill="none" vector-effect="none" points="2064.65,920.333 2049.73,954.611 " />
<polyline fill="none" vector-effect="none" points="2049.73,954.611 2034.8,988.889 " />
<polyline fill="none" vector-effect="none" points="2034.8,988.889 2020.08,1023.25 " />
<polyline fill="none" vector-effect="none" points="2020.08,1023.25 2005.74,1057.78 " />
<polyline fill="none" vector-effect="none" points="2005.74,1057.78 1992,1092.55 " />
<polyline fill="none" vector-effect="none" points="1992,1092.55 1979.06,1127.62 " />
<polyline fill="none" vector-effect="none" points="1979.06,1127.62 1967.11,1163.04 " />
<polyline fill="none" vector-effect="none" points="1967.11,1163.04 1956.39,1198.86 " />
<polyline fill="none" vector-effect="none" points="1956.39,1198.86 1947.1,1235.07 " />
<polyline fill="none" vector-effect="none" points="1947.1,1235.07 1939.47,1271.67 " />
<polyline fill="none" vector-effect="none" points="1939.47,1271.67 1933.72,1308.61 " />
<polyline fill="none" vector-effect="none" points="1933.72,1308.61 1930.09,1345.82 " />
<polyline fill="none" vector-effect="none" points="1930.09,1345.82 1928.79,1383.18 " />
<polyline fill="none" vector-effect="none" points="1928.79,1383.18 1930.04,1420.54 " />
<polyline fill="none" vector-effect="none" points="1930.04,1420.54 1934.06,1457.71 " />
<polyline fill="none" vector-effect="none" points="1934.06,1457.71 1941.02,1494.44 " />
<polyline fill="none" vector-effect="none" points="1941.02,1494.44 1951.1,1530.44 " />
<polyline fill="none" vector-effect="none" points="1951.1,1530.44 1964.4,1565.38 " />
<polyline fill="none" vector-effect="none" points="1964.4,1565.38 1981.02,1598.87 " />
<polyline fill="none" vector-effect="none" points="1981.02,1598.87 2000.98,1630.48 " />
<polyline fill="none" vector-effect="none" points="2000.98,1630.48 2024.24,1659.75 " />
<polyline fill="none" vector-effect="none" points="2024.24,1659.75 2050.68,1686.18 " />
<polyline fill="none" vector-effect="none" points="2050.68,1686.18 2080.07,1709.28 " />
<polyline fill="none" vector-effect="none" points="2080.07,1709.28 2112.13,1728.52 " />
<polyline fill="none" vector-effect="none" points="2112.13,1728.52 2146.42,1743.41 " />
<polyline fill="none" vector-effect="none" points="2146.42,1743.41 2182.42,1753.49 " />
<polyline fill="none" vector-effect="none" points="2182.42,1753.49 2219.49,1758.35 " />
<polyline fill="none" vector-effect="none" points="2219.49,1758.35 2256.87,1757.7 " />
<polyline fill="none" vector-effect="none" points="2256.87,1757.7 2293.7,1751.33 " />
<polyline fill="none" vector-effect="none" points="2293.7,1751.33 2329.06,1739.19 " />
<polyline fill="none" vector-effect="none" points="2329.06,1739.19 2361.95,1721.4 " />
<polyline fill="none" vector-effect="none" points="2361.95,1721.4 2391.33,1698.29 " />
<polyline fill="none" vector-effect="none" points="2391.33,1698.29 2416.19,1670.37 " />
<polyline fill="none" vector-effect="none" points="2416.19,1670.37 2435.58,1638.4 " />
<polyline fill="none" vector-effect="none" points="2435.58,1638.4 2448.66,1603.38 " />
<polyline fill="none" vector-effect="none" points="2448.66,1603.38 2454.76,1566.5 " />
<polyline fill="none" vector-effect="none" points="2454.76,1566.5 2453.43,1529.14 " />
<polyline fill="none" vector-effect="none" points="2453.43,1529.14 2444.52,1492.83 " />
<polyline fill="none" vector-effect="none" points="2444.52,1492.83 2428.22,1459.18 " />
<polyline fill="none" vector-effect="none" points="2428.22,1459.18 2405.07,1429.83 " />
<polyline fill="none" vector-effect="none" points="2405.07,1429.83 2376.03,1406.29 " />
<polyline fill="none" vector-effect="none" points="2376.03,1406.29 2342.42,1389.92 " />
<polyline fill="none" vector-effect="none" points="2342.42,1389.92 2305.93,1381.77 " />
<polyline fill="none" vector-effect="none" points="2305.93,1381.77 2268.55,1382.49 " />
<polyline fill="none" vector-effect="none" points="2268.55,1382.49 2232.47,1392.26 " />
<polyline fill="none" vector-effect="none" points="2232.47,1392.26 2199.93,1410.67 " />
<polyline fill="none" vector-effect="none" points="2199.93,1410.67 2173.12,1436.72 " />
<polyline fill="none" vector-effect="none" points="2173.12,1436.72 2153.97,1468.83 " />
<polyline fill="none" vector-effect="none" points="2153.97,1468.83 2144,1504.86 " />
<polyline fill="none" vector-effect="none" points="2144,1504.86 2144.12,1542.25 " />
<polyline fill="none" vector-effect="none" points="2144.12,1542.25 2154.53,1578.15 " />
<polyline fill="none" vector-effect="none" points="2154.53,1578.15 2174.62,1609.68 " />
<polyline fill="none" vector-effect="none" points="2174.62,1609.68 2202.89,1634.15 " />
<polyline fill="none" vector-effect="none" points="2202.89,1634.15 2237.07,1649.29 " />
<polyline fill="none" vector-effect="none" points="2237.07,1649.29 2274.2,1653.6 " />
<polyline fill="none" vector-effect="none" points="2274.2,1653.6 2310.9,1646.46 " />
<polyline fill="none" vector-effect="none" points="2310.9,1646.46 2343.61,1628.36 " />
<polyline fill="none" vector-effect="none" points="2343.61,1628.36 2369,1600.91 " />
<polyline fill="none" vector-effect="none" points="2369,1600.91 2384.31,1566.81 " />
<polyline fill="none" vector-effect="none" points="2384.31,1566.81 2387.73,1529.58 " />
<polyline fill="none" vector-effect="none" points="2387.73,1529.58 2378.68,1493.3 " />
<polyline fill="none" vector-effect="none" points="2378.68,1493.3 2358,1462.16 " />
<polyline fill="none" vector-effect="none" points="2358,1462.16 2327.96,1439.91 " />
<polyline fill="none" vector-effect="none" points="2327.96,1439.91 2292.07,1429.43 " />
<polyline fill="none" vector-effect="none" points="2292.07,1429.43 2254.79,1432.21 " />
<polyline fill="none" vector-effect="none" points="2254.79,1432.21 2220.95,1448.1 " />
<polyline fill="none" vector-effect="none" points="2220.95,1448.1 2195.15,1475.16 " />
<polyline fill="none" vector-effect="none" points="2195.15,1475.16 2181.08,1509.79 " />
<polyline fill="none" vector-effect="none" points="2181.08,1509.79 2180.92,1547.18 " />
<polyline fill="none" vector-effect="none" points="2180.92,1547.18 2194.89,1581.85 " />
<polyline fill="none" vector-effect="none" points="2194.89,1581.85 2221.08,1608.54 " />
<polyline fill="none" vector-effect="none" points="2221.08,1608.54 2255.57,1622.97 " />
<polyline fill="none" vector-effect="none" points="2255.57,1622.97 2292.95,1622.66 " />
<polyline fill="none" vector-effect="none" points="2292.95,1622.66 2327.12,1607.48 " />
<polyline fill="none" vector-effect="none" points="2327.12,1607.48 2352.24,1579.8 " />
<polyline fill="none" vector-effect="none" points="2352.24,1579.8 2363.84,1544.26 " />
<polyline fill="none" vector-effect="none" points="2363.84,1544.26 2359.68,1507.1 " />
<polyline fill="none" vector-effect="none" points="2359.68,1507.1 2340.31,1475.12 " />
<polyline fill="none" vector-effect="none" points="2340.31,1475.12 2309.21,1454.39 " />
<polyline fill="none" vector-effect="none" points="2309.21,1454.39 2272.21,1449.04 " />
<polyline fill="none" vector-effect="none" points="2272.21,1449.04 2236.56,1460.31 " />
<polyline fill="none" vector-effect="none" points="2236.56,1460.31 2209.51,1486.11 " />
<polyline fill="none" vector-effect="none" points="2209.51,1486.11 2196.77,1521.26 " />
<polyline fill="none" vector-effect="none" points="2196.77,1521.26 2201.22,1558.38 " />
<polyline fill="none" vector-effect="none" points="2201.22,1558.38 2222.07,1589.4 " />
<polyline fill="none" vector-effect="none" points="2222.07,1589.4 2254.87,1607.34 " />
<polyline fill="none" vector-effect="none" points="2254.87,1607.34 2292.25,1607.96 " />
<polyline fill="none" vector-effect="none" points="2292.25,1607.96 2325.53,1590.92 " />
<polyline fill="none" vector-effect="none" points="2325.53,1590.92 2346.7,1560.1 " />
<polyline fill="none" vector-effect="none" points="2346.7,1560.1 2350.47,1522.91 " />
<polyline fill="none" vector-effect="none" points="2350.47,1522.91 2335.7,1488.56 " />
<polyline fill="none" vector-effect="none" points="2335.7,1488.56 2306,1465.87 " />
<polyline fill="none" vector-effect="none" points="2306,1465.87 2268.95,1460.87 " />
<polyline fill="none" vector-effect="none" points="2268.95,1460.87 2234.37,1475.08 " />
<polyline fill="none" vector-effect="none" points="2234.37,1475.08 2211.7,1504.81 " />
<polyline fill="none" vector-effect="none" points="2211.7,1504.81 2207.37,1541.94 " />
<polyline fill="none" vector-effect="none" points="2207.37,1541.94 2222.79,1576 " />
<polyline fill="none" vector-effect="none" points="2222.79,1576 2253.66,1597.08 " />
<polyline fill="none" vector-effect="none" points="2253.66,1597.08 2291,1598.83 " />
<polyline fill="none" vector-effect="none" points="2291,1598.83 2323.61,1580.53 " />
<polyline fill="none" vector-effect="none" points="2323.61,1580.53 2341.39,1547.65 " />
<polyline fill="none" vector-effect="none" points="2341.39,1547.65 2338.63,1510.36 " />
<polyline fill="none" vector-effect="none" points="2338.63,1510.36 2316.03,1480.58 " />
<polyline fill="none" vector-effect="none" points="2316.03,1480.58 2280.8,1468.08 " />
<polyline fill="none" vector-effect="none" points="2280.8,1468.08 2244.54,1477.17 " />
<polyline fill="none" vector-effect="none" points="2244.54,1477.17 2219.53,1504.96 " />
<polyline fill="none" vector-effect="none" points="2219.53,1504.96 2214.5,1542.01 " />
<polyline fill="none" vector-effect="none" points="2214.5,1542.01 2231.39,1575.36 " />
<polyline fill="none" vector-effect="none" points="2231.39,1575.36 2264.33,1593.04 " />
<polyline fill="none" vector-effect="none" points="2264.33,1593.04 2301.43,1588.48 " />
<polyline fill="none" vector-effect="none" points="2301.43,1588.48 2328.96,1563.18 " />
<polyline fill="none" vector-effect="none" points="2328.96,1563.18 2336.43,1526.55 " />
<polyline fill="none" vector-effect="none" points="2336.43,1526.55 2320.82,1492.59 " />
<polyline fill="none" vector-effect="none" points="2320.82,1492.59 2288.05,1474.59 " />
<polyline fill="none" vector-effect="none" points="2288.05,1474.59 2251.04,1479.86 " />
<polyline fill="none" vector-effect="none" points="2251.04,1479.86 2224.74,1506.44 " />
<polyline fill="none" vector-effect="none" points="2224.74,1506.44 2220.07,1543.53 " />
<polyline fill="none" vector-effect="none" points="2220.07,1543.53 2239.14,1575.68 " />
<polyline fill="none" vector-effect="none" points="2239.14,1575.68 2274.01,1589.17 " />
<polyline fill="none" vector-effect="none" points="2274.01,1589.17 2309.69,1578.02 " />
<polyline fill="none" vector-effect="none" points="2309.69,1578.02 2330.5,1546.96 " />
<polyline fill="none" vector-effect="none" points="2330.5,1546.96 2327.02,1509.74 " />
<polyline fill="none" vector-effect="none" points="2327.02,1509.74 2300.67,1483.22 " />
<polyline fill="none" vector-effect="none" points="2300.67,1483.22 2263.45,1479.72 " />
<polyline fill="none" vector-effect="none" points="2263.45,1479.72 2232.74,1501.03 " />
<polyline fill="none" vector-effect="none" points="2232.74,1501.03 2223.2,1537.18 " />
<polyline fill="none" vector-effect="none" points="2223.2,1537.18 2239.59,1570.78 " />
<polyline fill="none" vector-effect="none" points="2239.59,1570.78 2274.04,1585.32 " />
<polyline fill="none" vector-effect="none" points="2274.04,1585.32 2309.48,1573.42 " />
<polyline fill="none" vector-effect="none" points="2309.48,1573.42 2327.99,1540.94 " />
<polyline fill="none" vector-effect="none" points="2327.99,1540.94 2319.95,1504.42 " />
<polyline fill="none" vector-effect="none" points="2319.95,1504.42 2289.39,1482.89 " />
<polyline fill="none" vector-effect="none" points="2289.39,1482.89 2252.33,1487.83 " />
<polyline fill="none" vector-effect="none" points="2252.33,1487.83 2228.62,1516.74 " />
<polyline fill="none" vector-effect="none" points="2228.62,1516.74 2231.26,1554.03 " />
<polyline fill="none" vector-effect="none" points="2231.26,1554.03 2258.95,1579.15 " />
<polyline fill="none" vector-effect="none" points="2258.95,1579.15 2296.31,1577.96 " />
<polyline fill="none" vector-effect="none" points="2296.31,1577.96 2322.19,1550.98 " />
<polyline fill="none" vector-effect="none" points="2322.19,1550.98 2321.6,1513.6 " />
<polyline fill="none" vector-effect="none" points="2321.6,1513.6 2294.74,1487.6 " />
<polyline fill="none" vector-effect="none" points="2294.74,1487.6 2257.36,1488.44 " />
<polyline fill="none" vector-effect="none" points="2257.36,1488.44 2231.85,1515.76 " />
<polyline fill="none" vector-effect="none" points="2231.85,1515.76 2233.79,1553.1 " />
<polyline fill="none" vector-effect="none" points="2233.79,1553.1 2262.14,1577.47 " />
<polyline fill="none" vector-effect="none" points="2262.14,1577.47 2299.32,1573.59 " />
<polyline fill="none" vector-effect="none" points="2299.32,1573.59 2321.84,1543.75 " />
<polyline fill="none" vector-effect="none" points="2321.84,1543.75 2315.18,1506.96 " />
<polyline fill="none" vector-effect="none" points="2315.18,1506.96 2283.51,1487.1 " />
<polyline fill="none" vector-effect="none" points="2283.51,1487.1 2247.55,1497.32 " />
<polyline fill="none" vector-effect="none" points="2247.55,1497.32 2231.26,1530.97 " />
<polyline fill="none" vector-effect="none" points="2231.26,1530.97 2245.73,1565.44 " />
</g>

<g fill="none" stroke="#dd5400" stroke-opacity="1" stroke-width="1.16667" stroke-linecap="butt" stroke-linejoin="round" transform="matrix(0.431033,0,0,0.435877,-706.027,-46.3331)"
font-family="MS Shell Dlg 2" font-size="8.14286" font-weight="400" font-style="normal" 
>
<polyline fill="none" vector-effect="none" points="2240.29,1482.51 2245.73,1565.44 2201.9,1494.83 " />
</g>

<g fill="#dd5400" fill-opacity="1" stroke="#dd5400" stroke-opacity="1" stroke-width="1.16667" stroke-linecap="butt" stroke-linejoin="round" transform="matrix(0.431033,0,0,0.435877,-706.027,-46.3331)"
font-family="MS Shell Dlg 2" font-size="8.14286" font-weight="400" font-style="normal" 
>
<polyline fill="none" vector-effect="none" points="1853.72,343.782 2245.73,1565.44 " />
</g>
</g>
</svg>
